font.ufo
<glyph name="quotedbl" format="1">
  <advance width="600"/>
  <unicode hex="0022"/>
  <outline>
    <contour>
      <point x="50" y="622" type="line"/>
      <point x="50" y="354" type="line"/>
      <point x="265" y="354" type="line"/>
      <point x="265" y="622" type="line"/>
    </contour>
    <contour>
      <point x="335" y="622" type="line"/>
      <point x="335" y="354" type="line"/>
      <point x="550" y="354" type="line"/>
      <point x="550" y="622" type="line"/>
    </contour>
  </outline>
</glyph>
<glyph name="percent" format="1">
  <advance width="1264"/>
  <unicode hex="0025"/>
  <outline>
    <contour>
      <point x="1234" y="325" type="line"/>
      <point x="1234" y="357"/>
      <point x="1218" y="373"/>
      <point x="1186" y="373" type="curve" smooth="yes"/>
      <point x="830" y="373" type="line" smooth="yes"/>
      <point x="798" y="373"/>
      <point x="782" y="357"/>
      <point x="782" y="325" type="curve" smooth="yes"/>
      <point x="782" y="50" type="line" smooth="yes"/>
      <point x="782" y="18"/>
      <point x="798" y="2"/>
      <point x="830" y="2" type="curve" smooth="yes"/>
      <point x="1186" y="2" type="line" smooth="yes"/>
      <point x="1218" y="2"/>
      <point x="1234" y="18"/>
      <point x="1234" y="50" type="curve" smooth="yes"/>
    </contour>
    <contour>
      <point x="1051" y="66" type="line"/>
      <point x="1051" y="51"/>
      <point x="1048" y="48"/>
      <point x="1032" y="48" type="curve" smooth="yes"/>
      <point x="984" y="48" type="line" smooth="yes"/>
      <point x="969" y="48"/>
      <point x="966" y="51"/>
      <point x="966" y="66" type="curve" smooth="yes"/>
      <point x="966" y="309" type="line" smooth="yes"/>
      <point x="966" y="324"/>
      <point x="969" y="327"/>
      <point x="984" y="327" type="curve" smooth="yes"/>
      <point x="1032" y="327" type="line" smooth="yes"/>
      <point x="1048" y="327"/>
      <point x="1051" y="324"/>
      <point x="1051" y="309" type="curve" smooth="yes"/>
    </contour>
    <contour>
      <point x="777" y="622" type="line"/>
      <point x="308" y="0" type="line"/>
      <point x="484" y="0" type="line"/>
      <point x="956" y="622" type="line"/>
    </contour>
    <contour>
      <point x="482" y="574" type="line"/>
      <point x="482" y="606"/>
      <point x="466" y="622"/>
      <point x="434" y="622" type="curve" smooth="yes"/>
      <point x="78" y="622" type="line" smooth="yes"/>
      <point x="46" y="622"/>
      <point x="30" y="606"/>
      <point x="30" y="574" type="curve" smooth="yes"/>
      <point x="30" y="299" type="line" smooth="yes"/>
      <point x="30" y="267"/>
      <point x="46" y="251"/>
      <point x="78" y="251" type="curve" smooth="yes"/>
      <point x="434" y="251" type="line" smooth="yes"/>
      <point x="466" y="251"/>
      <point x="482" y="267"/>
      <point x="482" y="299" type="curve" smooth="yes"/>
    </contour>
    <contour>
      <point x="299" y="315" type="line"/>
      <point x="299" y="300"/>
      <point x="296" y="297"/>
      <point x="280" y="297" type="curve" smooth="yes"/>
      <point x="232" y="297" type="line" smooth="yes"/>
      <point x="217" y="297"/>
      <point x="214" y="300"/>
      <point x="214" y="315" type="curve" smooth="yes"/>
      <point x="214" y="558" type="line" smooth="yes"/>
      <point x="214" y="573"/>
      <point x="217" y="576"/>
      <point x="232" y="576" type="curve" smooth="yes"/>
      <point x="280" y="576" type="line" smooth="yes"/>
      <point x="296" y="576"/>
      <point x="299" y="573"/>
      <point x="299" y="558" type="curve" smooth="yes"/>
    </contour>
  </outline>
</glyph>
<glyph name="quotesingle" format="1">
  <advance width="315"/>
  <unicode hex="0027"/>
  <outline>
    <contour>
      <point x="50" y="622" type="line"/>
      <point x="50" y="354" type="line"/>
      <point x="265" y="354" type="line"/>
      <point x="265" y="622" type="line"/>
    </contour>
  </outline>
</glyph>
<glyph name="parenleft" format="1">
  <advance width="394"/>
  <unicode hex="0028"/>
  <outline>
    <contour>
      <point x="50" y="411" type="line"/>
      <point x="50" y="605"/>
      <point x="186" y="719"/>
      <point x="411" y="719" type="curve" smooth="yes"/>
      <point x="455" y="719" type="line"/>
      <point x="455" y="660" type="line"/>
      <point x="442" y="660" type="line" smooth="yes"/>
      <point x="338" y="660"/>
      <point x="304" y="574"/>
      <point x="304" y="459" type="curve" smooth="yes"/>
      <point x="304" y="40" type="line" smooth="yes"/>
      <point x="304" y="-75"/>
      <point x="338" y="-161"/>
      <point x="442" y="-161" type="curve" smooth="yes"/>
      <point x="455" y="-161" type="line"/>
      <point x="455" y="-220" type="line"/>
      <point x="411" y="-220" type="line" smooth="yes"/>
      <point x="186" y="-220"/>
      <point x="50" y="-106"/>
      <point x="50" y="88" type="curve" smooth="yes"/>
    </contour>
  </outline>
</glyph>
<glyph name="plus" format="1">
  <advance width="761"/>
  <unicode hex="002B"/>
  <outline>
    <contour>
      <point x="50" y="239" type="line"/>
      <point x="711" y="239" type="line"/>
      <point x="711" y="380" type="line"/>
      <point x="50" y="380" type="line"/>
    </contour>
    <contour>
      <point x="266" y="520" type="line"/>
      <point x="266" y="99" type="line"/>
      <point x="496" y="99" type="line"/>
      <point x="496" y="520" type="line"/>
    </contour>
  </outline>
</glyph>
<glyph name="hyphen" format="1">
  <advance width="450"/>
  <unicode hex="002D"/>
  <outline>
    <contour>
      <point x="55" y="242" type="line"/>
      <point x="395" y="242" type="line"/>
      <point x="395" y="301" type="line"/>
      <point x="55" y="301" type="line"/>
    </contour>
  </outline>
</glyph>
<glyph name="zero" format="1">
  <advance width="727"/>
  <unicode hex="0030"/>
  <outline>
    <contour>
      <point x="672" y="543" type="line"/>
      <point x="672" y="596"/>
      <point x="646" y="622"/>
      <point x="593" y="622" type="curve" smooth="yes"/>
      <point x="134" y="622" type="line" smooth="yes"/>
      <point x="81" y="622"/>
      <point x="55" y="596"/>
      <point x="55" y="543" type="curve" smooth="yes"/>
      <point x="55" y="79" type="line" smooth="yes"/>
      <point x="55" y="26"/>
      <point x="81" y="0"/>
      <point x="134" y="0" type="curve" smooth="yes"/>
      <point x="593" y="0" type="line" smooth="yes"/>
      <point x="646" y="0"/>
      <point x="672" y="26"/>
      <point x="672" y="79" type="curve" smooth="yes"/>
    </contour>
    <contour>
      <point x="418" y="90" type="line"/>
      <point x="418" y="64"/>
      <point x="413" y="59"/>
      <point x="387" y="59" type="curve" smooth="yes"/>
      <point x="341" y="59" type="line" smooth="yes"/>
      <point x="315" y="59"/>
      <point x="310" y="64"/>
      <point x="310" y="90" type="curve" smooth="yes"/>
      <point x="310" y="532" type="line" smooth="yes"/>
      <point x="310" y="558"/>
      <point x="315" y="563"/>
      <point x="341" y="563" type="curve" smooth="yes"/>
      <point x="387" y="563" type="line" smooth="yes"/>
      <point x="413" y="563"/>
      <point x="418" y="558"/>
      <point x="418" y="532" type="curve" smooth="yes"/>
    </contour>
  </outline>
</glyph>
<glyph name="three" format="1">
  <advance width="707"/>
  <unicode hex="0033"/>
  <outline>
    <contour>
      <point x="295" y="532" type="line"/>
      <point x="295" y="558"/>
      <point x="300" y="563"/>
      <point x="326" y="563" type="curve" smooth="yes"/>
      <point x="372" y="563" type="line" smooth="yes"/>
      <point x="398" y="563"/>
      <point x="403" y="558"/>
      <point x="403" y="532" type="curve" smooth="yes"/>
      <point x="403" y="376" type="line" smooth="yes"/>
      <point x="403" y="350"/>
      <point x="398" y="345"/>
      <point x="372" y="345" type="curve" smooth="yes"/>
      <point x="283" y="345" type="line"/>
      <point x="283" y="285" type="line"/>
      <point x="372" y="285" type="line" smooth="yes"/>
      <point x="398" y="285"/>
      <point x="403" y="280"/>
      <point x="403" y="254" type="curve" smooth="yes"/>
      <point x="403" y="90" type="line" smooth="yes"/>
      <point x="403" y="64"/>
      <point x="398" y="59"/>
      <point x="372" y="59" type="curve" smooth="yes"/>
      <point x="326" y="59" type="line" smooth="yes"/>
      <point x="300" y="59"/>
      <point x="295" y="64"/>
      <point x="295" y="90" type="curve" smooth="yes"/>
      <point x="295" y="202" type="line"/>
      <point x="40" y="202" type="line"/>
      <point x="40" y="79" type="line" smooth="yes"/>
      <point x="40" y="26"/>
      <point x="66" y="0"/>
      <point x="119" y="0" type="curve" smooth="yes"/>
      <point x="578" y="0" type="line" smooth="yes"/>
      <point x="631" y="0"/>
      <point x="657" y="26"/>
      <point x="657" y="79" type="curve" smooth="yes"/>
      <point x="657" y="240" type="line" smooth="yes"/>
      <point x="657" y="290"/>
      <point x="633" y="316"/>
      <point x="585" y="319" type="curve"/>
      <point x="633" y="321"/>
      <point x="657" y="347"/>
      <point x="657" y="398" type="curve" smooth="yes"/>
      <point x="657" y="543" type="line" smooth="yes"/>
      <point x="657" y="596"/>
      <point x="631" y="622"/>
      <point x="578" y="622" type="curve" smooth="yes"/>
      <point x="119" y="622" type="line" smooth="yes"/>
      <point x="66" y="622"/>
      <point x="40" y="596"/>
      <point x="40" y="543" type="curve" smooth="yes"/>
      <point x="40" y="419" type="line"/>
      <point x="295" y="419" type="line"/>
    </contour>
  </outline>
</glyph>
<glyph name="four" format="1">
  <advance width="731"/>
  <unicode hex="0034"/>
  <outline>
    <contour>
      <point x="86" y="101" type="line"/>
      <point x="721" y="101" type="line"/>
      <point x="721" y="160" type="line"/>
      <point x="86" y="160" type="line"/>
    </contour>
    <contour>
      <point x="20" y="101" type="line"/>
      <point x="229" y="101" type="line"/>
      <point x="538" y="622" type="line"/>
      <point x="280" y="622" type="line"/>
      <point x="20" y="202" type="line"/>
    </contour>
    <contour>
      <point x="394" y="328" type="line"/>
      <point x="394" y="0" type="line"/>
      <point x="634" y="0" type="line"/>
      <point x="634" y="328" type="line"/>
    </contour>
  </outline>
</glyph>
<glyph name="six" format="1">
  <advance width="707"/>
  <unicode hex="0036"/>
  <outline>
    <contour>
      <point x="403" y="222" type="line"/>
      <point x="403" y="90" type="line" smooth="yes"/>
      <point x="403" y="64"/>
      <point x="398" y="59"/>
      <point x="372" y="59" type="curve" smooth="yes"/>
      <point x="341" y="59" type="line" smooth="yes"/>
      <point x="315" y="59"/>
      <point x="310" y="64"/>
      <point x="310" y="90" type="curve" smooth="yes"/>
      <point x="310" y="532" type="line" smooth="yes"/>
      <point x="310" y="558"/>
      <point x="315" y="563"/>
      <point x="341" y="563" type="curve" smooth="yes"/>
      <point x="358" y="563" type="line" smooth="yes"/>
      <point x="384" y="563"/>
      <point x="389" y="558"/>
      <point x="389" y="532" type="curve" smooth="yes"/>
      <point x="389" y="432" type="line"/>
      <point x="643" y="432" type="line"/>
      <point x="643" y="543" type="line" smooth="yes"/>
      <point x="643" y="596"/>
      <point x="617" y="622"/>
      <point x="564" y="622" type="curve" smooth="yes"/>
      <point x="134" y="622" type="line" smooth="yes"/>
      <point x="81" y="622"/>
      <point x="55" y="596"/>
      <point x="55" y="543" type="curve" smooth="yes"/>
      <point x="55" y="79" type="line" smooth="yes"/>
      <point x="55" y="26"/>
      <point x="81" y="0"/>
      <point x="134" y="0" type="curve" smooth="yes"/>
      <point x="578" y="0" type="line" smooth="yes"/>
      <point x="631" y="0"/>
      <point x="657" y="26"/>
      <point x="657" y="79" type="curve" smooth="yes"/>
      <point x="657" y="222" type="line"/>
    </contour>
    <contour>
      <point x="657" y="183" type="line"/>
      <point x="657" y="284" type="line" smooth="yes"/>
      <point x="657" y="337"/>
      <point x="631" y="363"/>
      <point x="578" y="363" type="curve" smooth="yes"/>
      <point x="293" y="363" type="line"/>
      <point x="293" y="304" type="line"/>
      <point x="372" y="304" type="line" smooth="yes"/>
      <point x="398" y="304"/>
      <point x="403" y="299"/>
      <point x="403" y="273" type="curve" smooth="yes"/>
      <point x="403" y="183" type="line"/>
    </contour>
  </outline>
</glyph>
<glyph name="eight" format="1">
  <advance width="703"/>
  <unicode hex="0038"/>
  <outline>
    <contour>
      <point x="129" y="622" type="line"/>
      <point x="76" y="622"/>
      <point x="50" y="596"/>
      <point x="50" y="543" type="curve" smooth="yes"/>
      <point x="50" y="394" type="line" smooth="yes"/>
      <point x="50" y="343"/>
      <point x="74" y="317"/>
      <point x="122" y="315" type="curve"/>
      <point x="74" y="312"/>
      <point x="50" y="286"/>
      <point x="50" y="236" type="curve" smooth="yes"/>
      <point x="50" y="79" type="line" smooth="yes"/>
      <point x="50" y="26"/>
      <point x="76" y="0"/>
      <point x="129" y="0" type="curve" smooth="yes"/>
      <point x="574" y="0" type="line" smooth="yes"/>
      <point x="627" y="0"/>
      <point x="653" y="26"/>
      <point x="653" y="79" type="curve" smooth="yes"/>
      <point x="653" y="236" type="line" smooth="yes"/>
      <point x="653" y="286"/>
      <point x="629" y="312"/>
      <point x="581" y="315" type="curve"/>
      <point x="629" y="317"/>
      <point x="653" y="343"/>
      <point x="653" y="394" type="curve" smooth="yes"/>
      <point x="653" y="543" type="line" smooth="yes"/>
      <point x="653" y="596"/>
      <point x="627" y="622"/>
      <point x="574" y="622" type="curve" smooth="yes"/>
    </contour>
    <contour>
      <point x="305" y="252" type="line"/>
      <point x="305" y="278"/>
      <point x="310" y="283"/>
      <point x="336" y="283" type="curve" smooth="yes"/>
      <point x="368" y="283" type="line" smooth="yes"/>
      <point x="394" y="283"/>
      <point x="399" y="278"/>
      <point x="399" y="252" type="curve" smooth="yes"/>
      <point x="399" y="90" type="line" smooth="yes"/>
      <point x="399" y="64"/>
      <point x="394" y="59"/>
      <point x="368" y="59" type="curve" smooth="yes"/>
      <point x="336" y="59" type="line" smooth="yes"/>
      <point x="310" y="59"/>
      <point x="305" y="64"/>
      <point x="305" y="90" type="curve" smooth="yes"/>
    </contour>
    <contour>
      <point x="399" y="373" type="line"/>
      <point x="399" y="347"/>
      <point x="394" y="342"/>
      <point x="368" y="342" type="curve" smooth="yes"/>
      <point x="336" y="342" type="line" smooth="yes"/>
      <point x="310" y="342"/>
      <point x="305" y="347"/>
      <point x="305" y="373" type="curve" smooth="yes"/>
      <point x="305" y="532" type="line" smooth="yes"/>
      <point x="305" y="558"/>
      <point x="310" y="563"/>
      <point x="336" y="563" type="curve" smooth="yes"/>
      <point x="368" y="563" type="line" smooth="yes"/>
      <point x="394" y="563"/>
      <point x="399" y="558"/>
      <point x="399" y="532" type="curve" smooth="yes"/>
    </contour>
  </outline>
</glyph>
<glyph name="nine" format="1">
  <advance width="707"/>
  <unicode hex="0039"/>
  <outline>
    <contour>
      <point x="316" y="190" type="line"/>
      <point x="62" y="190" type="line"/>
      <point x="62" y="79" type="line" smooth="yes"/>
      <point x="62" y="26"/>
      <point x="88" y="0"/>
      <point x="141" y="0" type="curve" smooth="yes"/>
      <point x="573" y="0" type="line" smooth="yes"/>
      <point x="626" y="0"/>
      <point x="652" y="26"/>
      <point x="652" y="79" type="curve" smooth="yes"/>
      <point x="652" y="543" type="line" smooth="yes"/>
      <point x="652" y="596"/>
      <point x="626" y="622"/>
      <point x="573" y="622" type="curve" smooth="yes"/>
      <point x="344" y="622" type="line"/>
      <point x="344" y="563" type="line"/>
      <point x="366" y="563" type="line" smooth="yes"/>
      <point x="392" y="563"/>
      <point x="397" y="558"/>
      <point x="397" y="532" type="curve" smooth="yes"/>
      <point x="397" y="90" type="line" smooth="yes"/>
      <point x="397" y="64"/>
      <point x="392" y="59"/>
      <point x="366" y="59" type="curve" smooth="yes"/>
      <point x="347" y="59" type="line" smooth="yes"/>
      <point x="321" y="59"/>
      <point x="316" y="64"/>
      <point x="316" y="90" type="curve" smooth="yes"/>
    </contour>
    <contour>
      <point x="304" y="532" type="line"/>
      <point x="304" y="558"/>
      <point x="309" y="563"/>
      <point x="335" y="563" type="curve" smooth="yes"/>
      <point x="355" y="563" type="line"/>
      <point x="355" y="622" type="line"/>
      <point x="129" y="622" type="line" smooth="yes"/>
      <point x="76" y="622"/>
      <point x="50" y="596"/>
      <point x="50" y="543" type="curve" smooth="yes"/>
      <point x="50" y="338" type="line" smooth="yes"/>
      <point x="50" y="285"/>
      <point x="76" y="259"/>
      <point x="129" y="259" type="curve" smooth="yes"/>
      <point x="414" y="259" type="line"/>
      <point x="414" y="318" type="line"/>
      <point x="335" y="318" type="line" smooth="yes"/>
      <point x="309" y="318"/>
      <point x="304" y="323"/>
      <point x="304" y="349" type="curve" smooth="yes"/>
    </contour>
  </outline>
</glyph>
<glyph name="equal" format="1">
  <advance width="761"/>
  <unicode hex="003D"/>
  <outline>
    <contour>
      <point x="50" y="350" type="line"/>
      <point x="711" y="350" type="line"/>
      <point x="711" y="491" type="line"/>
      <point x="50" y="491" type="line"/>
    </contour>
    <contour>
      <point x="50" y="128" type="line"/>
      <point x="711" y="128" type="line"/>
      <point x="711" y="269" type="line"/>
      <point x="50" y="269" type="line"/>
    </contour>
  </outline>
</glyph>
<glyph name="B" format="1">
  <advance width="737"/>
  <unicode hex="0042"/>
  <outline>
    <contour>
      <point x="60" y="622" type="line"/>
      <point x="60" y="0" type="line"/>
      <point x="603" y="0" type="line" smooth="yes"/>
      <point x="656" y="0"/>
      <point x="682" y="26"/>
      <point x="682" y="79" type="curve" smooth="yes"/>
      <point x="682" y="234" type="line" smooth="yes"/>
      <point x="682" y="284"/>
      <point x="658" y="310"/>
      <point x="610" y="313" type="curve"/>
      <point x="658" y="315"/>
      <point x="682" y="341"/>
      <point x="682" y="392" type="curve" smooth="yes"/>
      <point x="682" y="543" type="line" smooth="yes"/>
      <point x="682" y="596"/>
      <point x="656" y="622"/>
      <point x="603" y="622" type="curve" smooth="yes"/>
    </contour>
    <contour>
      <point x="440" y="81" type="line"/>
      <point x="440" y="66"/>
      <point x="428" y="59"/>
      <point x="404" y="59" type="curve" smooth="yes"/>
      <point x="314" y="59" type="line"/>
      <point x="314" y="282" type="line"/>
      <point x="409" y="282" type="line" smooth="yes"/>
      <point x="435" y="282"/>
      <point x="440" y="277"/>
      <point x="440" y="251" type="curve" smooth="yes"/>
    </contour>
    <contour>
      <point x="440" y="372" type="line"/>
      <point x="440" y="346"/>
      <point x="435" y="341"/>
      <point x="409" y="341" type="curve" smooth="yes"/>
      <point x="314" y="341" type="line"/>
      <point x="314" y="563" type="line"/>
      <point x="409" y="563" type="line" smooth="yes"/>
      <point x="435" y="563"/>
      <point x="440" y="558"/>
      <point x="440" y="532" type="curve" smooth="yes"/>
    </contour>
  </outline>
</glyph>
<glyph name="C" format="1">
  <advance width="714"/>
  <unicode hex="0043"/>
  <outline>
    <contour>
      <point x="309" y="532" type="line"/>
      <point x="309" y="558"/>
      <point x="314" y="563"/>
      <point x="340" y="563" type="curve" smooth="yes"/>
      <point x="374" y="563" type="line"/>
      <point x="374" y="622" type="line"/>
      <point x="134" y="622" type="line" smooth="yes"/>
      <point x="81" y="622"/>
      <point x="55" y="596"/>
      <point x="55" y="543" type="curve" smooth="yes"/>
      <point x="55" y="79" type="line" smooth="yes"/>
      <point x="55" y="26"/>
      <point x="81" y="0"/>
      <point x="134" y="0" type="curve" smooth="yes"/>
      <point x="374" y="0" type="line"/>
      <point x="374" y="59" type="line"/>
      <point x="340" y="59" type="line" smooth="yes"/>
      <point x="314" y="59"/>
      <point x="309" y="64"/>
      <point x="309" y="90" type="curve" smooth="yes"/>
    </contour>
    <contour>
      <point x="415" y="390" type="line"/>
      <point x="669" y="390" type="line"/>
      <point x="669" y="543" type="line" smooth="yes"/>
      <point x="669" y="596"/>
      <point x="643" y="622"/>
      <point x="590" y="622" type="curve" smooth="yes"/>
      <point x="350" y="622" type="line"/>
      <point x="350" y="563" type="line"/>
      <point x="384" y="563" type="line" smooth="yes"/>
      <point x="410" y="563"/>
      <point x="415" y="558"/>
      <point x="415" y="532" type="curve" smooth="yes"/>
    </contour>
    <contour>
      <point x="415" y="90" type="line"/>
      <point x="415" y="64"/>
      <point x="410" y="59"/>
      <point x="384" y="59" type="curve" smooth="yes"/>
      <point x="350" y="59" type="line"/>
      <point x="350" y="0" type="line"/>
      <point x="590" y="0" type="line" smooth="yes"/>
      <point x="643" y="0"/>
      <point x="669" y="26"/>
      <point x="669" y="79" type="curve" smooth="yes"/>
      <point x="669" y="229" type="line"/>
      <point x="415" y="229" type="line"/>
    </contour>
  </outline>
</glyph>
<glyph name="F" format="1">
  <advance width="628"/>
  <unicode hex="0046"/>
  <outline>
    <contour>
      <point x="60" y="622" type="line"/>
      <point x="60" y="0" type="line"/>
      <point x="324" y="0" type="line"/>
      <point x="324" y="622" type="line"/>
    </contour>
    <contour>
      <point x="564" y="324" type="line"/>
      <point x="168" y="324" type="line"/>
      <point x="168" y="265" type="line"/>
      <point x="564" y="265" type="line"/>
    </contour>
    <contour>
      <point x="603" y="622" type="line"/>
      <point x="148" y="622" type="line"/>
      <point x="148" y="563" type="line"/>
      <point x="603" y="563" type="line"/>
    </contour>
  </outline>
</glyph>
<glyph name="G" format="1">
  <advance width="720"/>
  <unicode hex="0047"/>
  <outline>
    <contour>
      <point x="309" y="532" type="line"/>
      <point x="309" y="558"/>
      <point x="314" y="563"/>
      <point x="340" y="563" type="curve" smooth="yes"/>
      <point x="375" y="563" type="line"/>
      <point x="375" y="622" type="line"/>
      <point x="134" y="622" type="line" smooth="yes"/>
      <point x="81" y="622"/>
      <point x="55" y="596"/>
      <point x="55" y="543" type="curve" smooth="yes"/>
      <point x="55" y="79" type="line" smooth="yes"/>
      <point x="55" y="26"/>
      <point x="81" y="0"/>
      <point x="134" y="0" type="curve" smooth="yes"/>
      <point x="370" y="0" type="line"/>
      <point x="370" y="59" type="line"/>
      <point x="340" y="59" type="line" smooth="yes"/>
      <point x="314" y="59"/>
      <point x="309" y="64"/>
      <point x="309" y="90" type="curve" smooth="yes"/>
    </contour>
    <contour>
      <point x="670" y="320" type="line"/>
      <point x="353" y="320" type="line"/>
      <point x="353" y="261" type="line"/>
      <point x="670" y="261" type="line"/>
    </contour>
    <contour>
      <point x="416" y="409" type="line"/>
      <point x="670" y="409" type="line"/>
      <point x="670" y="543" type="line" smooth="yes"/>
      <point x="670" y="596"/>
      <point x="644" y="622"/>
      <point x="591" y="622" type="curve" smooth="yes"/>
      <point x="350" y="622" type="line"/>
      <point x="350" y="563" type="line"/>
      <point x="385" y="563" type="line" smooth="yes"/>
      <point x="411" y="563"/>
      <point x="416" y="558"/>
      <point x="416" y="532" type="curve" smooth="yes"/>
    </contour>
    <contour>
      <point x="416" y="90" type="line"/>
      <point x="416" y="64"/>
      <point x="411" y="59"/>
      <point x="385" y="59" type="curve" smooth="yes"/>
      <point x="356" y="59" type="line"/>
      <point x="356" y="0" type="line"/>
      <point x="591" y="0" type="line" smooth="yes"/>
      <point x="644" y="0"/>
      <point x="670" y="26"/>
      <point x="670" y="79" type="curve" smooth="yes"/>
      <point x="670" y="269" type="line"/>
      <point x="416" y="269" type="line"/>
    </contour>
  </outline>
</glyph>
<glyph name="K" format="1">
  <advance width="759"/>
  <unicode hex="004B"/>
  <outline>
    <contour>
      <point x="476" y="622" type="line"/>
      <point x="309" y="318" type="line"/>
      <point x="478" y="0" type="line"/>
      <point x="743" y="0" type="line"/>
      <point x="565" y="318" type="line"/>
      <point x="741" y="622" type="line"/>
    </contour>
    <contour>
      <point x="60" y="622" type="line"/>
      <point x="60" y="0" type="line"/>
      <point x="307" y="0" type="line"/>
      <point x="307" y="622" type="line"/>
    </contour>
  </outline>
</glyph>
<glyph name="M" format="1">
  <advance width="952"/>
  <unicode hex="004D"/>
  <outline>
    <contour>
      <point x="551" y="135" type="line"/>
      <point x="662" y="415" type="line"/>
      <point x="662" y="0" type="line"/>
      <point x="892" y="0" type="line"/>
      <point x="892" y="622" type="line"/>
      <point x="623" y="622" type="line"/>
      <point x="476" y="260" type="line"/>
      <point x="330" y="622" type="line"/>
      <point x="60" y="622" type="line"/>
      <point x="60" y="0" type="line"/>
      <point x="290" y="0" type="line"/>
      <point x="290" y="413" type="line"/>
      <point x="402" y="135" type="line"/>
    </contour>
  </outline>
</glyph>
<glyph name="N" format="1">
  <advance width="759"/>
  <unicode hex="004E"/>
  <outline>
    <contour>
      <point x="464" y="622" type="line"/>
      <point x="464" y="220" type="line"/>
      <point x="272" y="622" type="line"/>
      <point x="60" y="622" type="line"/>
      <point x="60" y="0" type="line"/>
      <point x="295" y="0" type="line"/>
      <point x="295" y="397" type="line"/>
      <point x="488" y="0" type="line"/>
      <point x="699" y="0" type="line"/>
      <point x="699" y="622" type="line"/>
    </contour>
  </outline>
</glyph>
<glyph name="P" format="1">
  <advance width="716"/>
  <unicode hex="0050"/>
  <outline>
    <contour>
      <point x="432" y="293" type="line"/>
      <point x="432" y="267"/>
      <point x="427" y="262"/>
      <point x="401" y="262" type="curve" smooth="yes"/>
      <point x="142" y="262" type="line"/>
      <point x="142" y="203" type="line"/>
      <point x="607" y="203" type="line" smooth="yes"/>
      <point x="660" y="203"/>
      <point x="686" y="229"/>
      <point x="686" y="282" type="curve" smooth="yes"/>
      <point x="686" y="543" type="line" smooth="yes"/>
      <point x="686" y="596"/>
      <point x="660" y="622"/>
      <point x="607" y="622" type="curve" smooth="yes"/>
      <point x="142" y="622" type="line"/>
      <point x="142" y="563" type="line"/>
      <point x="401" y="563" type="line" smooth="yes"/>
      <point x="427" y="563"/>
      <point x="432" y="558"/>
      <point x="432" y="532" type="curve" smooth="yes"/>
    </contour>
    <contour>
      <point x="60" y="622" type="line"/>
      <point x="60" y="0" type="line"/>
      <point x="314" y="0" type="line"/>
      <point x="314" y="622" type="line"/>
    </contour>
  </outline>
</glyph>
<glyph name="R" format="1">
  <advance width="733"/>
  <unicode hex="0052"/>
  <outline>
    <contour>
      <point x="432" y="313" type="line"/>
      <point x="432" y="287"/>
      <point x="427" y="282"/>
      <point x="401" y="282" type="curve" smooth="yes"/>
      <point x="142" y="282" type="line"/>
      <point x="142" y="223" type="line"/>
      <point x="607" y="223" type="line" smooth="yes"/>
      <point x="660" y="223"/>
      <point x="686" y="249"/>
      <point x="686" y="302" type="curve" smooth="yes"/>
      <point x="686" y="543" type="line" smooth="yes"/>
      <point x="686" y="596"/>
      <point x="660" y="622"/>
      <point x="607" y="622" type="curve" smooth="yes"/>
      <point x="142" y="622" type="line"/>
      <point x="142" y="563" type="line"/>
      <point x="401" y="563" type="line" smooth="yes"/>
      <point x="427" y="563"/>
      <point x="432" y="558"/>
      <point x="432" y="532" type="curve" smooth="yes"/>
    </contour>
    <contour>
      <point x="60" y="622" type="line"/>
      <point x="60" y="0" type="line"/>
      <point x="314" y="0" type="line"/>
      <point x="314" y="622" type="line"/>
    </contour>
    <contour>
      <point x="286" y="276" type="line"/>
      <point x="446" y="0" type="line"/>
      <point x="712" y="0" type="line"/>
      <point x="537" y="276" type="line"/>
    </contour>
  </outline>
</glyph>
<glyph name="S" format="1">
  <advance width="695"/>
  <unicode hex="0053"/>
  <outline>
    <contour>
      <point x="396" y="90" type="line"/>
      <point x="396" y="64"/>
      <point x="391" y="59"/>
      <point x="365" y="59" type="curve" smooth="yes"/>
      <point x="330" y="59" type="line" smooth="yes"/>
      <point x="304" y="59"/>
      <point x="299" y="64"/>
      <point x="299" y="90" type="curve" smooth="yes"/>
      <point x="299" y="205" type="line"/>
      <point x="45" y="205" type="line"/>
      <point x="45" y="79" type="line" smooth="yes"/>
      <point x="45" y="26"/>
      <point x="71" y="0"/>
      <point x="124" y="0" type="curve" smooth="yes"/>
      <point x="571" y="0" type="line" smooth="yes"/>
      <point x="624" y="0"/>
      <point x="650" y="26"/>
      <point x="650" y="79" type="curve" smooth="yes"/>
      <point x="650" y="264" type="line" smooth="yes"/>
      <point x="650" y="317"/>
      <point x="624" y="343"/>
      <point x="571" y="343" type="curve" smooth="yes"/>
      <point x="327" y="343" type="line" smooth="yes"/>
      <point x="301" y="343"/>
      <point x="296" y="348"/>
      <point x="296" y="374" type="curve" smooth="yes"/>
      <point x="296" y="532" type="line" smooth="yes"/>
      <point x="296" y="558"/>
      <point x="301" y="563"/>
      <point x="327" y="563" type="curve" smooth="yes"/>
      <point x="362" y="563" type="line" smooth="yes"/>
      <point x="388" y="563"/>
      <point x="393" y="558"/>
      <point x="393" y="532" type="curve" smooth="yes"/>
      <point x="393" y="417" type="line"/>
      <point x="647" y="417" type="line"/>
      <point x="647" y="543" type="line" smooth="yes"/>
      <point x="647" y="596"/>
      <point x="621" y="622"/>
      <point x="568" y="622" type="curve" smooth="yes"/>
      <point x="121" y="622" type="line" smooth="yes"/>
      <point x="68" y="622"/>
      <point x="42" y="596"/>
      <point x="42" y="543" type="curve" smooth="yes"/>
      <point x="42" y="363" type="line" smooth="yes"/>
      <point x="42" y="310"/>
      <point x="68" y="284"/>
      <point x="121" y="284" type="curve" smooth="yes"/>
      <point x="365" y="284" type="line" smooth="yes"/>
      <point x="391" y="284"/>
      <point x="396" y="279"/>
      <point x="396" y="253" type="curve" smooth="yes"/>
    </contour>
  </outline>
</glyph>
<glyph name="T" format="1">
  <advance width="605"/>
  <unicode hex="0054"/>
  <outline>
    <contour>
      <point x="174" y="574" type="line"/>
      <point x="174" y="0" type="line"/>
      <point x="428" y="0" type="line"/>
      <point x="428" y="574" type="line"/>
    </contour>
    <contour>
      <point x="600" y="622" type="line"/>
      <point x="5" y="622" type="line"/>
      <point x="5" y="563" type="line"/>
      <point x="600" y="563" type="line"/>
    </contour>
  </outline>
</glyph>
<glyph name="U" format="1">
  <advance width="733"/>
  <unicode hex="0055"/>
  <outline>
    <contour>
      <point x="309" y="622" type="line"/>
      <point x="55" y="622" type="line"/>
      <point x="55" y="79" type="line" smooth="yes"/>
      <point x="55" y="26"/>
      <point x="81" y="0"/>
      <point x="134" y="0" type="curve" smooth="yes"/>
      <point x="599" y="0" type="line" smooth="yes"/>
      <point x="652" y="0"/>
      <point x="678" y="26"/>
      <point x="678" y="79" type="curve" smooth="yes"/>
      <point x="678" y="622" type="line"/>
      <point x="424" y="622" type="line"/>
      <point x="424" y="90" type="line" smooth="yes"/>
      <point x="424" y="64"/>
      <point x="419" y="59"/>
      <point x="393" y="59" type="curve" smooth="yes"/>
      <point x="340" y="59" type="line" smooth="yes"/>
      <point x="314" y="59"/>
      <point x="309" y="64"/>
      <point x="309" y="90" type="curve" smooth="yes"/>
    </contour>
  </outline>
</glyph>
<glyph name="V" format="1">
  <advance width="740"/>
  <unicode hex="0056"/>
  <outline>
    <contour>
      <point x="479" y="622" type="line"/>
      <point x="369" y="166" type="line"/>
      <point x="260" y="622" type="line"/>
      <point x="4" y="622" type="line"/>
      <point x="227" y="0" type="line"/>
      <point x="513" y="0" type="line"/>
      <point x="736" y="622" type="line"/>
    </contour>
  </outline>
</glyph>
<glyph name="a" format="1">
  <advance width="682"/>
  <unicode hex="0061"/>
  <outline>
    <contour>
      <point x="290" y="233" type="line"/>
      <point x="290" y="395" type="line" smooth="yes"/>
      <point x="290" y="421"/>
      <point x="295" y="426"/>
      <point x="321" y="426" type="curve" smooth="yes"/>
      <point x="349" y="426" type="line" smooth="yes"/>
      <point x="375" y="426"/>
      <point x="387" y="418"/>
      <point x="387" y="397" type="curve" smooth="yes"/>
      <point x="387" y="371" type="line"/>
      <point x="396" y="371" type="line"/>
      <point x="396" y="395" type="line" smooth="yes"/>
      <point x="396" y="450"/>
      <point x="392" y="485"/>
      <point x="329" y="485" type="curve" smooth="yes"/>
      <point x="129" y="485" type="line" smooth="yes"/>
      <point x="76" y="485"/>
      <point x="50" y="459"/>
      <point x="50" y="406" type="curve" smooth="yes"/>
      <point x="50" y="233" type="line"/>
    </contour>
    <contour>
      <point x="627" y="0" type="line"/>
      <point x="627" y="485" type="line"/>
      <point x="387" y="485" type="line"/>
      <point x="387" y="0" type="line"/>
    </contour>
    <contour>
      <point x="50" y="251" type="line"/>
      <point x="50" y="79" type="line" smooth="yes"/>
      <point x="50" y="26"/>
      <point x="76" y="0"/>
      <point x="129" y="0" type="curve" smooth="yes"/>
      <point x="329" y="0" type="line" smooth="yes"/>
      <point x="392" y="0"/>
      <point x="396" y="35"/>
      <point x="396" y="90" type="curve" smooth="yes"/>
      <point x="396" y="114" type="line"/>
      <point x="387" y="114" type="line"/>
      <point x="387" y="88" type="line" smooth="yes"/>
      <point x="387" y="68"/>
      <point x="375" y="59"/>
      <point x="349" y="59" type="curve" smooth="yes"/>
      <point x="321" y="59" type="line" smooth="yes"/>
      <point x="295" y="59"/>
      <point x="290" y="64"/>
      <point x="290" y="90" type="curve" smooth="yes"/>
      <point x="290" y="251" type="line"/>
    </contour>
  </outline>
</glyph>
<glyph name="b" format="1">
  <advance width="682"/>
  <unicode hex="0062"/>
  <outline>
    <contour>
      <point x="392" y="252" type="line"/>
      <point x="392" y="90" type="line" smooth="yes"/>
      <point x="392" y="64"/>
      <point x="387" y="59"/>
      <point x="361" y="59" type="curve" smooth="yes"/>
      <point x="333" y="59" type="line" smooth="yes"/>
      <point x="307" y="59"/>
      <point x="295" y="68"/>
      <point x="295" y="88" type="curve" smooth="yes"/>
      <point x="295" y="114" type="line"/>
      <point x="286" y="114" type="line"/>
      <point x="286" y="90" type="line" smooth="yes"/>
      <point x="286" y="35"/>
      <point x="290" y="0"/>
      <point x="353" y="0" type="curve" smooth="yes"/>
      <point x="553" y="0" type="line" smooth="yes"/>
      <point x="606" y="0"/>
      <point x="632" y="26"/>
      <point x="632" y="79" type="curve" smooth="yes"/>
      <point x="632" y="252" type="line"/>
    </contour>
    <contour>
      <point x="632" y="234" type="line"/>
      <point x="632" y="406" type="line" smooth="yes"/>
      <point x="632" y="459"/>
      <point x="606" y="485"/>
      <point x="553" y="485" type="curve" smooth="yes"/>
      <point x="353" y="485" type="line" smooth="yes"/>
      <point x="290" y="485"/>
      <point x="286" y="450"/>
      <point x="286" y="395" type="curve" smooth="yes"/>
      <point x="286" y="371" type="line"/>
      <point x="295" y="371" type="line"/>
      <point x="295" y="397" type="line" smooth="yes"/>
      <point x="295" y="418"/>
      <point x="307" y="426"/>
      <point x="333" y="426" type="curve" smooth="yes"/>
      <point x="361" y="426" type="line" smooth="yes"/>
      <point x="387" y="426"/>
      <point x="392" y="421"/>
      <point x="392" y="395" type="curve" smooth="yes"/>
      <point x="392" y="234" type="line"/>
    </contour>
    <contour>
      <point x="55" y="669" type="line"/>
      <point x="55" y="0" type="line"/>
      <point x="295" y="0" type="line"/>
      <point x="295" y="669" type="line"/>
    </contour>
  </outline>
</glyph>
<glyph name="c" format="1">
  <advance width="651"/>
  <unicode hex="0063"/>
  <outline>
    <contour>
      <point x="290" y="395" type="line"/>
      <point x="290" y="421"/>
      <point x="295" y="426"/>
      <point x="321" y="426" type="curve" smooth="yes"/>
      <point x="339" y="426" type="line"/>
      <point x="339" y="485" type="line"/>
      <point x="129" y="485" type="line" smooth="yes"/>
      <point x="76" y="485"/>
      <point x="50" y="459"/>
      <point x="50" y="406" type="curve" smooth="yes"/>
      <point x="50" y="79" type="line" smooth="yes"/>
      <point x="50" y="26"/>
      <point x="76" y="0"/>
      <point x="129" y="0" type="curve" smooth="yes"/>
      <point x="338" y="0" type="line"/>
      <point x="338" y="59" type="line"/>
      <point x="321" y="59" type="line" smooth="yes"/>
      <point x="295" y="59"/>
      <point x="290" y="64"/>
      <point x="290" y="90" type="curve" smooth="yes"/>
    </contour>
    <contour>
      <point x="384" y="303" type="line"/>
      <point x="616" y="303" type="line"/>
      <point x="616" y="406" type="line" smooth="yes"/>
      <point x="616" y="459"/>
      <point x="590" y="485"/>
      <point x="537" y="485" type="curve" smooth="yes"/>
      <point x="335" y="485" type="line"/>
      <point x="335" y="426" type="line"/>
      <point x="353" y="426" type="line" smooth="yes"/>
      <point x="379" y="426"/>
      <point x="384" y="421"/>
      <point x="384" y="395" type="curve" smooth="yes"/>
    </contour>
    <contour>
      <point x="384" y="90" type="line"/>
      <point x="384" y="64"/>
      <point x="379" y="59"/>
      <point x="353" y="59" type="curve" smooth="yes"/>
      <point x="335" y="59" type="line"/>
      <point x="335" y="0" type="line"/>
      <point x="537" y="0" type="line" smooth="yes"/>
      <point x="590" y="0"/>
      <point x="616" y="26"/>
      <point x="616" y="79" type="curve" smooth="yes"/>
      <point x="616" y="179" type="line"/>
      <point x="384" y="179" type="line"/>
    </contour>
  </outline>
</glyph>
<glyph name="e" format="1">
  <advance width="682"/>
  <unicode hex="0065"/>
  <outline>
    <contour>
      <point x="290" y="395" type="line"/>
      <point x="290" y="421"/>
      <point x="295" y="426"/>
      <point x="321" y="426" type="curve" smooth="yes"/>
      <point x="360" y="426" type="line"/>
      <point x="360" y="485" type="line"/>
      <point x="129" y="485" type="line" smooth="yes"/>
      <point x="76" y="485"/>
      <point x="50" y="459"/>
      <point x="50" y="406" type="curve" smooth="yes"/>
      <point x="50" y="79" type="line" smooth="yes"/>
      <point x="50" y="26"/>
      <point x="76" y="0"/>
      <point x="129" y="0" type="curve" smooth="yes"/>
      <point x="353" y="0" type="line"/>
      <point x="353" y="59" type="line"/>
      <point x="321" y="59" type="line" smooth="yes"/>
      <point x="295" y="59"/>
      <point x="290" y="64"/>
      <point x="290" y="90" type="curve" smooth="yes"/>
    </contour>
    <contour>
      <point x="405" y="257" type="line"/>
      <point x="637" y="257" type="line"/>
      <point x="637" y="406" type="line" smooth="yes"/>
      <point x="637" y="459"/>
      <point x="611" y="485"/>
      <point x="558" y="485" type="curve" smooth="yes"/>
      <point x="345" y="485" type="line"/>
      <point x="345" y="426" type="line"/>
      <point x="374" y="426" type="line" smooth="yes"/>
      <point x="400" y="426"/>
      <point x="405" y="421"/>
      <point x="405" y="395" type="curve" smooth="yes"/>
    </contour>
    <contour>
      <point x="405" y="90" type="line"/>
      <point x="405" y="64"/>
      <point x="400" y="59"/>
      <point x="374" y="59" type="curve" smooth="yes"/>
      <point x="345" y="59" type="line"/>
      <point x="345" y="0" type="line"/>
      <point x="558" y="0" type="line" smooth="yes"/>
      <point x="611" y="0"/>
      <point x="637" y="26"/>
      <point x="637" y="79" type="curve" smooth="yes"/>
      <point x="637" y="164" type="line"/>
      <point x="405" y="164" type="line"/>
    </contour>
    <contour>
      <point x="637" y="278" type="line"/>
      <point x="170" y="278" type="line"/>
      <point x="170" y="219" type="line"/>
      <point x="637" y="219" type="line"/>
    </contour>
  </outline>
</glyph>
<glyph name="f" format="1">
  <advance width="437"/>
  <unicode hex="0066"/>
  <outline>
    <contour>
      <point x="322" y="579" type="line"/>
      <point x="322" y="605"/>
      <point x="327" y="610"/>
      <point x="353" y="610" type="curve" smooth="yes"/>
      <point x="432" y="610" type="line"/>
      <point x="432" y="669" type="line"/>
      <point x="161" y="669" type="line" smooth="yes"/>
      <point x="108" y="669"/>
      <point x="82" y="643"/>
      <point x="82" y="590" type="curve" smooth="yes"/>
      <point x="82" y="0" type="line"/>
      <point x="322" y="0" type="line"/>
    </contour>
    <contour>
      <point x="432" y="485" type="line"/>
      <point x="10" y="485" type="line"/>
      <point x="10" y="426" type="line"/>
      <point x="432" y="426" type="line"/>
    </contour>
  </outline>
</glyph>
<glyph name="g" format="1">
  <advance width="682"/>
  <unicode hex="0067"/>
  <outline>
    <contour>
      <point x="50" y="253" type="line"/>
      <point x="50" y="79" type="line" smooth="yes"/>
      <point x="50" y="26"/>
      <point x="76" y="0"/>
      <point x="129" y="0" type="curve" smooth="yes"/>
      <point x="329" y="0" type="line" smooth="yes"/>
      <point x="392" y="0"/>
      <point x="396" y="35"/>
      <point x="396" y="90" type="curve" smooth="yes"/>
      <point x="396" y="114" type="line"/>
      <point x="387" y="114" type="line"/>
      <point x="387" y="88" type="line" smooth="yes"/>
      <point x="387" y="68"/>
      <point x="375" y="59"/>
      <point x="349" y="59" type="curve" smooth="yes"/>
      <point x="321" y="59" type="line" smooth="yes"/>
      <point x="295" y="59"/>
      <point x="290" y="64"/>
      <point x="290" y="90" type="curve" smooth="yes"/>
      <point x="290" y="253" type="line"/>
    </contour>
    <contour>
      <point x="290" y="235" type="line"/>
      <point x="290" y="395" type="line" smooth="yes"/>
      <point x="290" y="421"/>
      <point x="295" y="426"/>
      <point x="321" y="426" type="curve" smooth="yes"/>
      <point x="349" y="426" type="line" smooth="yes"/>
      <point x="375" y="426"/>
      <point x="387" y="418"/>
      <point x="387" y="397" type="curve" smooth="yes"/>
      <point x="387" y="371" type="line"/>
      <point x="396" y="371" type="line"/>
      <point x="396" y="395" type="line" smooth="yes"/>
      <point x="396" y="450"/>
      <point x="392" y="485"/>
      <point x="329" y="485" type="curve" smooth="yes"/>
      <point x="129" y="485" type="line" smooth="yes"/>
      <point x="76" y="485"/>
      <point x="50" y="459"/>
      <point x="50" y="406" type="curve" smooth="yes"/>
      <point x="50" y="235" type="line"/>
    </contour>
    <contour>
      <point x="387" y="-51" type="line"/>
      <point x="387" y="-77"/>
      <point x="382" y="-82"/>
      <point x="356" y="-82" type="curve" smooth="yes"/>
      <point x="83" y="-82" type="line"/>
      <point x="83" y="-141" type="line"/>
      <point x="548" y="-141" type="line" smooth="yes"/>
      <point x="601" y="-141"/>
      <point x="627" y="-115"/>
      <point x="627" y="-62" type="curve" smooth="yes"/>
      <point x="627" y="40" type="line"/>
      <point x="387" y="40" type="line"/>
    </contour>
    <contour>
      <point x="627" y="33" type="line"/>
      <point x="627" y="485" type="line"/>
      <point x="387" y="485" type="line"/>
      <point x="387" y="33" type="line"/>
    </contour>
  </outline>
</glyph>
<glyph name="h" format="1">
  <advance width="682"/>
  <unicode hex="0068"/>
  <outline>
    <contour>
      <point x="632" y="0" type="line"/>
      <point x="632" y="406" type="line" smooth="yes"/>
      <point x="632" y="459"/>
      <point x="606" y="485"/>
      <point x="553" y="485" type="curve" smooth="yes"/>
      <point x="353" y="485" type="line" smooth="yes"/>
      <point x="290" y="485"/>
      <point x="286" y="450"/>
      <point x="286" y="395" type="curve" smooth="yes"/>
      <point x="286" y="371" type="line"/>
      <point x="295" y="371" type="line"/>
      <point x="295" y="397" type="line" smooth="yes"/>
      <point x="295" y="418"/>
      <point x="307" y="426"/>
      <point x="333" y="426" type="curve" smooth="yes"/>
      <point x="361" y="426" type="line" smooth="yes"/>
      <point x="387" y="426"/>
      <point x="392" y="421"/>
      <point x="392" y="395" type="curve" smooth="yes"/>
      <point x="392" y="0" type="line"/>
    </contour>
    <contour>
      <point x="295" y="0" type="line"/>
      <point x="295" y="669" type="line"/>
      <point x="55" y="669" type="line"/>
      <point x="55" y="0" type="line"/>
    </contour>
  </outline>
</glyph>
<glyph name="j" format="1">
  <advance width="350"/>
  <unicode hex="006A"/>
  <outline>
    <contour>
      <point x="55" y="-51" type="line"/>
      <point x="55" y="-77"/>
      <point x="50" y="-82"/>
      <point x="24" y="-82" type="curve" smooth="yes"/>
      <point x="-26" y="-82" type="line"/>
      <point x="-26" y="-141" type="line"/>
      <point x="216" y="-141" type="line" smooth="yes"/>
      <point x="269" y="-141"/>
      <point x="295" y="-115"/>
      <point x="295" y="-62" type="curve" smooth="yes"/>
      <point x="295" y="485" type="line"/>
      <point x="55" y="485" type="line"/>
    </contour>
    <contour>
      <point x="51" y="543" type="line"/>
      <point x="299" y="543" type="line"/>
      <point x="299" y="669" type="line"/>
      <point x="51" y="669" type="line"/>
    </contour>
  </outline>
</glyph>
<glyph name="p" format="1">
  <advance width="682"/>
  <unicode hex="0070"/>
  <outline>
    <contour>
      <point x="632" y="233" type="line"/>
      <point x="632" y="405" type="line" smooth="yes"/>
      <point x="632" y="458"/>
      <point x="606" y="484"/>
      <point x="553" y="484" type="curve" smooth="yes"/>
      <point x="353" y="484" type="line" smooth="yes"/>
      <point x="290" y="484"/>
      <point x="286" y="449"/>
      <point x="286" y="394" type="curve" smooth="yes"/>
      <point x="286" y="370" type="line"/>
      <point x="295" y="370" type="line"/>
      <point x="295" y="396" type="line" smooth="yes"/>
      <point x="295" y="417"/>
      <point x="307" y="425"/>
      <point x="333" y="425" type="curve" smooth="yes"/>
      <point x="361" y="425" type="line" smooth="yes"/>
      <point x="387" y="425"/>
      <point x="392" y="420"/>
      <point x="392" y="394" type="curve" smooth="yes"/>
      <point x="392" y="233" type="line"/>
    </contour>
    <contour>
      <point x="295" y="-141" type="line"/>
      <point x="295" y="391" type="line"/>
      <point x="290" y="391" type="line"/>
      <point x="290" y="484" type="line"/>
      <point x="55" y="484" type="line"/>
      <point x="55" y="-141" type="line"/>
    </contour>
    <contour>
      <point x="392" y="251" type="line"/>
      <point x="392" y="90" type="line" smooth="yes"/>
      <point x="392" y="64"/>
      <point x="387" y="59"/>
      <point x="361" y="59" type="curve" smooth="yes"/>
      <point x="333" y="59" type="line" smooth="yes"/>
      <point x="307" y="59"/>
      <point x="295" y="68"/>
      <point x="295" y="88" type="curve" smooth="yes"/>
      <point x="295" y="114" type="line"/>
      <point x="286" y="114" type="line"/>
      <point x="286" y="90" type="line" smooth="yes"/>
      <point x="286" y="35"/>
      <point x="290" y="0"/>
      <point x="353" y="0" type="curve" smooth="yes"/>
      <point x="553" y="0" type="line" smooth="yes"/>
      <point x="606" y="0"/>
      <point x="632" y="26"/>
      <point x="632" y="79" type="curve" smooth="yes"/>
      <point x="632" y="251" type="line"/>
    </contour>
  </outline>
</glyph>
<glyph name="q" format="1">
  <advance width="682"/>
  <unicode hex="0071"/>
  <outline>
    <contour>
      <point x="290" y="233" type="line"/>
      <point x="290" y="394" type="line" smooth="yes"/>
      <point x="290" y="420"/>
      <point x="295" y="425"/>
      <point x="321" y="425" type="curve" smooth="yes"/>
      <point x="349" y="425" type="line" smooth="yes"/>
      <point x="375" y="425"/>
      <point x="387" y="417"/>
      <point x="387" y="396" type="curve" smooth="yes"/>
      <point x="387" y="370" type="line"/>
      <point x="396" y="370" type="line"/>
      <point x="396" y="394" type="line" smooth="yes"/>
      <point x="396" y="449"/>
      <point x="392" y="484"/>
      <point x="329" y="484" type="curve" smooth="yes"/>
      <point x="129" y="484" type="line" smooth="yes"/>
      <point x="76" y="484"/>
      <point x="50" y="458"/>
      <point x="50" y="405" type="curve" smooth="yes"/>
      <point x="50" y="233" type="line"/>
    </contour>
    <contour>
      <point x="627" y="-141" type="line"/>
      <point x="627" y="484" type="line"/>
      <point x="392" y="484" type="line"/>
      <point x="392" y="391" type="line"/>
      <point x="387" y="391" type="line"/>
      <point x="387" y="-141" type="line"/>
    </contour>
    <contour>
      <point x="50" y="251" type="line"/>
      <point x="50" y="79" type="line" smooth="yes"/>
      <point x="50" y="26"/>
      <point x="76" y="0"/>
      <point x="129" y="0" type="curve" smooth="yes"/>
      <point x="329" y="0" type="line" smooth="yes"/>
      <point x="392" y="0"/>
      <point x="396" y="35"/>
      <point x="396" y="90" type="curve" smooth="yes"/>
      <point x="396" y="114" type="line"/>
      <point x="387" y="114" type="line"/>
      <point x="387" y="88" type="line" smooth="yes"/>
      <point x="387" y="68"/>
      <point x="375" y="59"/>
      <point x="349" y="59" type="curve" smooth="yes"/>
      <point x="321" y="59" type="line" smooth="yes"/>
      <point x="295" y="59"/>
      <point x="290" y="64"/>
      <point x="290" y="90" type="curve" smooth="yes"/>
      <point x="290" y="251" type="line"/>
    </contour>
  </outline>
</glyph>
<glyph name="t" format="1">
  <advance width="430"/>
  <unicode hex="0074"/>
  <outline>
    <contour>
      <point x="323" y="611" type="line"/>
      <point x="83" y="611" type="line"/>
      <point x="83" y="79" type="line" smooth="yes"/>
      <point x="83" y="26"/>
      <point x="109" y="0"/>
      <point x="162" y="0" type="curve" smooth="yes"/>
      <point x="410" y="0" type="line"/>
      <point x="410" y="59" type="line"/>
      <point x="354" y="59" type="line" smooth="yes"/>
      <point x="328" y="59"/>
      <point x="323" y="64"/>
      <point x="323" y="90" type="curve" smooth="yes"/>
    </contour>
    <contour>
      <point x="411" y="485" type="line"/>
      <point x="5" y="485" type="line"/>
      <point x="5" y="426" type="line"/>
      <point x="411" y="426" type="line"/>
    </contour>
  </outline>
</glyph>
<glyph name="w" format="1">
  <advance width="950"/>
  <unicode hex="0077"/>
  <outline>
    <contour>
      <point x="721" y="485" type="line"/>
      <point x="655" y="146" type="line"/>
      <point x="575" y="485" type="line"/>
      <point x="375" y="485" type="line"/>
      <point x="295" y="146" type="line"/>
      <point x="229" y="485" type="line"/>
      <point x="3" y="485" type="line"/>
      <point x="150" y="0" type="line"/>
      <point x="409" y="0" type="line"/>
      <point x="475" y="329" type="line"/>
      <point x="541" y="0" type="line"/>
      <point x="800" y="0" type="line"/>
      <point x="947" y="485" type="line"/>
    </contour>
  </outline>
</glyph>
<glyph name="z" format="1">
  <advance width="563"/>
  <unicode hex="007A"/>
  <outline>
    <contour>
      <point x="529" y="485" type="line"/>
      <point x="38" y="485" type="line"/>
      <point x="38" y="426" type="line"/>
      <point x="529" y="426" type="line"/>
    </contour>
    <contour>
      <point x="272" y="426" type="line"/>
      <point x="20" y="59" type="line"/>
      <point x="272" y="59" type="line"/>
      <point x="529" y="426" type="line"/>
    </contour>
    <contour>
      <point x="543" y="59" type="line"/>
      <point x="20" y="59" type="line"/>
      <point x="20" y="0" type="line"/>
      <point x="543" y="0" type="line"/>
    </contour>
  </outline>
</glyph>
<glyph name="bar" format="1">
  <advance width="349"/>
  <unicode hex="007C"/>
  <outline>
    <contour>
      <point x="65" y="807" type="line"/>
      <point x="65" y="-187" type="line"/>
      <point x="284" y="-187" type="line"/>
      <point x="284" y="807" type="line"/>
    </contour>
  </outline>
</glyph>
<glyph name="braceright" format="1">
  <advance width="465"/>
  <unicode hex="007D"/>
  <outline>
    <contour>
      <point x="87" y="379" type="line"/>
      <point x="87" y="308"/>
      <point x="121" y="252"/>
      <point x="189" y="250" type="curve"/>
      <point x="121" y="247"/>
      <point x="87" y="191"/>
      <point x="87" y="121" type="curve" smooth="yes"/>
      <point x="87" y="-41" type="line" smooth="yes"/>
      <point x="87" y="-113"/>
      <point x="79" y="-162"/>
      <point x="19" y="-162" type="curve" smooth="yes"/>
      <point x="6" y="-162" type="line"/>
      <point x="6" y="-221" type="line"/>
      <point x="50" y="-221" type="line" smooth="yes"/>
      <point x="239" y="-221"/>
      <point x="341" y="-177"/>
      <point x="341" y="17" type="curve" smooth="yes"/>
      <point x="341" y="145" type="line" smooth="yes"/>
      <point x="341" y="199"/>
      <point x="366" y="223"/>
      <point x="436" y="223" type="curve" smooth="yes"/>
      <point x="445" y="223" type="line"/>
      <point x="445" y="282" type="line"/>
      <point x="436" y="282" type="line" smooth="yes"/>
      <point x="366" y="282"/>
      <point x="341" y="307"/>
      <point x="341" y="362" type="curve" smooth="yes"/>
      <point x="341" y="481" type="line" smooth="yes"/>
      <point x="341" y="675"/>
      <point x="239" y="719"/>
      <point x="50" y="719" type="curve" smooth="yes"/>
      <point x="6" y="719" type="line"/>
      <point x="6" y="660" type="line"/>
      <point x="19" y="660" type="line" smooth="yes"/>
      <point x="79" y="660"/>
      <point x="87" y="611"/>
      <point x="87" y="539" type="curve" smooth="yes"/>
    </contour>
  </outline>
</glyph>
<glyph name="asciitilde" format="1">
  <advance width="818"/>
  <unicode hex="007E"/>
  <outline>
    <contour>
      <point x="311" y="252" type="curve" smooth="yes"/>
      <point x="388" y="252"/>
      <point x="435" y="158"/>
      <point x="527" y="158" type="curve" smooth="yes"/>
      <point x="699" y="158" type="line" smooth="yes"/>
      <point x="752" y="158"/>
      <point x="778" y="184"/>
      <point x="778" y="237" type="curve" smooth="yes"/>
      <point x="778" y="337" type="line"/>
      <point x="538" y="337" type="line"/>
      <point x="538" y="273" type="line" smooth="yes"/>
      <point x="538" y="247"/>
      <point x="533" y="242"/>
      <point x="507" y="242" type="curve" smooth="yes"/>
      <point x="448" y="242"/>
      <point x="405" y="337"/>
      <point x="291" y="337" type="curve" smooth="yes"/>
      <point x="119" y="337" type="line" smooth="yes"/>
      <point x="66" y="337"/>
      <point x="40" y="311"/>
      <point x="40" y="258" type="curve" smooth="yes"/>
      <point x="40" y="158" type="line"/>
      <point x="280" y="158" type="line"/>
      <point x="280" y="221" type="line" smooth="yes"/>
      <point x="280" y="247"/>
      <point x="285" y="252"/>
    </contour>
  </outline>
</glyph>
<glyph name="exclamdown" format="1">
  <advance width="419"/>
  <unicode hex="00A1"/>
  <outline>
    <contour>
      <point x="113" y="268" type="line"/>
      <point x="70" y="-138" type="line"/>
      <point x="348" y="-138" type="line"/>
      <point x="306" y="268" type="line"/>
    </contour>
    <contour>
      <point x="82" y="484" type="line"/>
      <point x="82" y="335" type="line"/>
      <point x="336" y="335" type="line"/>
      <point x="336" y="484" type="line"/>
    </contour>
  </outline>
</glyph>
<glyph name="sterling" format="1">
  <advance width="713"/>
  <unicode hex="00A3"/>
  <outline>
    <contour>
      <point x="344" y="532" type="line"/>
      <point x="344" y="558"/>
      <point x="349" y="563"/>
      <point x="375" y="563" type="curve" smooth="yes"/>
      <point x="402" y="563" type="line" smooth="yes"/>
      <point x="428" y="563"/>
      <point x="433" y="558"/>
      <point x="433" y="532" type="curve" smooth="yes"/>
      <point x="433" y="412" type="line"/>
      <point x="687" y="412" type="line"/>
      <point x="687" y="543" type="line" smooth="yes"/>
      <point x="687" y="596"/>
      <point x="661" y="622"/>
      <point x="608" y="622" type="curve" smooth="yes"/>
      <point x="169" y="622" type="line" smooth="yes"/>
      <point x="116" y="622"/>
      <point x="90" y="596"/>
      <point x="90" y="543" type="curve" smooth="yes"/>
      <point x="90" y="232" type="line" smooth="yes"/>
      <point x="90" y="168"/>
      <point x="89" y="106"/>
      <point x="28" y="90" type="curve"/>
      <point x="28" y="0" type="line"/>
      <point x="692" y="0" type="line"/>
      <point x="692" y="121" type="line"/>
      <point x="296" y="121" type="line"/>
      <point x="339" y="133"/>
      <point x="344" y="186"/>
      <point x="344" y="241" type="curve" smooth="yes"/>
    </contour>
    <contour>
      <point x="28" y="269" type="line"/>
      <point x="546" y="269" type="line"/>
      <point x="546" y="328" type="line"/>
      <point x="28" y="328" type="line"/>
    </contour>
  </outline>
</glyph>
<glyph name="yen" format="1">
  <advance width="746"/>
  <unicode hex="00A5"/>
  <outline>
    <contour>
      <point x="254" y="328" type="line"/>
      <point x="61" y="328" type="line"/>
      <point x="61" y="269" type="line"/>
      <point x="254" y="269" type="line"/>
    </contour>
    <contour>
      <point x="695" y="200" type="line"/>
      <point x="61" y="200" type="line"/>
      <point x="61" y="141" type="line"/>
      <point x="695" y="141" type="line"/>
    </contour>
    <contour>
      <point x="486" y="173" type="line"/>
      <point x="739" y="622" type="line"/>
      <point x="493" y="622" type="line"/>
      <point x="378" y="329" type="line"/>
      <point x="254" y="622" type="line"/>
      <point x="7" y="622" type="line"/>
      <point x="273" y="173" type="line"/>
    </contour>
    <contour>
      <point x="253" y="264" type="line"/>
      <point x="253" y="0" type="line"/>
      <point x="507" y="0" type="line"/>
      <point x="507" y="264" type="line"/>
    </contour>
    <contour>
      <point x="501" y="269" type="line"/>
      <point x="694" y="269" type="line"/>
      <point x="694" y="328" type="line"/>
      <point x="501" y="328" type="line"/>
    </contour>
  </outline>
</glyph>
<glyph name="dieresis" format="1">
  <advance width="705"/>
  <unicode hex="00A8"/>
  <outline>
    <contour>
      <point x="393" y="658" type="line"/>
      <point x="393" y="517" type="line"/>
      <point x="632" y="517" type="line"/>
      <point x="632" y="658" type="line"/>
    </contour>
    <contour>
      <point x="74" y="658" type="line"/>
      <point x="74" y="517" type="line"/>
      <point x="313" y="517" type="line"/>
      <point x="313" y="658" type="line"/>
    </contour>
  </outline>
</glyph>
<glyph name="guillemotleft" format="1">
  <advance width="792"/>
  <unicode hex="00AB"/>
  <outline>
    <contour>
      <point x="507" y="93" type="line"/>
      <point x="755" y="93" type="line"/>
      <point x="614" y="241" type="line"/>
      <point x="755" y="388" type="line"/>
      <point x="507" y="388" type="line"/>
      <point x="361" y="241" type="line"/>
    </contour>
    <contour>
      <point x="167" y="93" type="line"/>
      <point x="415" y="93" type="line"/>
      <point x="274" y="241" type="line"/>
      <point x="415" y="388" type="line"/>
      <point x="167" y="388" type="line"/>
      <point x="21" y="241" type="line"/>
    </contour>
  </outline>
</glyph>
<glyph name="degree" format="1">
  <advance width="682"/>
  <unicode hex="00B0"/>
  <outline>
    <contour>
      <point x="626" y="543" type="line"/>
      <point x="626" y="596"/>
      <point x="600" y="622"/>
      <point x="547" y="622" type="curve" smooth="yes"/>
      <point x="137" y="622" type="line" smooth="yes"/>
      <point x="84" y="622"/>
      <point x="58" y="596"/>
      <point x="58" y="543" type="curve" smooth="yes"/>
      <point x="58" y="373" type="line" smooth="yes"/>
      <point x="58" y="320"/>
      <point x="84" y="294"/>
      <point x="137" y="294" type="curve" smooth="yes"/>
      <point x="547" y="294" type="line" smooth="yes"/>
      <point x="600" y="294"/>
      <point x="626" y="320"/>
      <point x="626" y="373" type="curve" smooth="yes"/>
    </contour>
    <contour>
      <point x="397" y="384" type="line"/>
      <point x="397" y="358"/>
      <point x="392" y="353"/>
      <point x="366" y="353" type="curve" smooth="yes"/>
      <point x="320" y="353" type="line" smooth="yes"/>
      <point x="294" y="353"/>
      <point x="289" y="358"/>
      <point x="289" y="384" type="curve" smooth="yes"/>
      <point x="289" y="532" type="line" smooth="yes"/>
      <point x="289" y="558"/>
      <point x="294" y="563"/>
      <point x="320" y="563" type="curve" smooth="yes"/>
      <point x="366" y="563" type="line" smooth="yes"/>
      <point x="392" y="563"/>
      <point x="397" y="558"/>
      <point x="397" y="532" type="curve" smooth="yes"/>
    </contour>
  </outline>
</glyph>
<glyph name="threesuperior" format="1">
  <advance width="399"/>
  <unicode hex="00B3"/>
  <outline>
    <contour>
      <point x="180" y="563" type="line"/>
      <point x="180" y="577"/>
      <point x="183" y="580"/>
      <point x="197" y="580" type="curve" smooth="yes"/>
      <point x="222" y="580" type="line" smooth="yes"/>
      <point x="237" y="580"/>
      <point x="239" y="577"/>
      <point x="239" y="563" type="curve" smooth="yes"/>
      <point x="239" y="491" type="line" smooth="yes"/>
      <point x="239" y="476"/>
      <point x="237" y="474"/>
      <point x="222" y="474" type="curve" smooth="yes"/>
      <point x="174" y="474" type="line"/>
      <point x="174" y="432" type="line"/>
      <point x="222" y="432" type="line" smooth="yes"/>
      <point x="237" y="432"/>
      <point x="239" y="429"/>
      <point x="239" y="415" type="curve" smooth="yes"/>
      <point x="239" y="339" type="line" smooth="yes"/>
      <point x="239" y="325"/>
      <point x="237" y="322"/>
      <point x="222" y="322" type="curve" smooth="yes"/>
      <point x="197" y="322" type="line" smooth="yes"/>
      <point x="183" y="322"/>
      <point x="180" y="325"/>
      <point x="180" y="339" type="curve" smooth="yes"/>
      <point x="180" y="391" type="line"/>
      <point x="30" y="391" type="line"/>
      <point x="30" y="323" type="line" smooth="yes"/>
      <point x="30" y="294"/>
      <point x="44" y="280"/>
      <point x="73" y="280" type="curve" smooth="yes"/>
      <point x="346" y="280" type="line" smooth="yes"/>
      <point x="375" y="280"/>
      <point x="389" y="294"/>
      <point x="389" y="323" type="curve" smooth="yes"/>
      <point x="389" y="412" type="line" smooth="yes"/>
      <point x="389" y="440"/>
      <point x="376" y="454"/>
      <point x="350" y="455" type="curve"/>
      <point x="376" y="456"/>
      <point x="389" y="471"/>
      <point x="389" y="499" type="curve" smooth="yes"/>
      <point x="389" y="579" type="line" smooth="yes"/>
      <point x="389" y="608"/>
      <point x="375" y="622"/>
      <point x="346" y="622" type="curve" smooth="yes"/>
      <point x="73" y="622" type="line" smooth="yes"/>
      <point x="44" y="622"/>
      <point x="30" y="608"/>
      <point x="30" y="579" type="curve" smooth="yes"/>
      <point x="30" y="510" type="line"/>
      <point x="180" y="510" type="line"/>
    </contour>
  </outline>
</glyph>
<glyph name="mu.math" format="1">
  <advance width="689"/>
  <unicode hex="00B5"/>
  <outline>
    <contour>
      <point x="56" y="485" type="line"/>
      <point x="56" y="79" type="line" smooth="yes"/>
      <point x="56" y="26"/>
      <point x="82" y="0"/>
      <point x="135" y="0" type="curve" smooth="yes"/>
      <point x="335" y="0" type="line" smooth="yes"/>
      <point x="398" y="0"/>
      <point x="402" y="35"/>
      <point x="402" y="90" type="curve" smooth="yes"/>
      <point x="402" y="114" type="line"/>
      <point x="393" y="114" type="line"/>
      <point x="393" y="88" type="line" smooth="yes"/>
      <point x="393" y="67"/>
      <point x="381" y="59"/>
      <point x="355" y="59" type="curve" smooth="yes"/>
      <point x="327" y="59" type="line" smooth="yes"/>
      <point x="301" y="59"/>
      <point x="296" y="64"/>
      <point x="296" y="90" type="curve" smooth="yes"/>
      <point x="296" y="485" type="line"/>
    </contour>
    <contour>
      <point x="393" y="485" type="line"/>
      <point x="393" y="0" type="line"/>
      <point x="633" y="0" type="line"/>
      <point x="633" y="485" type="line"/>
    </contour>
    <contour>
      <point x="56" y="344" type="line"/>
      <point x="56" y="-141" type="line"/>
      <point x="296" y="-141" type="line"/>
      <point x="296" y="344" type="line"/>
    </contour>
  </outline>
</glyph>
<glyph name="periodcentered" format="1">
  <advance width="364"/>
  <unicode hex="00B7"/>
  <outline>
    <contour>
      <point x="62" y="237" type="line"/>
      <point x="316" y="237" type="line"/>
      <point x="316" y="386" type="line"/>
      <point x="62" y="386" type="line"/>
    </contour>
  </outline>
</glyph>
<glyph name="guillemotright" format="1">
  <advance width="777"/>
  <unicode hex="00BB"/>
  <outline>
    <contour>
      <point x="415" y="241" type="line"/>
      <point x="269" y="388" type="line"/>
      <point x="21" y="388" type="line"/>
      <point x="162" y="241" type="line"/>
      <point x="21" y="93" type="line"/>
      <point x="269" y="93" type="line"/>
    </contour>
    <contour>
      <point x="755" y="241" type="line"/>
      <point x="609" y="388" type="line"/>
      <point x="361" y="388" type="line"/>
      <point x="502" y="241" type="line"/>
      <point x="361" y="93" type="line"/>
      <point x="609" y="93" type="line"/>
    </contour>
  </outline>
</glyph>
<glyph name="onequarter" format="1">
  <advance width="1083"/>
  <unicode hex="00BC"/>
  <outline>
    <contour>
      <point x="635" y="56" type="line"/>
      <point x="1023" y="56" type="line"/>
      <point x="1023" y="88" type="line"/>
      <point x="635" y="88" type="line"/>
    </contour>
    <contour>
      <point x="559" y="56" type="line"/>
      <point x="714" y="56" type="line"/>
      <point x="883" y="342" type="line"/>
      <point x="702" y="342" type="line"/>
      <point x="559" y="111" type="line"/>
    </contour>
    <contour>
      <point x="805" y="181" type="line"/>
      <point x="805" y="0" type="line"/>
      <point x="975" y="0" type="line"/>
      <point x="975" y="181" type="line"/>
    </contour>
    <component base="slash" xOffset="180"/>
    <component base="onesuperior" xOffset="50"/>
  </outline>
</glyph>
<glyph name="questiondown" format="1">
  <advance width="661"/>
  <unicode hex="00BF"/>
  <outline>
    <contour>
      <point x="288" y="99" type="line"/>
      <point x="288" y="125"/>
      <point x="293" y="130"/>
      <point x="319" y="130" type="curve" smooth="yes"/>
      <point x="403" y="130" type="line"/>
      <point x="403" y="199" type="line"/>
      <point x="123" y="199" type="line" smooth="yes"/>
      <point x="70" y="199"/>
      <point x="44" y="173"/>
      <point x="44" y="120" type="curve" smooth="yes"/>
      <point x="44" y="-59" type="line" smooth="yes"/>
      <point x="44" y="-112"/>
      <point x="70" y="-138"/>
      <point x="123" y="-138" type="curve" smooth="yes"/>
      <point x="357" y="-138" type="line"/>
      <point x="357" y="-79" type="line"/>
      <point x="319" y="-79" type="line" smooth="yes"/>
      <point x="293" y="-79"/>
      <point x="288" y="-74"/>
      <point x="288" y="-48" type="curve"/>
    </contour>
    <contour>
      <point x="478" y="130" type="line"/>
      <point x="459" y="268" type="line"/>
      <point x="255" y="268" type="line"/>
      <point x="234" y="130" type="line"/>
    </contour>
    <contour>
      <point x="487" y="484" type="line"/>
      <point x="233" y="484" type="line"/>
      <point x="233" y="335" type="line"/>
      <point x="487" y="335" type="line"/>
    </contour>
    <contour>
      <point x="405" y="-48" type="line"/>
      <point x="405" y="-74"/>
      <point x="400" y="-79"/>
      <point x="374" y="-79" type="curve" smooth="yes"/>
      <point x="353" y="-79" type="line"/>
      <point x="353" y="-138" type="line"/>
      <point x="570" y="-138" type="line" smooth="yes"/>
      <point x="623" y="-138"/>
      <point x="649" y="-112"/>
      <point x="649" y="-59" type="curve" smooth="yes"/>
      <point x="649" y="61" type="line"/>
      <point x="405" y="61" type="line"/>
    </contour>
  </outline>
</glyph>
<glyph name="Agrave" format="1">
  <advance width="766"/>
  <unicode hex="00C0"/>
  <outline>
    <contour>
      <point x="233" y="622" type="line"/>
      <point x="0" y="0" type="line"/>
      <point x="243" y="0" type="line"/>
      <point x="382" y="477" type="line"/>
      <point x="517" y="0" type="line"/>
      <point x="766" y="0" type="line"/>
      <point x="533" y="622" type="line"/>
    </contour>
    <contour>
      <point x="158" y="182" type="line"/>
      <point x="158" y="123" type="line"/>
      <point x="611" y="123" type="line"/>
      <point x="611" y="182" type="line"/>
    </contour>
    <contour>
      <point x="112" y="824" type="line"/>
      <point x="290" y="669" type="line"/>
      <point x="476" y="669" type="line"/>
      <point x="340" y="824" type="line"/>
    </contour>
  </outline>
</glyph>
<glyph name="Odieresis" format="1">
  <advance width="705"/>
  <unicode hex="00D6"/>
  <outline>
    <contour>
      <point x="675" y="543" type="line"/>
      <point x="675" y="596"/>
      <point x="649" y="622"/>
      <point x="596" y="622" type="curve" smooth="yes"/>
      <point x="131" y="622" type="line" smooth="yes"/>
      <point x="78" y="622"/>
      <point x="52" y="596"/>
      <point x="52" y="543" type="curve" smooth="yes"/>
      <point x="52" y="79" type="line" smooth="yes"/>
      <point x="52" y="26"/>
      <point x="78" y="0"/>
      <point x="131" y="0" type="curve" smooth="yes"/>
      <point x="596" y="0" type="line" smooth="yes"/>
      <point x="649" y="0"/>
      <point x="675" y="26"/>
      <point x="675" y="79" type="curve" smooth="yes"/>
    </contour>
    <contour>
      <point x="421" y="90" type="line"/>
      <point x="421" y="64"/>
      <point x="416" y="59"/>
      <point x="390" y="59" type="curve" smooth="yes"/>
      <point x="337" y="59" type="line" smooth="yes"/>
      <point x="311" y="59"/>
      <point x="306" y="64"/>
      <point x="306" y="90" type="curve" smooth="yes"/>
      <point x="306" y="532" type="line" smooth="yes"/>
      <point x="306" y="558"/>
      <point x="311" y="563"/>
      <point x="337" y="563" type="curve" smooth="yes"/>
      <point x="390" y="563" type="line" smooth="yes"/>
      <point x="416" y="563"/>
      <point x="421" y="558"/>
      <point x="421" y="532" type="curve" smooth="yes"/>
    </contour>
    <contour>
      <point x="404" y="811" type="line"/>
      <point x="404" y="670" type="line"/>
      <point x="643" y="670" type="line"/>
      <point x="643" y="811" type="line"/>
    </contour>
    <contour>
      <point x="85" y="811" type="line"/>
      <point x="85" y="670" type="line"/>
      <point x="324" y="670" type="line"/>
      <point x="324" y="811" type="line"/>
    </contour>
  </outline>
</glyph>
<glyph name="Udieresis" format="1">
  <advance width="736"/>
  <unicode hex="00DC"/>
  <outline>
    <contour>
      <point x="425" y="622" type="line"/>
      <point x="425" y="90" type="line" smooth="yes"/>
      <point x="425" y="64"/>
      <point x="420" y="59"/>
      <point x="394" y="59" type="curve" smooth="yes"/>
      <point x="341" y="59" type="line" smooth="yes"/>
      <point x="315" y="59"/>
      <point x="310" y="64"/>
      <point x="310" y="90" type="curve" smooth="yes"/>
      <point x="310" y="622" type="line"/>
      <point x="56" y="622" type="line"/>
      <point x="56" y="79" type="line" smooth="yes"/>
      <point x="56" y="26"/>
      <point x="82" y="0"/>
      <point x="135" y="0" type="curve" smooth="yes"/>
      <point x="600" y="0" type="line" smooth="yes"/>
      <point x="653" y="0"/>
      <point x="679" y="26"/>
      <point x="679" y="79" type="curve" smooth="yes"/>
      <point x="679" y="622" type="line"/>
    </contour>
    <contour>
      <point x="88" y="810" type="line"/>
      <point x="88" y="669" type="line"/>
      <point x="327" y="669" type="line"/>
      <point x="327" y="810" type="line"/>
    </contour>
    <contour>
      <point x="407" y="810" type="line"/>
      <point x="407" y="669" type="line"/>
      <point x="646" y="669" type="line"/>
      <point x="646" y="810" type="line"/>
    </contour>
  </outline>
</glyph>
<glyph name="germandbls" format="1">
  <advance width="955"/>
  <unicode hex="00DF"/>
  <outline>
    <contour>
      <point x="369" y="166" type="line"/>
      <point x="369" y="79" type="line" smooth="yes"/>
      <point x="369" y="26"/>
      <point x="395" y="0"/>
      <point x="448" y="0" type="curve" smooth="yes"/>
      <point x="859" y="0" type="line" smooth="yes"/>
      <point x="912" y="0"/>
      <point x="938" y="26"/>
      <point x="938" y="79" type="curve" smooth="yes"/>
      <point x="938" y="212" type="line" smooth="yes"/>
      <point x="938" y="265"/>
      <point x="912" y="291"/>
      <point x="859" y="291" type="curve" smooth="yes"/>
      <point x="642" y="291" type="line" smooth="yes"/>
      <point x="616" y="291"/>
      <point x="611" y="296"/>
      <point x="611" y="322" type="curve" smooth="yes"/>
      <point x="611" y="364" type="line" smooth="yes"/>
      <point x="611" y="390"/>
      <point x="616" y="395"/>
      <point x="642" y="395" type="curve" smooth="yes"/>
      <point x="783" y="395" type="line" smooth="yes"/>
      <point x="836" y="395"/>
      <point x="862" y="421"/>
      <point x="862" y="474" type="curve" smooth="yes"/>
      <point x="862" y="543" type="line" smooth="yes"/>
      <point x="862" y="596"/>
      <point x="836" y="622"/>
      <point x="783" y="622" type="curve" smooth="yes"/>
      <point x="142" y="622" type="line" smooth="yes"/>
      <point x="89" y="622"/>
      <point x="63" y="596"/>
      <point x="63" y="543" type="curve" smooth="yes"/>
      <point x="63" y="0" type="line"/>
      <point x="310" y="0" type="line"/>
      <point x="310" y="532" type="line" smooth="yes"/>
      <point x="310" y="558"/>
      <point x="315" y="563"/>
      <point x="341" y="563" type="curve" smooth="yes"/>
      <point x="570" y="563" type="line" smooth="yes"/>
      <point x="596" y="563"/>
      <point x="601" y="558"/>
      <point x="601" y="532" type="curve" smooth="yes"/>
      <point x="601" y="485" type="line" smooth="yes"/>
      <point x="601" y="459"/>
      <point x="596" y="454"/>
      <point x="570" y="454" type="curve" smooth="yes"/>
      <point x="455" y="454" type="line" smooth="yes"/>
      <point x="402" y="454"/>
      <point x="376" y="428"/>
      <point x="376" y="375" type="curve" smooth="yes"/>
      <point x="376" y="311" type="line" smooth="yes"/>
      <point x="376" y="258"/>
      <point x="402" y="232"/>
      <point x="455" y="232" type="curve" smooth="yes"/>
      <point x="667" y="232" type="line" smooth="yes"/>
      <point x="693" y="232"/>
      <point x="698" y="227"/>
      <point x="698" y="201" type="curve" smooth="yes"/>
      <point x="698" y="91" type="line" smooth="yes"/>
      <point x="698" y="65"/>
      <point x="693" y="60"/>
      <point x="667" y="60" type="curve" smooth="yes"/>
      <point x="640" y="60" type="line" smooth="yes"/>
      <point x="614" y="60"/>
      <point x="609" y="65"/>
      <point x="609" y="91" type="curve" smooth="yes"/>
      <point x="609" y="166" type="line"/>
    </contour>
  </outline>
</glyph>
<glyph name="igrave" format="1">
  <advance width="352"/>
  <unicode hex="00EC"/>
  <outline>
    <contour>
      <point x="296" y="0" type="line"/>
      <point x="296" y="485" type="line"/>
      <point x="56" y="485" type="line"/>
      <point x="56" y="0" type="line"/>
    </contour>
    <component base="grave" xOffset="-257" yOffset="26"/>
  </outline>
</glyph>
<glyph name="icircumflex" format="1">
  <advance width="352"/>
  <unicode hex="00EE"/>
  <outline>
    <contour>
      <point x="296" y="0" type="line"/>
      <point x="296" y="484" type="line"/>
      <point x="56" y="484" type="line"/>
      <point x="56" y="0" type="line"/>
    </contour>
    <component base="circumflex" xOffset="-174" yOffset="26"/>
  </outline>
</glyph>
<glyph name="eth" format="1">
  <advance width="697"/>
  <unicode hex="00F0"/>
  <outline>
    <contour>
      <point x="282" y="90" type="line"/>
      <point x="282" y="64"/>
      <point x="287" y="59"/>
      <point x="313" y="59" type="curve" smooth="yes"/>
      <point x="350" y="59" type="line"/>
      <point x="350" y="0" type="line"/>
      <point x="121" y="0" type="line" smooth="yes"/>
      <point x="68" y="0"/>
      <point x="42" y="26"/>
      <point x="42" y="79" type="curve" smooth="yes"/>
      <point x="42" y="293" type="line" smooth="yes"/>
      <point x="42" y="346"/>
      <point x="68" y="372"/>
      <point x="121" y="372" type="curve" smooth="yes"/>
      <point x="465" y="372" type="line"/>
      <point x="465" y="313" type="line"/>
      <point x="313" y="313" type="line" smooth="yes"/>
      <point x="287" y="313"/>
      <point x="282" y="308"/>
      <point x="282" y="282" type="curve" smooth="yes"/>
    </contour>
    <contour>
      <point x="404" y="300" type="line"/>
      <point x="404" y="485"/>
      <point x="165" y="591"/>
      <point x="94" y="622" type="curve"/>
      <point x="426" y="622" type="line"/>
      <point x="488" y="589"/>
      <point x="644" y="483"/>
      <point x="644" y="297" type="curve" smooth="yes"/>
      <point x="644" y="79" type="line" smooth="yes"/>
      <point x="644" y="26"/>
      <point x="618" y="0"/>
      <point x="565" y="0" type="curve" smooth="yes"/>
      <point x="337" y="0" type="line"/>
      <point x="337" y="59" type="line"/>
      <point x="373" y="59" type="line" smooth="yes"/>
      <point x="399" y="59"/>
      <point x="404" y="64"/>
      <point x="404" y="90" type="curve" smooth="yes"/>
    </contour>
    <contour>
      <point x="175" y="437" type="line"/>
      <point x="175" y="503" type="line"/>
      <point x="615" y="594" type="line"/>
      <point x="615" y="528" type="line"/>
    </contour>
  </outline>
</glyph>
<glyph name="odieresis" format="1">
  <advance width="678"/>
  <unicode hex="00F6"/>
  <outline>
    <contour>
      <point x="128" y="485" type="line"/>
      <point x="75" y="485"/>
      <point x="49" y="459"/>
      <point x="49" y="406" type="curve" smooth="yes"/>
      <point x="49" y="79" type="line" smooth="yes"/>
      <point x="49" y="26"/>
      <point x="75" y="0"/>
      <point x="128" y="0" type="curve" smooth="yes"/>
      <point x="550" y="0" type="line" smooth="yes"/>
      <point x="603" y="0"/>
      <point x="629" y="26"/>
      <point x="629" y="79" type="curve" smooth="yes"/>
      <point x="629" y="406" type="line" smooth="yes"/>
      <point x="629" y="459"/>
      <point x="603" y="485"/>
      <point x="550" y="485" type="curve" smooth="yes"/>
    </contour>
    <contour>
      <point x="389" y="395" type="curve" smooth="yes"/>
      <point x="389" y="90" type="line" smooth="yes"/>
      <point x="389" y="64"/>
      <point x="384" y="59"/>
      <point x="358" y="59" type="curve" smooth="yes"/>
      <point x="320" y="59" type="line" smooth="yes"/>
      <point x="294" y="59"/>
      <point x="289" y="64"/>
      <point x="289" y="90" type="curve" smooth="yes"/>
      <point x="289" y="395" type="line" smooth="yes"/>
      <point x="289" y="421"/>
      <point x="294" y="426"/>
      <point x="320" y="426" type="curve" smooth="yes"/>
      <point x="358" y="426" type="line" smooth="yes"/>
      <point x="384" y="426"/>
      <point x="389" y="421"/>
    </contour>
    <contour>
      <point x="63" y="673" type="line"/>
      <point x="63" y="532" type="line"/>
      <point x="302" y="532" type="line"/>
      <point x="302" y="673" type="line"/>
    </contour>
    <contour>
      <point x="382" y="673" type="line"/>
      <point x="382" y="532" type="line"/>
      <point x="621" y="532" type="line"/>
      <point x="621" y="673" type="line"/>
    </contour>
  </outline>
</glyph>
<glyph name="divide" format="1">
  <advance width="752"/>
  <unicode hex="00F7"/>
  <outline>
    <contour>
      <point x="31" y="239" type="line"/>
      <point x="692" y="239" type="line"/>
      <point x="692" y="380" type="line"/>
      <point x="31" y="380" type="line"/>
    </contour>
    <contour>
      <point x="237" y="520" type="line"/>
      <point x="237" y="419" type="line"/>
      <point x="487" y="419" type="line"/>
      <point x="487" y="520" type="line"/>
    </contour>
    <contour>
      <point x="237" y="200" type="line"/>
      <point x="237" y="99" type="line"/>
      <point x="487" y="99" type="line"/>
      <point x="487" y="200" type="line"/>
    </contour>
  </outline>
</glyph>
<glyph name="oslash" format="1">
  <advance width="678"/>
  <unicode hex="00F8"/>
  <outline>
    <contour>
      <point x="629" y="406" type="line"/>
      <point x="629" y="459"/>
      <point x="603" y="485"/>
      <point x="550" y="485" type="curve" smooth="yes"/>
      <point x="128" y="485" type="line" smooth="yes"/>
      <point x="75" y="485"/>
      <point x="49" y="459"/>
      <point x="49" y="406" type="curve" smooth="yes"/>
      <point x="49" y="79" type="line" smooth="yes"/>
      <point x="49" y="26"/>
      <point x="75" y="0"/>
      <point x="128" y="0" type="curve" smooth="yes"/>
      <point x="550" y="0" type="line" smooth="yes"/>
      <point x="603" y="0"/>
      <point x="629" y="26"/>
      <point x="629" y="79" type="curve" smooth="yes"/>
    </contour>
    <contour>
      <point x="399" y="90" type="line"/>
      <point x="399" y="64"/>
      <point x="394" y="59"/>
      <point x="368" y="59" type="curve" smooth="yes"/>
      <point x="310" y="59" type="line" smooth="yes"/>
      <point x="284" y="59"/>
      <point x="279" y="64"/>
      <point x="279" y="90" type="curve" smooth="yes"/>
      <point x="279" y="395" type="line" smooth="yes"/>
      <point x="279" y="421"/>
      <point x="284" y="426"/>
      <point x="310" y="426" type="curve" smooth="yes"/>
      <point x="368" y="426" type="line" smooth="yes"/>
      <point x="394" y="426"/>
      <point x="399" y="421"/>
      <point x="399" y="395" type="curve" smooth="yes"/>
    </contour>
    <contour>
      <point x="560" y="523" type="line"/>
      <point x="15" y="-39" type="line"/>
      <point x="120" y="-39" type="line"/>
      <point x="664" y="523" type="line"/>
    </contour>
  </outline>
</glyph>
<glyph name="ydieresis" format="1">
  <advance width="705"/>
  <unicode hex="00FF"/>
  <outline>
    <contour>
      <point x="0" y="485" type="line"/>
      <point x="180" y="0" type="line"/>
      <point x="272" y="0" type="line"/>
      <point x="262" y="-27" type="line" smooth="yes"/>
      <point x="248" y="-63"/>
      <point x="227" y="-82"/>
      <point x="170" y="-82" type="curve" smooth="yes"/>
      <point x="103" y="-82" type="line"/>
      <point x="103" y="-141" type="line"/>
      <point x="248" y="-141" type="line" smooth="yes"/>
      <point x="406" y="-141"/>
      <point x="442" y="-89"/>
      <point x="477" y="7" type="curve" smooth="yes"/>
      <point x="654" y="485" type="line"/>
      <point x="413" y="485" type="line"/>
      <point x="329" y="154" type="line"/>
      <point x="251" y="485" type="line"/>
    </contour>
    <contour>
      <point x="377" y="672" type="line"/>
      <point x="377" y="531" type="line"/>
      <point x="616" y="531" type="line"/>
      <point x="616" y="672" type="line"/>
    </contour>
    <contour>
      <point x="58" y="672" type="line"/>
      <point x="58" y="531" type="line"/>
      <point x="297" y="531" type="line"/>
      <point x="297" y="672" type="line"/>
    </contour>
  </outline>
</glyph>
<glyph name="dcaron" format="1">
  <advance width="733"/>
  <unicode hex="010F"/>
  <outline>
    <contour>
      <point x="379" y="459" type="line"/>
      <point x="370" y="476"/>
      <point x="354" y="485"/>
      <point x="321" y="485" type="curve" smooth="yes"/>
      <point x="121" y="485" type="line" smooth="yes"/>
      <point x="68" y="485"/>
      <point x="42" y="459"/>
      <point x="42" y="406" type="curve" smooth="yes"/>
      <point x="42" y="79" type="line" smooth="yes"/>
      <point x="42" y="26"/>
      <point x="68" y="0"/>
      <point x="121" y="0" type="curve" smooth="yes"/>
      <point x="321" y="0" type="line" smooth="yes"/>
      <point x="354" y="0"/>
      <point x="370" y="9"/>
      <point x="379" y="26" type="curve"/>
      <point x="379" y="0" type="line"/>
      <point x="619" y="0" type="line"/>
      <point x="619" y="669" type="line"/>
      <point x="379" y="669" type="line"/>
    </contour>
    <contour>
      <point x="675" y="669" type="line"/>
      <point x="675" y="463" type="line"/>
      <point x="732" y="463" type="line"/>
      <point x="839" y="595" type="line"/>
      <point x="839" y="669" type="line"/>
    </contour>
    <contour>
      <point x="313" y="59" type="line"/>
      <point x="287" y="59"/>
      <point x="282" y="64"/>
      <point x="282" y="90" type="curve" smooth="yes"/>
      <point x="282" y="395" type="line" smooth="yes"/>
      <point x="282" y="421"/>
      <point x="287" y="426"/>
      <point x="313" y="426" type="curve" smooth="yes"/>
      <point x="341" y="426" type="line" smooth="yes"/>
      <point x="367" y="426"/>
      <point x="379" y="418"/>
      <point x="379" y="397" type="curve" smooth="yes"/>
      <point x="379" y="88" type="line" smooth="yes"/>
      <point x="379" y="68"/>
      <point x="367" y="59"/>
      <point x="341" y="59" type="curve" smooth="yes"/>
    </contour>
  </outline>
</glyph>
<glyph name="lslash" format="1">
  <advance width="367"/>
  <unicode hex="0142"/>
  <outline>
    <contour>
      <point x="451" y="472" type="line"/>
      <point x="-76" y="297" type="line"/>
      <point x="-76" y="226" type="line"/>
      <point x="451" y="400" type="line"/>
    </contour>
    <component base="l" xOffset="3"/>
  </outline>
</glyph>
<glyph name="Ohungarumlaut" format="1">
  <advance width="705"/>
  <unicode hex="0150"/>
  <outline>
    <contour>
      <point x="131" y="622" type="line"/>
      <point x="78" y="622"/>
      <point x="52" y="596"/>
      <point x="52" y="543" type="curve" smooth="yes"/>
      <point x="52" y="79" type="line" smooth="yes"/>
      <point x="52" y="26"/>
      <point x="78" y="0"/>
      <point x="131" y="0" type="curve" smooth="yes"/>
      <point x="596" y="0" type="line" smooth="yes"/>
      <point x="649" y="0"/>
      <point x="675" y="26"/>
      <point x="675" y="79" type="curve" smooth="yes"/>
      <point x="675" y="543" type="line" smooth="yes"/>
      <point x="675" y="596"/>
      <point x="649" y="622"/>
      <point x="596" y="622" type="curve" smooth="yes"/>
    </contour>
    <contour>
      <point x="421" y="532" type="curve" smooth="yes"/>
      <point x="421" y="90" type="line" smooth="yes"/>
      <point x="421" y="64"/>
      <point x="416" y="59"/>
      <point x="390" y="59" type="curve" smooth="yes"/>
      <point x="337" y="59" type="line" smooth="yes"/>
      <point x="311" y="59"/>
      <point x="306" y="64"/>
      <point x="306" y="90" type="curve" smooth="yes"/>
      <point x="306" y="532" type="line" smooth="yes"/>
      <point x="306" y="558"/>
      <point x="311" y="563"/>
      <point x="337" y="563" type="curve" smooth="yes"/>
      <point x="390" y="563" type="line" smooth="yes"/>
      <point x="416" y="563"/>
      <point x="421" y="558"/>
    </contour>
    <contour>
      <point x="300" y="825" type="line"/>
      <point x="164" y="670" type="line"/>
      <point x="330" y="670" type="line"/>
      <point x="508" y="825" type="line"/>
    </contour>
    <contour>
      <point x="567" y="825" type="line"/>
      <point x="421" y="670" type="line"/>
      <point x="587" y="670" type="line"/>
      <point x="775" y="825" type="line"/>
    </contour>
  </outline>
</glyph>
<glyph name="OE" format="1">
  <advance width="1009"/>
  <unicode hex="0152"/>
  <outline>
    <contour>
      <point x="574" y="503" type="line"/>
      <point x="574" y="566"/>
      <point x="537" y="622"/>
      <point x="435" y="622" type="curve" smooth="yes"/>
      <point x="134" y="622" type="line" smooth="yes"/>
      <point x="81" y="622"/>
      <point x="55" y="596"/>
      <point x="55" y="543" type="curve" smooth="yes"/>
      <point x="55" y="79" type="line" smooth="yes"/>
      <point x="55" y="26"/>
      <point x="81" y="0"/>
      <point x="134" y="0" type="curve" smooth="yes"/>
      <point x="435" y="0" type="line" smooth="yes"/>
      <point x="537" y="0"/>
      <point x="574" y="56"/>
      <point x="574" y="119" type="curve" smooth="yes"/>
    </contour>
    <contour>
      <point x="434" y="90" type="line"/>
      <point x="434" y="64"/>
      <point x="429" y="59"/>
      <point x="403" y="59" type="curve" smooth="yes"/>
      <point x="340" y="59" type="line" smooth="yes"/>
      <point x="314" y="59"/>
      <point x="309" y="64"/>
      <point x="309" y="90" type="curve" smooth="yes"/>
      <point x="309" y="532" type="line" smooth="yes"/>
      <point x="309" y="558"/>
      <point x="314" y="563"/>
      <point x="340" y="563" type="curve" smooth="yes"/>
      <point x="403" y="563" type="line" smooth="yes"/>
      <point x="429" y="563"/>
      <point x="434" y="558"/>
      <point x="434" y="532" type="curve" smooth="yes"/>
    </contour>
    <contour>
      <point x="504" y="622" type="line"/>
      <point x="504" y="0" type="line"/>
      <point x="688" y="0" type="line"/>
      <point x="688" y="622" type="line"/>
    </contour>
    <contour>
      <point x="926" y="348" type="line"/>
      <point x="570" y="348" type="line"/>
      <point x="570" y="289" type="line"/>
      <point x="926" y="289" type="line"/>
    </contour>
    <contour>
      <point x="967" y="622" type="line"/>
      <point x="512" y="622" type="line"/>
      <point x="512" y="563" type="line"/>
      <point x="967" y="563" type="line"/>
    </contour>
    <contour>
      <point x="980" y="59" type="line"/>
      <point x="512" y="59" type="line"/>
      <point x="512" y="0" type="line"/>
      <point x="980" y="0" type="line"/>
    </contour>
  </outline>
</glyph>
<glyph name="oe" format="1">
  <advance width="1017"/>
  <unicode hex="0153"/>
  <outline>
    <contour>
      <point x="50" y="79" type="line"/>
      <point x="50" y="26"/>
      <point x="76" y="0"/>
      <point x="129" y="0" type="curve" smooth="yes"/>
      <point x="371" y="0" type="line" smooth="yes"/>
      <point x="467" y="0"/>
      <point x="492" y="10"/>
      <point x="501" y="36" type="curve"/>
      <point x="509" y="10"/>
      <point x="519" y="0"/>
      <point x="616" y="0" type="curve" smooth="yes"/>
      <point x="898" y="0" type="line" smooth="yes"/>
      <point x="951" y="0"/>
      <point x="977" y="26"/>
      <point x="977" y="79" type="curve" smooth="yes"/>
      <point x="977" y="164" type="line"/>
      <point x="745" y="164" type="line"/>
      <point x="745" y="90" type="line" smooth="yes"/>
      <point x="745" y="64"/>
      <point x="740" y="59"/>
      <point x="714" y="59" type="curve" smooth="yes"/>
      <point x="661" y="59" type="line" smooth="yes"/>
      <point x="635" y="59"/>
      <point x="630" y="64"/>
      <point x="630" y="90" type="curve" smooth="yes"/>
      <point x="630" y="395" type="line" smooth="yes"/>
      <point x="630" y="421"/>
      <point x="635" y="426"/>
      <point x="661" y="426" type="curve" smooth="yes"/>
      <point x="714" y="426" type="line" smooth="yes"/>
      <point x="740" y="426"/>
      <point x="745" y="421"/>
      <point x="745" y="395" type="curve" smooth="yes"/>
      <point x="745" y="257" type="line"/>
      <point x="977" y="257" type="line"/>
      <point x="977" y="406" type="line" smooth="yes"/>
      <point x="977" y="459"/>
      <point x="951" y="485"/>
      <point x="898" y="485" type="curve" smooth="yes"/>
      <point x="618" y="485" type="line" smooth="yes"/>
      <point x="521" y="485"/>
      <point x="511" y="475"/>
      <point x="503" y="449" type="curve"/>
      <point x="494" y="475"/>
      <point x="469" y="485"/>
      <point x="373" y="485" type="curve" smooth="yes"/>
      <point x="129" y="485" type="line" smooth="yes"/>
      <point x="76" y="485"/>
      <point x="50" y="459"/>
      <point x="50" y="406" type="curve" smooth="yes"/>
    </contour>
    <contour>
      <point x="290" y="395" type="line"/>
      <point x="290" y="421"/>
      <point x="295" y="426"/>
      <point x="321" y="426" type="curve" smooth="yes"/>
      <point x="359" y="426" type="line" smooth="yes"/>
      <point x="385" y="426"/>
      <point x="390" y="421"/>
      <point x="390" y="395" type="curve" smooth="yes"/>
      <point x="390" y="90" type="line" smooth="yes"/>
      <point x="390" y="64"/>
      <point x="385" y="59"/>
      <point x="359" y="59" type="curve" smooth="yes"/>
      <point x="321" y="59" type="line" smooth="yes"/>
      <point x="295" y="59"/>
      <point x="290" y="64"/>
      <point x="290" y="90" type="curve" smooth="yes"/>
    </contour>
    <contour>
      <point x="977" y="278" type="line"/>
      <point x="510" y="278" type="line"/>
      <point x="510" y="219" type="line"/>
      <point x="977" y="219" type="line"/>
    </contour>
  </outline>
</glyph>
<glyph name="Uhungarumlaut" format="1">
  <advance width="705"/>
  <unicode hex="0170"/>
  <outline>
    <contour>
      <point x="310" y="622" type="line"/>
      <point x="56" y="622" type="line"/>
      <point x="56" y="79" type="line" smooth="yes"/>
      <point x="56" y="26"/>
      <point x="82" y="0"/>
      <point x="135" y="0" type="curve" smooth="yes"/>
      <point x="600" y="0" type="line" smooth="yes"/>
      <point x="653" y="0"/>
      <point x="679" y="26"/>
      <point x="679" y="79" type="curve" smooth="yes"/>
      <point x="679" y="622" type="line"/>
      <point x="425" y="622" type="line"/>
      <point x="425" y="90" type="line" smooth="yes"/>
      <point x="425" y="64"/>
      <point x="420" y="59"/>
      <point x="394" y="59" type="curve" smooth="yes"/>
      <point x="341" y="59" type="line" smooth="yes"/>
      <point x="315" y="59"/>
      <point x="310" y="64"/>
      <point x="310" y="90" type="curve" smooth="yes"/>
    </contour>
    <contour>
      <point x="566" y="823" type="line"/>
      <point x="420" y="668" type="line"/>
      <point x="586" y="668" type="line"/>
      <point x="774" y="823" type="line"/>
    </contour>
    <contour>
      <point x="299" y="823" type="line"/>
      <point x="163" y="668" type="line"/>
      <point x="329" y="668" type="line"/>
      <point x="507" y="823" type="line"/>
    </contour>
  </outline>
</glyph>
<glyph name="Ydieresis" format="1">
  <advance width="738"/>
  <unicode hex="0178"/>
  <outline>
    <contour>
      <point x="336" y="810" type="line"/>
      <point x="97" y="810" type="line"/>
      <point x="97" y="669" type="line"/>
      <point x="336" y="669" type="line"/>
    </contour>
    <contour>
      <point x="655" y="810" type="line"/>
      <point x="416" y="810" type="line"/>
      <point x="416" y="669" type="line"/>
      <point x="655" y="669" type="line"/>
    </contour>
    <contour>
      <point x="735" y="622" type="line"/>
      <point x="489" y="622" type="line"/>
      <point x="374" y="329" type="line"/>
      <point x="250" y="622" type="line"/>
      <point x="3" y="622" type="line"/>
      <point x="249" y="207" type="line"/>
      <point x="249" y="0" type="line"/>
      <point x="503" y="0" type="line"/>
      <point x="503" y="210" type="line"/>
    </contour>
  </outline>
</glyph>
<glyph name="florin" format="1">
  <advance width="620"/>
  <unicode hex="0192"/>
  <outline>
    <contour>
      <point x="482" y="541" type="line"/>
      <point x="490" y="577"/>
      <point x="507" y="589"/>
      <point x="542" y="589" type="curve" smooth="yes"/>
      <point x="584" y="589" type="line"/>
      <point x="584" y="648" type="line"/>
      <point x="441" y="648" type="line" smooth="yes"/>
      <point x="290" y="648"/>
      <point x="249" y="600"/>
      <point x="234" y="528" type="curve" smooth="yes"/>
      <point x="113" y="-34" type="line" smooth="yes"/>
      <point x="105" y="-70"/>
      <point x="88" y="-82"/>
      <point x="53" y="-82" type="curve" smooth="yes"/>
      <point x="11" y="-82" type="line"/>
      <point x="11" y="-141" type="line"/>
      <point x="154" y="-141" type="line" smooth="yes"/>
      <point x="305" y="-141"/>
      <point x="345" y="-93"/>
      <point x="361" y="-21" type="curve" smooth="yes"/>
    </contour>
    <contour>
      <point x="562" y="485" type="line"/>
      <point x="120" y="485" type="line"/>
      <point x="120" y="426" type="line"/>
      <point x="562" y="426" type="line"/>
    </contour>
  </outline>
</glyph>
<glyph name="dotaccent" format="1">
  <advance width="705"/>
  <unicode hex="02D9"/>
  <outline>
    <contour>
      <point x="238" y="515" type="line"/>
      <point x="477" y="515" type="line"/>
      <point x="477" y="656" type="line"/>
      <point x="238" y="656" type="line"/>
    </contour>
  </outline>
</glyph>
<glyph name="tilde" format="1">
  <advance width="705"/>
  <unicode hex="02DC"/>
  <outline>
    <contour>
      <point x="285" y="591" type="curve" smooth="yes"/>
      <point x="319" y="591"/>
      <point x="376" y="516"/>
      <point x="462" y="516" type="curve" smooth="yes"/>
      <point x="550" y="516" type="line" smooth="yes"/>
      <point x="603" y="516"/>
      <point x="629" y="542"/>
      <point x="629" y="595" type="curve" smooth="yes"/>
      <point x="629" y="661" type="line"/>
      <point x="439" y="661" type="line"/>
      <point x="439" y="606" type="line" smooth="yes"/>
      <point x="439" y="594"/>
      <point x="433" y="586"/>
      <point x="419" y="586" type="curve"/>
      <point x="385" y="586"/>
      <point x="328" y="661"/>
      <point x="242" y="661" type="curve" smooth="yes"/>
      <point x="154" y="661" type="line" smooth="yes"/>
      <point x="101" y="661"/>
      <point x="75" y="635"/>
      <point x="75" y="582" type="curve" smooth="yes"/>
      <point x="75" y="516" type="line"/>
      <point x="265" y="516" type="line"/>
      <point x="265" y="571" type="line" smooth="yes"/>
      <point x="265" y="583"/>
      <point x="271" y="591"/>
    </contour>
  </outline>
</glyph>
<glyph name="hungarumlaut" format="1">
  <advance width="705"/>
  <unicode hex="02DD"/>
  <outline>
    <contour>
      <point x="450" y="661" type="line"/>
      <point x="304" y="506" type="line"/>
      <point x="470" y="506" type="line"/>
      <point x="658" y="661" type="line"/>
    </contour>
    <contour>
      <point x="183" y="661" type="line"/>
      <point x="47" y="506" type="line"/>
      <point x="213" y="506" type="line"/>
      <point x="391" y="661" type="line"/>
    </contour>
  </outline>
</glyph>
<glyph name="dvAnusvara" format="1">
  <advance width="0"/>
  <unicode hex="0902"/>
  <outline>
    <contour>
      <point x="-55" y="622" type="move" name="_abvm.bindu"/>
    </contour>
    <contour>
      <point x="-314" y="687" type="line"/>
      <point x="-59" y="687" type="line"/>
      <point x="-59" y="837" type="line"/>
      <point x="-314" y="837" type="line"/>
    </contour>
  </outline>
</glyph>
<glyph name="dvA" format="1">
  <advance width="1088"/>
  <unicode hex="0905"/>
  <outline>
    <contour>
      <point x="769" y="0" type="line"/>
      <point x="1033" y="0" type="line"/>
      <point x="1033" y="622" type="line"/>
      <point x="769" y="622" type="line"/>
    </contour>
    <contour>
      <point x="791" y="563" type="line"/>
      <point x="1108" y="563" type="line"/>
      <point x="1108" y="622" type="line"/>
      <point x="791" y="622" type="line"/>
    </contour>
    <contour>
      <point x="545" y="302" type="line"/>
      <point x="813" y="302" type="line"/>
      <point x="813" y="361" type="line"/>
      <point x="545" y="361" type="line"/>
    </contour>
    <contour>
      <point x="663" y="287" type="line"/>
      <point x="663" y="340"/>
      <point x="641" y="361"/>
      <point x="588" y="361" type="curve"/>
      <point x="588" y="366" type="line"/>
      <point x="641" y="366"/>
      <point x="663" y="387"/>
      <point x="663" y="440" type="curve" smooth="yes"/>
      <point x="663" y="547" type="line" smooth="yes"/>
      <point x="663" y="600"/>
      <point x="641" y="622"/>
      <point x="588" y="622" type="curve" smooth="yes"/>
      <point x="105" y="622" type="line" smooth="yes"/>
      <point x="52" y="622"/>
      <point x="30" y="600"/>
      <point x="30" y="547" type="curve" smooth="yes"/>
      <point x="30" y="447" type="line"/>
      <point x="294" y="447" type="line"/>
      <point x="294" y="529" type="line" smooth="yes"/>
      <point x="294" y="555"/>
      <point x="302" y="563"/>
      <point x="328" y="563" type="curve" smooth="yes"/>
      <point x="365" y="563" type="line" smooth="yes"/>
      <point x="391" y="563"/>
      <point x="399" y="555"/>
      <point x="399" y="529" type="curve" smooth="yes"/>
      <point x="399" y="413" type="line" smooth="yes"/>
      <point x="399" y="387"/>
      <point x="391" y="379"/>
      <point x="365" y="379" type="curve" smooth="yes"/>
      <point x="256" y="379" type="line"/>
      <point x="256" y="320" type="line"/>
      <point x="365" y="320" type="line" smooth="yes"/>
      <point x="391" y="320"/>
      <point x="399" y="312"/>
      <point x="399" y="286" type="curve" smooth="yes"/>
      <point x="399" y="170" type="line" smooth="yes"/>
      <point x="399" y="144"/>
      <point x="391" y="136"/>
      <point x="365" y="136" type="curve" smooth="yes"/>
      <point x="328" y="136" type="line" smooth="yes"/>
      <point x="302" y="136"/>
      <point x="294" y="144"/>
      <point x="294" y="170" type="curve" smooth="yes"/>
      <point x="294" y="252" type="line"/>
      <point x="30" y="252" type="line"/>
      <point x="30" y="153" type="line" smooth="yes"/>
      <point x="30" y="100"/>
      <point x="52" y="78"/>
      <point x="105" y="78" type="curve" smooth="yes"/>
      <point x="588" y="78" type="line" smooth="yes"/>
      <point x="641" y="78"/>
      <point x="663" y="100"/>
      <point x="663" y="153" type="curve" smooth="yes"/>
    </contour>
  </outline>
</glyph>
<glyph name="dvII" format="1">
  <advance width="723"/>
  <unicode hex="0908"/>
  <outline>
    <contour>
      <point x="947" y="584" type="move" name="abvm.bindu"/>
    </contour>
    <component base="dvI"/>
    <component base="dvReph" xOffset="714"/>
  </outline>
</glyph>
<glyph name="dvU" format="1">
  <advance width="713"/>
  <unicode hex="0909"/>
  <outline>
    <contour>
      <point x="474" y="622" type="move" name="abvm.bindu"/>
    </contour>
    <contour>
      <point x="474" y="622" type="move" name="abvm.candra"/>
    </contour>
    <contour>
      <point x="658" y="522" type="line"/>
      <point x="658" y="557"/>
      <point x="644" y="568"/>
      <point x="609" y="568" type="curve"/>
      <point x="609" y="563" type="line"/>
      <point x="733" y="563" type="line"/>
      <point x="733" y="622" type="line"/>
      <point x="-20" y="622" type="line"/>
      <point x="-20" y="563" type="line"/>
      <point x="360" y="563" type="line" smooth="yes"/>
      <point x="386" y="563"/>
      <point x="394" y="555"/>
      <point x="394" y="529" type="curve" smooth="yes"/>
      <point x="394" y="403" type="line" smooth="yes"/>
      <point x="394" y="377"/>
      <point x="386" y="369"/>
      <point x="360" y="369" type="curve" smooth="yes"/>
      <point x="229" y="369" type="line"/>
      <point x="229" y="310" type="line"/>
      <point x="360" y="310" type="line" smooth="yes"/>
      <point x="386" y="310"/>
      <point x="394" y="302"/>
      <point x="394" y="276" type="curve" smooth="yes"/>
      <point x="394" y="92" type="line" smooth="yes"/>
      <point x="394" y="68"/>
      <point x="386" y="59"/>
      <point x="360" y="59" type="curve" smooth="yes"/>
      <point x="330" y="59" type="line"/>
      <point x="330" y="0" type="line"/>
      <point x="583" y="0" type="line" smooth="yes"/>
      <point x="636" y="0"/>
      <point x="658" y="22"/>
      <point x="658" y="75" type="curve" smooth="yes"/>
      <point x="658" y="261" type="line" smooth="yes"/>
      <point x="658" y="314"/>
      <point x="636" y="335"/>
      <point x="583" y="335" type="curve"/>
      <point x="583" y="340" type="line"/>
      <point x="636" y="340"/>
      <point x="658" y="361"/>
      <point x="658" y="414" type="curve" smooth="yes"/>
    </contour>
    <contour>
      <point x="339" y="59" type="line"/>
      <point x="323" y="59" type="line" smooth="yes"/>
      <point x="297" y="59"/>
      <point x="289" y="68"/>
      <point x="289" y="92" type="curve" smooth="yes"/>
      <point x="289" y="206" type="line"/>
      <point x="25" y="206" type="line"/>
      <point x="25" y="75" type="line" smooth="yes"/>
      <point x="25" y="22"/>
      <point x="47" y="0"/>
      <point x="100" y="0" type="curve" smooth="yes"/>
      <point x="339" y="0" type="line"/>
    </contour>
  </outline>
</glyph>
<glyph name="dvUU" format="1">
  <advance width="1068"/>
  <unicode hex="090A"/>
  <outline>
    <contour>
      <point x="670" y="622" type="move" name="abvm.bindu"/>
    </contour>
    <contour>
      <point x="670" y="622" type="move" name="abvm.candra"/>
    </contour>
    <contour>
      <point x="1038" y="264" type="line"/>
      <point x="1038" y="317"/>
      <point x="1016" y="339"/>
      <point x="963" y="339" type="curve" smooth="yes"/>
      <point x="564" y="339" type="line"/>
      <point x="564" y="280" type="line"/>
      <point x="740" y="280" type="line" smooth="yes"/>
      <point x="766" y="280"/>
      <point x="774" y="271"/>
      <point x="774" y="247" type="curve" smooth="yes"/>
      <point x="774" y="92" type="line" smooth="yes"/>
      <point x="774" y="68"/>
      <point x="766" y="59"/>
      <point x="740" y="59" type="curve" smooth="yes"/>
      <point x="715" y="59" type="line"/>
      <point x="715" y="0" type="line"/>
      <point x="963" y="0" type="line" smooth="yes"/>
      <point x="1016" y="0"/>
      <point x="1038" y="22"/>
      <point x="1038" y="75" type="curve" smooth="yes"/>
    </contour>
    <contour>
      <point x="668" y="522" type="line"/>
      <point x="668" y="557"/>
      <point x="654" y="568"/>
      <point x="619" y="568" type="curve"/>
      <point x="619" y="563" type="line"/>
      <point x="1088" y="563" type="line"/>
      <point x="1088" y="622" type="line"/>
      <point x="-20" y="622" type="line"/>
      <point x="-20" y="563" type="line"/>
      <point x="370" y="563" type="line" smooth="yes"/>
      <point x="396" y="563"/>
      <point x="404" y="555"/>
      <point x="404" y="529" type="curve" smooth="yes"/>
      <point x="404" y="403" type="line" smooth="yes"/>
      <point x="404" y="377"/>
      <point x="396" y="369"/>
      <point x="370" y="369" type="curve" smooth="yes"/>
      <point x="239" y="369" type="line"/>
      <point x="239" y="310" type="line"/>
      <point x="370" y="310" type="line" smooth="yes"/>
      <point x="396" y="310"/>
      <point x="404" y="302"/>
      <point x="404" y="276" type="curve" smooth="yes"/>
      <point x="404" y="92" type="line" smooth="yes"/>
      <point x="404" y="68"/>
      <point x="396" y="59"/>
      <point x="370" y="59" type="curve" smooth="yes"/>
      <point x="340" y="59" type="line"/>
      <point x="340" y="0" type="line"/>
      <point x="593" y="0" type="line" smooth="yes"/>
      <point x="646" y="0"/>
      <point x="668" y="22"/>
      <point x="668" y="75" type="curve" smooth="yes"/>
      <point x="668" y="265" type="line" smooth="yes"/>
      <point x="668" y="318"/>
      <point x="646" y="339"/>
      <point x="593" y="339" type="curve"/>
      <point x="593" y="344" type="line"/>
      <point x="646" y="344"/>
      <point x="668" y="365"/>
      <point x="668" y="418" type="curve" smooth="yes"/>
    </contour>
    <contour>
      <point x="349" y="59" type="line"/>
      <point x="333" y="59" type="line" smooth="yes"/>
      <point x="307" y="59"/>
      <point x="299" y="68"/>
      <point x="299" y="92" type="curve" smooth="yes"/>
      <point x="299" y="206" type="line"/>
      <point x="35" y="206" type="line"/>
      <point x="35" y="75" type="line" smooth="yes"/>
      <point x="35" y="22"/>
      <point x="57" y="0"/>
      <point x="110" y="0" type="curve" smooth="yes"/>
      <point x="349" y="0" type="line"/>
    </contour>
  </outline>
</glyph>
<glyph name="dvE" format="1">
  <advance width="760"/>
  <unicode hex="090F"/>
  <outline>
    <contour>
      <point x="516" y="622" type="move" name="abvm.bindu"/>
    </contour>
    <contour>
      <point x="516" y="622" type="move" name="abvm.candra"/>
    </contour>
    <contour>
      <point x="319" y="584" type="line"/>
      <point x="55" y="584" type="line"/>
      <point x="55" y="75" type="line" smooth="yes"/>
      <point x="55" y="22"/>
      <point x="77" y="0"/>
      <point x="130" y="0" type="curve" smooth="yes"/>
      <point x="381" y="0" type="line"/>
      <point x="381" y="59" type="line"/>
      <point x="353" y="59" type="line" smooth="yes"/>
      <point x="327" y="59"/>
      <point x="319" y="68"/>
      <point x="319" y="92" type="curve" smooth="yes"/>
    </contour>
    <contour>
      <point x="780" y="622" type="line"/>
      <point x="-20" y="622" type="line"/>
      <point x="-20" y="563" type="line"/>
      <point x="780" y="563" type="line"/>
    </contour>
    <contour>
      <point x="380" y="284" type="line"/>
      <point x="637" y="284" type="line" smooth="yes"/>
      <point x="690" y="284"/>
      <point x="712" y="306"/>
      <point x="712" y="359" type="curve" smooth="yes"/>
      <point x="712" y="584" type="line"/>
      <point x="448" y="584" type="line"/>
      <point x="448" y="376" type="line" smooth="yes"/>
      <point x="448" y="352"/>
      <point x="440" y="343"/>
      <point x="414" y="343" type="curve" smooth="yes"/>
      <point x="380" y="343" type="line"/>
    </contour>
    <contour>
      <point x="370" y="0" type="line"/>
      <point x="632" y="0" type="line" smooth="yes"/>
      <point x="685" y="0"/>
      <point x="707" y="22"/>
      <point x="707" y="75" type="curve" smooth="yes"/>
      <point x="707" y="196" type="line"/>
      <point x="443" y="196" type="line"/>
      <point x="443" y="92" type="line" smooth="yes"/>
      <point x="443" y="68"/>
      <point x="435" y="59"/>
      <point x="409" y="59" type="curve" smooth="yes"/>
      <point x="370" y="59" type="line"/>
    </contour>
  </outline>
</glyph>
<glyph name="dvAU" format="1">
  <advance width="1462"/>
  <unicode hex="0914"/>
  <outline>
    <contour>
      <point x="1686" y="622" type="move" name="abvm.bindu"/>
    </contour>
    <component base="dvmAA" xOffset="1088"/>
    <component base="dvA"/>
    <component base="dvmAI" xOffset="1463"/>
  </outline>
</glyph>
<glyph name="dvKA" format="1">
  <advance width="1092"/>
  <unicode hex="0915"/>
  <outline>
    <contour>
      <point x="678" y="622" type="move" name="abvm.bindu"/>
    </contour>
    <contour>
      <point x="414" y="0" type="move" name="blwm.virama"/>
    </contour>
    <contour>
      <point x="678" y="622" type="move" name="abvm.candra"/>
    </contour>
    <contour>
      <point x="678" y="622" type="move" name="abvm.e"/>
    </contour>
    <contour>
      <point x="414" y="0" type="move" name="blwm.u"/>
    </contour>
    <contour>
      <point x="730" y="426" type="line"/>
      <point x="749" y="426" type="line" smooth="yes"/>
      <point x="775" y="426"/>
      <point x="783" y="417"/>
      <point x="783" y="393" type="curve" smooth="yes"/>
      <point x="783" y="170" type="line" smooth="yes"/>
      <point x="783" y="146"/>
      <point x="775" y="137"/>
      <point x="749" y="137" type="curve" smooth="yes"/>
      <point x="728" y="137" type="line"/>
      <point x="728" y="78" type="line"/>
      <point x="972" y="78" type="line" smooth="yes"/>
      <point x="1025" y="78"/>
      <point x="1047" y="100"/>
      <point x="1047" y="153" type="curve" smooth="yes"/>
      <point x="1047" y="410" type="line" smooth="yes"/>
      <point x="1047" y="463"/>
      <point x="1025" y="485"/>
      <point x="972" y="485" type="curve" smooth="yes"/>
      <point x="730" y="485" type="line"/>
    </contour>
    <contour>
      <point x="414" y="0" type="line"/>
      <point x="678" y="0" type="line"/>
      <point x="678" y="594" type="line"/>
      <point x="414" y="594" type="line"/>
    </contour>
    <contour>
      <point x="-20" y="563" type="line"/>
      <point x="1112" y="563" type="line"/>
      <point x="1112" y="622" type="line"/>
      <point x="-20" y="622" type="line"/>
    </contour>
    <contour>
      <point x="740" y="485" type="line"/>
      <point x="710" y="485" type="line" smooth="yes"/>
      <point x="680" y="485"/>
      <point x="667" y="474"/>
      <point x="667" y="438" type="curve"/>
      <point x="678" y="392" type="line"/>
      <point x="678" y="418"/>
      <point x="686" y="426"/>
      <point x="712" y="426" type="curve" smooth="yes"/>
      <point x="740" y="426" type="line"/>
    </contour>
    <contour>
      <point x="362" y="137" type="line"/>
      <point x="343" y="137" type="line" smooth="yes"/>
      <point x="317" y="137"/>
      <point x="309" y="146"/>
      <point x="309" y="170" type="curve" smooth="yes"/>
      <point x="309" y="393" type="line" smooth="yes"/>
      <point x="309" y="417"/>
      <point x="317" y="426"/>
      <point x="343" y="426" type="curve" smooth="yes"/>
      <point x="364" y="426" type="line"/>
      <point x="364" y="485" type="line"/>
      <point x="120" y="485" type="line" smooth="yes"/>
      <point x="67" y="485"/>
      <point x="45" y="463"/>
      <point x="45" y="410" type="curve" smooth="yes"/>
      <point x="45" y="153" type="line" smooth="yes"/>
      <point x="45" y="100"/>
      <point x="67" y="78"/>
      <point x="120" y="78" type="curve" smooth="yes"/>
      <point x="362" y="78" type="line"/>
    </contour>
    <contour>
      <point x="353" y="78" type="line"/>
      <point x="382" y="78" type="line" smooth="yes"/>
      <point x="412" y="78"/>
      <point x="425" y="89"/>
      <point x="425" y="125" type="curve"/>
      <point x="414" y="171" type="line"/>
      <point x="414" y="145"/>
      <point x="406" y="137"/>
      <point x="380" y="137" type="curve" smooth="yes"/>
      <point x="353" y="137" type="line"/>
    </contour>
  </outline>
</glyph>
<glyph name="dvCA" format="1">
  <advance width="847"/>
  <unicode hex="091A"/>
  <outline>
    <contour>
      <point x="5" y="426" type="line"/>
      <point x="138" y="426" type="line"/>
      <point x="138" y="431" type="line"/>
      <point x="103" y="431"/>
      <point x="89" y="420"/>
      <point x="89" y="385" type="curve" smooth="yes"/>
      <point x="89" y="153" type="line" smooth="yes"/>
      <point x="89" y="100"/>
      <point x="111" y="78"/>
      <point x="164" y="78" type="curve" smooth="yes"/>
      <point x="442" y="78" type="line"/>
      <point x="442" y="137" type="line"/>
      <point x="387" y="137" type="line" smooth="yes"/>
      <point x="361" y="137"/>
      <point x="353" y="146"/>
      <point x="353" y="170" type="curve" smooth="yes"/>
      <point x="353" y="393" type="line" smooth="yes"/>
      <point x="353" y="415"/>
      <point x="360" y="424"/>
      <point x="381" y="426" type="curve" smooth="yes"/>
      <point x="441" y="426" type="line"/>
      <point x="441" y="485" type="line"/>
      <point x="5" y="485" type="line"/>
    </contour>
    <contour>
      <point x="528" y="0" type="line"/>
      <point x="792" y="0" type="line"/>
      <point x="792" y="592" type="line"/>
      <point x="528" y="592" type="line"/>
    </contour>
    <contour>
      <point x="-20" y="563" type="line"/>
      <point x="867" y="563" type="line"/>
      <point x="867" y="622" type="line"/>
      <point x="-20" y="622" type="line"/>
    </contour>
    <contour>
      <point x="426" y="78" type="line"/>
      <point x="496" y="78" type="line" smooth="yes"/>
      <point x="526" y="78"/>
      <point x="539" y="89"/>
      <point x="539" y="125" type="curve"/>
      <point x="528" y="171" type="line"/>
      <point x="528" y="145"/>
      <point x="520" y="137"/>
      <point x="494" y="137" type="curve" smooth="yes"/>
      <point x="426" y="137" type="line"/>
    </contour>
  </outline>
</glyph>
<glyph name="dvDDA" format="1">
  <advance width="699"/>
  <unicode hex="0921"/>
  <outline>
    <contour>
      <point x="635" y="622" type="move" name="abvm.bindu"/>
    </contour>
    <contour>
      <point x="224" y="0" type="move" name="blwm.virama"/>
    </contour>
    <contour>
      <point x="635" y="622" type="move" name="abvm.candra"/>
    </contour>
    <contour>
      <point x="635" y="622" type="move" name="abvm.e"/>
    </contour>
    <contour>
      <point x="224" y="-55" type="move" name="blwm.u"/>
    </contour>
    <contour>
      <point x="719" y="563" type="line"/>
      <point x="719" y="622" type="line"/>
      <point x="-20" y="622" type="line"/>
      <point x="-20" y="563" type="line"/>
    </contour>
    <contour>
      <point x="423" y="485" type="line"/>
      <point x="117" y="485" type="line" smooth="yes"/>
      <point x="64" y="485"/>
      <point x="42" y="463"/>
      <point x="42" y="410" type="curve" smooth="yes"/>
      <point x="42" y="327" type="line" smooth="yes"/>
      <point x="42" y="274"/>
      <point x="64" y="252"/>
      <point x="117" y="252" type="curve" smooth="yes"/>
      <point x="355" y="252" type="line"/>
      <point x="355" y="311" type="line"/>
      <point x="340" y="311" type="line" smooth="yes"/>
      <point x="314" y="311"/>
      <point x="306" y="319"/>
      <point x="306" y="345" type="curve" smooth="yes"/>
      <point x="306" y="392" type="line" smooth="yes"/>
      <point x="306" y="418"/>
      <point x="314" y="426"/>
      <point x="340" y="426" type="curve" smooth="yes"/>
      <point x="423" y="426" type="line"/>
    </contour>
    <contour>
      <point x="635" y="426" type="line"/>
      <point x="635" y="597" type="line"/>
      <point x="371" y="597" type="line"/>
      <point x="371" y="426" type="line"/>
    </contour>
    <contour>
      <point x="349" y="0" type="line"/>
      <point x="584" y="0" type="line" smooth="yes"/>
      <point x="637" y="0"/>
      <point x="659" y="22"/>
      <point x="659" y="75" type="curve" smooth="yes"/>
      <point x="659" y="236" type="line" smooth="yes"/>
      <point x="659" y="289"/>
      <point x="637" y="311"/>
      <point x="584" y="311" type="curve" smooth="yes"/>
      <point x="346" y="311" type="line"/>
      <point x="346" y="252" type="line"/>
      <point x="361" y="252" type="line" smooth="yes"/>
      <point x="387" y="252"/>
      <point x="395" y="244"/>
      <point x="395" y="218" type="curve" smooth="yes"/>
      <point x="395" y="93" type="line" smooth="yes"/>
      <point x="395" y="67"/>
      <point x="387" y="59"/>
      <point x="361" y="59" type="curve" smooth="yes"/>
      <point x="349" y="59" type="line"/>
    </contour>
    <contour>
      <point x="359" y="59" type="line"/>
      <point x="343" y="59" type="line" smooth="yes"/>
      <point x="317" y="59"/>
      <point x="309" y="68"/>
      <point x="309" y="92" type="curve" smooth="yes"/>
      <point x="309" y="167" type="line"/>
      <point x="45" y="167" type="line"/>
      <point x="45" y="75" type="line" smooth="yes"/>
      <point x="45" y="22"/>
      <point x="67" y="0"/>
      <point x="120" y="0" type="curve" smooth="yes"/>
      <point x="359" y="0" type="line"/>
    </contour>
  </outline>
</glyph>
<glyph name="dvDDHA" format="1">
  <advance width="737"/>
  <unicode hex="0922"/>
  <outline>
    <contour>
      <point x="646" y="622" type="move" name="abvm.bindu"/>
    </contour>
    <contour>
      <point x="244" y="0" type="move" name="blwm.virama"/>
    </contour>
    <contour>
      <point x="646" y="622" type="move" name="abvm.candra"/>
    </contour>
    <contour>
      <point x="646" y="622" type="move" name="abvm.e"/>
    </contour>
    <contour>
      <point x="244" y="-55" type="move" name="blwm.u"/>
    </contour>
    <contour>
      <point x="424" y="59" type="curve"/>
      <point x="369" y="59" type="line"/>
      <point x="369" y="0" type="line"/>
      <point x="622" y="0" type="line" smooth="yes"/>
      <point x="675" y="0"/>
      <point x="697" y="22"/>
      <point x="697" y="75" type="curve" smooth="yes"/>
      <point x="697" y="215" type="line" smooth="yes"/>
      <point x="697" y="268"/>
      <point x="675" y="290"/>
      <point x="622" y="290" type="curve" smooth="yes"/>
      <point x="362" y="290" type="line"/>
      <point x="362" y="231" type="line"/>
      <point x="424" y="231" type="line" smooth="yes"/>
      <point x="450" y="231"/>
      <point x="458" y="222"/>
      <point x="458" y="198" type="curve" smooth="yes"/>
      <point x="458" y="92" type="line" smooth="yes"/>
      <point x="458" y="68"/>
      <point x="450" y="59"/>
    </contour>
    <contour>
      <point x="646" y="426" type="line"/>
      <point x="646" y="604" type="line"/>
      <point x="382" y="604" type="line"/>
      <point x="382" y="426" type="line"/>
    </contour>
    <contour>
      <point x="-20" y="563" type="line"/>
      <point x="757" y="563" type="line"/>
      <point x="757" y="622" type="line"/>
      <point x="-20" y="622" type="line"/>
    </contour>
    <contour>
      <point x="123" y="0" type="curve"/>
      <point x="378" y="0" type="line"/>
      <point x="378" y="59" type="line"/>
      <point x="346" y="59" type="line" smooth="yes"/>
      <point x="320" y="59"/>
      <point x="312" y="68"/>
      <point x="312" y="92" type="curve" smooth="yes"/>
      <point x="312" y="393" type="line" smooth="yes"/>
      <point x="312" y="417"/>
      <point x="320" y="426"/>
      <point x="346" y="426" type="curve" smooth="yes"/>
      <point x="576" y="426" type="line"/>
      <point x="576" y="485" type="line"/>
      <point x="123" y="485" type="line" smooth="yes"/>
      <point x="70" y="485"/>
      <point x="48" y="463"/>
      <point x="48" y="410" type="curve" smooth="yes"/>
      <point x="48" y="75" type="line" smooth="yes"/>
      <point x="48" y="22"/>
      <point x="70" y="0"/>
    </contour>
  </outline>
</glyph>
<glyph name="dvDHA" format="1">
  <advance width="974"/>
  <unicode hex="0927"/>
  <outline>
    <contour>
      <point x="349" y="622" type="line"/>
      <point x="123" y="622" type="line" smooth="yes"/>
      <point x="70" y="622"/>
      <point x="48" y="600"/>
      <point x="48" y="547" type="curve" smooth="yes"/>
      <point x="48" y="404" type="line" smooth="yes"/>
      <point x="48" y="351"/>
      <point x="70" y="330"/>
      <point x="123" y="330" type="curve"/>
      <point x="123" y="325" type="line"/>
      <point x="70" y="325"/>
      <point x="48" y="304"/>
      <point x="48" y="251" type="curve" smooth="yes"/>
      <point x="48" y="153" type="line" smooth="yes"/>
      <point x="48" y="100"/>
      <point x="70" y="78"/>
      <point x="123" y="78" type="curve" smooth="yes"/>
      <point x="503" y="78" type="line"/>
      <point x="503" y="137" type="line"/>
      <point x="346" y="137" type="line" smooth="yes"/>
      <point x="320" y="137"/>
      <point x="312" y="146"/>
      <point x="312" y="170" type="curve" smooth="yes"/>
      <point x="312" y="265" type="line" smooth="yes"/>
      <point x="312" y="291"/>
      <point x="320" y="299"/>
      <point x="346" y="299" type="curve" smooth="yes"/>
      <point x="447" y="299" type="line"/>
      <point x="447" y="358" type="line"/>
      <point x="346" y="358" type="line" smooth="yes"/>
      <point x="320" y="358"/>
      <point x="312" y="366"/>
      <point x="312" y="392" type="curve" smooth="yes"/>
      <point x="312" y="530" type="line" smooth="yes"/>
      <point x="312" y="554"/>
      <point x="320" y="563"/>
      <point x="346" y="563" type="curve" smooth="yes"/>
      <point x="349" y="563" type="line"/>
    </contour>
    <contour>
      <point x="994" y="563" type="line"/>
      <point x="994" y="622" type="line"/>
      <point x="655" y="622" type="line"/>
      <point x="655" y="563" type="line"/>
    </contour>
    <contour>
      <point x="655" y="591" type="line"/>
      <point x="655" y="0" type="line"/>
      <point x="919" y="0" type="line"/>
      <point x="919" y="591" type="line"/>
    </contour>
    <contour>
      <point x="347" y="563" type="line"/>
      <point x="351" y="563" type="line" smooth="yes"/>
      <point x="377" y="563"/>
      <point x="385" y="554"/>
      <point x="385" y="530" type="curve" smooth="yes"/>
      <point x="385" y="426" type="line"/>
      <point x="599" y="426" type="line"/>
      <point x="599" y="547" type="line" smooth="yes"/>
      <point x="599" y="600"/>
      <point x="577" y="622"/>
      <point x="524" y="622" type="curve" smooth="yes"/>
      <point x="347" y="622" type="line"/>
    </contour>
    <contour>
      <point x="485" y="78" type="line"/>
      <point x="623" y="78" type="line" smooth="yes"/>
      <point x="653" y="78"/>
      <point x="666" y="89"/>
      <point x="666" y="125" type="curve"/>
      <point x="655" y="171" type="line"/>
      <point x="655" y="145"/>
      <point x="647" y="137"/>
      <point x="621" y="137" type="curve" smooth="yes"/>
      <point x="485" y="137" type="line"/>
    </contour>
  </outline>
</glyph>
<glyph name="dvRA" format="1">
  <advance width="709"/>
  <unicode hex="0930"/>
  <outline>
    <contour>
      <point x="647" y="622" type="move" name="abvm.bindu"/>
    </contour>
    <contour>
      <point x="224" y="0" type="move" name="blwm.virama"/>
    </contour>
    <contour>
      <point x="647" y="622" type="move" name="abvm.candra"/>
    </contour>
    <contour>
      <point x="647" y="622" type="move" name="abvm.e"/>
    </contour>
    <contour>
      <point x="224" y="-55" type="move" name="blwm.u"/>
    </contour>
    <contour>
      <point x="237" y="285" type="line"/>
      <point x="594" y="285" type="line" smooth="yes"/>
      <point x="647" y="285"/>
      <point x="669" y="307"/>
      <point x="669" y="360" type="curve" smooth="yes"/>
      <point x="669" y="504" type="line"/>
      <point x="405" y="504" type="line"/>
      <point x="405" y="377" type="line" smooth="yes"/>
      <point x="405" y="353"/>
      <point x="397" y="344"/>
      <point x="371" y="344" type="curve" smooth="yes"/>
      <point x="237" y="344" type="line"/>
    </contour>
    <contour>
      <point x="349" y="0" type="line"/>
      <point x="586" y="0" type="line" smooth="yes"/>
      <point x="639" y="0"/>
      <point x="661" y="22"/>
      <point x="661" y="75" type="curve" smooth="yes"/>
      <point x="661" y="211" type="line"/>
      <point x="397" y="211" type="line"/>
      <point x="397" y="92" type="line" smooth="yes"/>
      <point x="397" y="68"/>
      <point x="389" y="59"/>
      <point x="363" y="59" type="curve" smooth="yes"/>
      <point x="349" y="59" type="line"/>
    </contour>
    <contour>
      <point x="669" y="498" type="line"/>
      <point x="669" y="522" type="line" smooth="yes"/>
      <point x="669" y="557"/>
      <point x="655" y="568"/>
      <point x="620" y="568" type="curve"/>
      <point x="620" y="563" type="line"/>
      <point x="729" y="563" type="line"/>
      <point x="729" y="622" type="line"/>
      <point x="-20" y="622" type="line"/>
      <point x="-20" y="563" type="line"/>
      <point x="371" y="563" type="line" smooth="yes"/>
      <point x="397" y="563"/>
      <point x="405" y="555"/>
      <point x="405" y="529" type="curve" smooth="yes"/>
      <point x="405" y="498" type="line"/>
    </contour>
    <contour>
      <point x="357" y="59" type="line"/>
      <point x="343" y="59" type="line" smooth="yes"/>
      <point x="317" y="59"/>
      <point x="309" y="68"/>
      <point x="309" y="92" type="curve" smooth="yes"/>
      <point x="309" y="432" type="line"/>
      <point x="45" y="432" type="line"/>
      <point x="45" y="75" type="line" smooth="yes"/>
      <point x="45" y="22"/>
      <point x="67" y="0"/>
      <point x="120" y="0" type="curve" smooth="yes"/>
      <point x="357" y="0" type="line"/>
    </contour>
  </outline>
</glyph>
<glyph name="dvVA" format="1">
  <advance width="743"/>
  <unicode hex="0935"/>
  <outline>
    <contour>
      <point x="424" y="0" type="line"/>
      <point x="688" y="0" type="line"/>
      <point x="688" y="594" type="line"/>
      <point x="424" y="594" type="line"/>
    </contour>
    <contour>
      <point x="-20" y="563" type="line"/>
      <point x="763" y="563" type="line"/>
      <point x="763" y="622" type="line"/>
      <point x="-20" y="622" type="line"/>
    </contour>
    <contour>
      <point x="374" y="485" type="line"/>
      <point x="120" y="485" type="line" smooth="yes"/>
      <point x="67" y="485"/>
      <point x="45" y="463"/>
      <point x="45" y="410" type="curve" smooth="yes"/>
      <point x="45" y="153" type="line" smooth="yes"/>
      <point x="45" y="100"/>
      <point x="67" y="78"/>
      <point x="120" y="78" type="curve" smooth="yes"/>
      <point x="372" y="78" type="line"/>
      <point x="372" y="137" type="line"/>
      <point x="343" y="137" type="line" smooth="yes"/>
      <point x="317" y="137"/>
      <point x="309" y="146"/>
      <point x="309" y="170" type="curve" smooth="yes"/>
      <point x="309" y="393" type="line" smooth="yes"/>
      <point x="309" y="417"/>
      <point x="317" y="426"/>
      <point x="343" y="426" type="curve" smooth="yes"/>
      <point x="374" y="426" type="line"/>
    </contour>
    <contour>
      <point x="355" y="78" type="line"/>
      <point x="392" y="78" type="line" smooth="yes"/>
      <point x="422" y="78"/>
      <point x="435" y="89"/>
      <point x="435" y="125" type="curve"/>
      <point x="424" y="171" type="line"/>
      <point x="424" y="145"/>
      <point x="416" y="137"/>
      <point x="390" y="137" type="curve" smooth="yes"/>
      <point x="355" y="137" type="line"/>
    </contour>
  </outline>
</glyph>
<glyph name="dvSA" format="1">
  <advance width="1096"/>
  <unicode hex="0938"/>
  <outline>
    <contour>
      <point x="777" y="0" type="line"/>
      <point x="1041" y="0" type="line"/>
      <point x="1041" y="596" type="line"/>
      <point x="777" y="596" type="line"/>
    </contour>
    <contour>
      <point x="851" y="339" type="line"/>
      <point x="540" y="339" type="line"/>
      <point x="540" y="280" type="line"/>
      <point x="851" y="280" type="line"/>
    </contour>
    <contour>
      <point x="240" y="280" type="line"/>
      <point x="600" y="280" type="line" smooth="yes"/>
      <point x="653" y="280"/>
      <point x="675" y="302"/>
      <point x="675" y="355" type="curve" smooth="yes"/>
      <point x="675" y="493" type="line"/>
      <point x="411" y="493" type="line"/>
      <point x="411" y="372" type="line" smooth="yes"/>
      <point x="411" y="348"/>
      <point x="403" y="339"/>
      <point x="377" y="339" type="curve" smooth="yes"/>
      <point x="240" y="339" type="line"/>
    </contour>
    <contour>
      <point x="366" y="59" type="line"/>
      <point x="346" y="59" type="line" smooth="yes"/>
      <point x="320" y="59"/>
      <point x="312" y="68"/>
      <point x="312" y="92" type="curve" smooth="yes"/>
      <point x="312" y="476" type="line"/>
      <point x="48" y="476" type="line"/>
      <point x="48" y="75" type="line" smooth="yes"/>
      <point x="48" y="22"/>
      <point x="70" y="0"/>
      <point x="123" y="0" type="curve" smooth="yes"/>
      <point x="366" y="0" type="line"/>
    </contour>
    <contour>
      <point x="358" y="0" type="line"/>
      <point x="599" y="0" type="line" smooth="yes"/>
      <point x="652" y="0"/>
      <point x="674" y="22"/>
      <point x="674" y="75" type="curve" smooth="yes"/>
      <point x="674" y="214" type="line"/>
      <point x="410" y="214" type="line"/>
      <point x="410" y="92" type="line" smooth="yes"/>
      <point x="410" y="68"/>
      <point x="402" y="59"/>
      <point x="376" y="59" type="curve" smooth="yes"/>
      <point x="358" y="59" type="line"/>
    </contour>
    <contour>
      <point x="675" y="478" type="line"/>
      <point x="675" y="522" type="line" smooth="yes"/>
      <point x="675" y="557"/>
      <point x="661" y="568"/>
      <point x="626" y="568" type="curve"/>
      <point x="626" y="563" type="line"/>
      <point x="1116" y="563" type="line"/>
      <point x="1116" y="622" type="line"/>
      <point x="-20" y="622" type="line"/>
      <point x="-20" y="563" type="line"/>
      <point x="377" y="563" type="line" smooth="yes"/>
      <point x="403" y="563"/>
      <point x="411" y="555"/>
      <point x="411" y="529" type="curve" smooth="yes"/>
      <point x="411" y="478" type="line"/>
    </contour>
  </outline>
</glyph>
<glyph name="dvNukta" format="1">
  <advance width="0"/>
  <unicode hex="093C"/>
  <outline>
    <contour>
      <point x="-393" y="-215" type="line"/>
      <point x="-138" y="-215" type="line"/>
      <point x="-138" y="-65" type="line"/>
      <point x="-393" y="-65" type="line"/>
    </contour>
  </outline>
</glyph>
<glyph name="dvmAA" format="1">
  <advance width="374"/>
  <unicode hex="093E"/>
  <outline>
    <contour>
      <point x="-20" y="563" type="line"/>
      <point x="394" y="563" type="line"/>
      <point x="394" y="622" type="line"/>
      <point x="-20" y="622" type="line"/>
    </contour>
    <contour>
      <point x="55" y="0" type="line"/>
      <point x="319" y="0" type="line"/>
      <point x="319" y="593" type="line"/>
      <point x="55" y="593" type="line"/>
    </contour>
  </outline>
</glyph>
<glyph name="dvmI" format="1">
  <advance width="374"/>
  <unicode hex="093F"/>
  <outline>
    <contour>
      <point x="394" y="622" type="line"/>
      <point x="-20" y="622" type="line"/>
      <point x="-20" y="563" type="line"/>
      <point x="394" y="563" type="line"/>
    </contour>
    <contour>
      <point x="319" y="606" type="line"/>
      <point x="55" y="606" type="line"/>
      <point x="55" y="0" type="line"/>
      <point x="319" y="0" type="line"/>
    </contour>
    <contour>
      <point x="319" y="588" type="line"/>
      <point x="319" y="760" type="line" smooth="yes"/>
      <point x="319" y="784"/>
      <point x="327" y="793"/>
      <point x="353" y="793" type="curve" smooth="yes"/>
      <point x="570" y="793" type="line"/>
      <point x="570" y="852" type="line"/>
      <point x="130" y="852" type="line" smooth="yes"/>
      <point x="77" y="852"/>
      <point x="55" y="830"/>
      <point x="55" y="777" type="curve" smooth="yes"/>
      <point x="55" y="588" type="line"/>
    </contour>
    <contour>
      <point x="1039" y="671" type="line"/>
      <point x="1039" y="777" type="line" smooth="yes"/>
      <point x="1039" y="830"/>
      <point x="1017" y="852"/>
      <point x="964" y="852" type="curve" smooth="yes"/>
      <point x="524" y="852" type="line"/>
      <point x="524" y="793" type="line"/>
      <point x="741" y="793" type="line" smooth="yes"/>
      <point x="767" y="793"/>
      <point x="775" y="784"/>
      <point x="775" y="760" type="curve" smooth="yes"/>
      <point x="775" y="671" type="line"/>
    </contour>
  </outline>
</glyph>
<glyph name="dvmII" format="1">
  <advance width="374"/>
  <unicode hex="0940"/>
  <outline>
    <contour>
      <point x="-20" y="563" type="line"/>
      <point x="394" y="563" type="line"/>
      <point x="394" y="622" type="line"/>
      <point x="-20" y="622" type="line"/>
    </contour>
    <contour>
      <point x="55" y="0" type="line"/>
      <point x="319" y="0" type="line"/>
      <point x="319" y="606" type="line"/>
      <point x="55" y="606" type="line"/>
    </contour>
    <contour>
      <point x="319" y="588" type="line"/>
      <point x="319" y="777" type="line" smooth="yes"/>
      <point x="319" y="830"/>
      <point x="297" y="852"/>
      <point x="244" y="852" type="curve" smooth="yes"/>
      <point x="-8" y="852" type="line"/>
      <point x="-8" y="793" type="line"/>
      <point x="21" y="793" type="line" smooth="yes"/>
      <point x="47" y="793"/>
      <point x="55" y="784"/>
      <point x="55" y="760" type="curve" smooth="yes"/>
      <point x="55" y="588" type="line"/>
    </contour>
    <contour>
      <point x="-56" y="671" type="line"/>
      <point x="-56" y="760" type="line" smooth="yes"/>
      <point x="-56" y="784"/>
      <point x="-48" y="793"/>
      <point x="-22" y="793" type="curve" smooth="yes"/>
      <point x="6" y="793" type="line"/>
      <point x="6" y="852" type="line"/>
      <point x="-245" y="852" type="line" smooth="yes"/>
      <point x="-298" y="852"/>
      <point x="-320" y="830"/>
      <point x="-320" y="777" type="curve" smooth="yes"/>
      <point x="-320" y="671" type="line"/>
    </contour>
  </outline>
</glyph>
<glyph name="dvmUU" format="1">
  <advance width="0"/>
  <unicode hex="0942"/>
  <outline>
    <contour>
      <point x="-319" y="0" type="move" name="_blwm.u"/>
    </contour>
    <contour>
      <point x="243" y="-270" type="line"/>
      <point x="121" y="-64" type="line" smooth="yes"/>
      <point x="86" y="-6"/>
      <point x="65" y="0"/>
      <point x="-5" y="0" type="curve" smooth="yes"/>
      <point x="-149" y="0" type="line"/>
      <point x="-149" y="-59" type="line"/>
      <point x="-141" y="-59" type="line" smooth="yes"/>
      <point x="-118" y="-59"/>
      <point x="-111" y="-67"/>
      <point x="-99" y="-87" type="curve" smooth="yes"/>
      <point x="7" y="-270" type="line"/>
    </contour>
    <contour>
      <point x="-144" y="0" type="line"/>
      <point x="-363" y="0" type="line" smooth="yes"/>
      <point x="-416" y="0"/>
      <point x="-438" y="-22"/>
      <point x="-438" y="-75" type="curve" smooth="yes"/>
      <point x="-438" y="-146" type="line"/>
      <point x="-189" y="-146" type="line"/>
      <point x="-189" y="-92" type="line" smooth="yes"/>
      <point x="-189" y="-68"/>
      <point x="-181" y="-59"/>
      <point x="-155" y="-59" type="curve" smooth="yes"/>
      <point x="-144" y="-59" type="line"/>
    </contour>
    <contour>
      <point x="-88" y="-211" type="line"/>
      <point x="-155" y="-211" type="line" smooth="yes"/>
      <point x="-181" y="-211"/>
      <point x="-189" y="-202"/>
      <point x="-189" y="-178" type="curve" smooth="yes"/>
      <point x="-189" y="-114" type="line"/>
      <point x="-438" y="-114" type="line"/>
      <point x="-438" y="-195" type="line" smooth="yes"/>
      <point x="-438" y="-248"/>
      <point x="-416" y="-270"/>
      <point x="-363" y="-270" type="curve" smooth="yes"/>
      <point x="-88" y="-270" type="line"/>
    </contour>
  </outline>
</glyph>
<glyph name="dvmvRR" format="1">
  <advance width="0"/>
  <unicode hex="0944"/>
  <outline>
    <contour>
      <point x="-319" y="0" type="move" name="_blwm.u"/>
    </contour>
    <contour>
      <point x="0" y="-211" type="line"/>
      <point x="-111" y="-211" type="line" smooth="yes"/>
      <point x="-137" y="-211"/>
      <point x="-145" y="-202"/>
      <point x="-145" y="-178" type="curve" smooth="yes"/>
      <point x="-145" y="-92" type="line" smooth="yes"/>
      <point x="-145" y="-68"/>
      <point x="-137" y="-59"/>
      <point x="-111" y="-59" type="curve" smooth="yes"/>
      <point x="0" y="-59" type="line"/>
      <point x="0" y="0" type="line"/>
      <point x="-319" y="0" type="line" smooth="yes"/>
      <point x="-372" y="0"/>
      <point x="-394" y="-22"/>
      <point x="-394" y="-75" type="curve" smooth="yes"/>
      <point x="-394" y="-185" type="line" smooth="yes"/>
      <point x="-394" y="-238"/>
      <point x="-357" y="-270"/>
      <point x="-299" y="-270" type="curve" smooth="yes"/>
      <point x="0" y="-270" type="line"/>
    </contour>
    <contour>
      <point x="29" y="-425" type="line"/>
      <point x="-111" y="-425" type="line" smooth="yes"/>
      <point x="-137" y="-425"/>
      <point x="-145" y="-416"/>
      <point x="-145" y="-392" type="curve" smooth="yes"/>
      <point x="-145" y="-305" type="line" smooth="yes"/>
      <point x="-145" y="-281"/>
      <point x="-137" y="-272"/>
      <point x="-111" y="-272" type="curve" smooth="yes"/>
      <point x="0" y="-272" type="line"/>
      <point x="0" y="-213" type="line"/>
      <point x="-299" y="-213" type="line" smooth="yes"/>
      <point x="-357" y="-213"/>
      <point x="-394" y="-245"/>
      <point x="-394" y="-298" type="curve" smooth="yes"/>
      <point x="-394" y="-409" type="line" smooth="yes"/>
      <point x="-394" y="-462"/>
      <point x="-372" y="-484"/>
      <point x="-319" y="-484" type="curve" smooth="yes"/>
      <point x="29" y="-484" type="line"/>
    </contour>
  </outline>
</glyph>
<glyph name="dvVirama" format="1">
  <advance width="0"/>
  <unicode hex="094D"/>
  <outline>
    <contour>
      <point x="-319" y="0" type="move" name="_blwm.virama"/>
    </contour>
    <contour>
      <point x="-319" y="-60" type="line"/>
      <point x="-172" y="-262" type="line"/>
      <point x="92" y="-262" type="line"/>
      <point x="-55" y="-60" type="line"/>
    </contour>
  </outline>
</glyph>
<glyph name="danda" format="1">
  <advance width="414"/>
  <unicode hex="0964"/>
  <outline>
    <contour>
      <point x="120" y="0" type="line"/>
      <point x="374" y="0" type="line"/>
      <point x="374" y="622" type="line"/>
      <point x="120" y="622" type="line"/>
    </contour>
  </outline>
</glyph>
<glyph name="doubledanda" format="1">
  <advance width="777"/>
  <unicode hex="0965"/>
  <outline>
    <contour>
      <point x="120" y="0" type="line"/>
      <point x="374" y="0" type="line"/>
      <point x="374" y="622" type="line"/>
      <point x="120" y="622" type="line"/>
    </contour>
    <contour>
      <point x="484" y="0" type="line"/>
      <point x="737" y="0" type="line"/>
      <point x="737" y="622" type="line"/>
      <point x="484" y="622" type="line"/>
    </contour>
  </outline>
</glyph>
<glyph name="dvOne" format="1">
  <advance width="440"/>
  <unicode hex="0967"/>
  <outline>
    <contour>
      <point x="337" y="622" type="line"/>
      <point x="-15" y="622" type="line"/>
      <point x="-15" y="563" type="line"/>
      <point x="337" y="563" type="line"/>
    </contour>
    <contour>
      <point x="112" y="622" type="line"/>
      <point x="112" y="0" type="line"/>
      <point x="376" y="0" type="line"/>
      <point x="376" y="622" type="line"/>
    </contour>
  </outline>
</glyph>
<glyph name="dvTwo" format="1">
  <advance width="714"/>
  <unicode hex="0968"/>
  <outline>
    <contour>
      <point x="378" y="59" type="line"/>
      <point x="593" y="270" type="line"/>
      <point x="648" y="325"/>
      <point x="671" y="363"/>
      <point x="671" y="458" type="curve" smooth="yes"/>
      <point x="671" y="539" type="line" smooth="yes"/>
      <point x="671" y="586"/>
      <point x="658" y="622"/>
      <point x="602" y="622" type="curve" smooth="yes"/>
      <point x="120" y="622" type="line" smooth="yes"/>
      <point x="64" y="622"/>
      <point x="50" y="592"/>
      <point x="50" y="544" type="curve" smooth="yes"/>
      <point x="50" y="403" type="line"/>
      <point x="314" y="403" type="line"/>
      <point x="314" y="530" type="line" smooth="yes"/>
      <point x="314" y="554"/>
      <point x="322" y="563"/>
      <point x="348" y="563" type="curve" smooth="yes"/>
      <point x="374" y="563" type="line" smooth="yes"/>
      <point x="400" y="563"/>
      <point x="408" y="554"/>
      <point x="408" y="530" type="curve" smooth="yes"/>
      <point x="408" y="459" type="line" smooth="yes"/>
      <point x="408" y="390"/>
      <point x="330" y="320"/>
      <point x="277" y="272" type="curve" smooth="yes"/>
      <point x="44" y="59" type="line"/>
      <point x="44" y="0" type="line"/>
      <point x="669" y="0" type="line"/>
      <point x="669" y="59" type="line"/>
    </contour>
  </outline>
</glyph>
<glyph name="dvFour" format="1">
  <advance width="725"/>
  <unicode hex="096A"/>
  <outline>
    <contour>
      <point x="158" y="93" type="line"/>
      <point x="715" y="93" type="line"/>
      <point x="715" y="151" type="line"/>
      <point x="158" y="151" type="line"/>
    </contour>
    <contour>
      <point x="20" y="93" type="line"/>
      <point x="237" y="93" type="line"/>
      <point x="504" y="622" type="line"/>
      <point x="241" y="622" type="line"/>
      <point x="20" y="184" type="line"/>
    </contour>
    <contour>
      <point x="413" y="326" type="line"/>
      <point x="413" y="0" type="line"/>
      <point x="657" y="0" type="line"/>
      <point x="657" y="326" type="line"/>
    </contour>
  </outline>
</glyph>
<glyph name="dvEight" format="1">
  <advance width="709"/>
  <unicode hex="096E"/>
  <outline>
    <contour>
      <point x="359" y="59" type="line"/>
      <point x="329" y="59" type="line" smooth="yes"/>
      <point x="303" y="59"/>
      <point x="295" y="68"/>
      <point x="295" y="92" type="curve" smooth="yes"/>
      <point x="295" y="246" type="line" smooth="yes"/>
      <point x="295" y="270"/>
      <point x="303" y="279"/>
      <point x="329" y="279" type="curve" smooth="yes"/>
      <point x="361" y="279" type="line"/>
      <point x="361" y="338" type="line"/>
      <point x="329" y="338" type="line" smooth="yes"/>
      <point x="303" y="338"/>
      <point x="295" y="347"/>
      <point x="295" y="371" type="curve" smooth="yes"/>
      <point x="295" y="530" type="line" smooth="yes"/>
      <point x="295" y="554"/>
      <point x="303" y="563"/>
      <point x="329" y="563" type="curve" smooth="yes"/>
      <point x="368" y="563" type="line"/>
      <point x="368" y="622" type="line"/>
      <point x="111" y="622" type="line" smooth="yes"/>
      <point x="55" y="622"/>
      <point x="41" y="586"/>
      <point x="41" y="539" type="curve" smooth="yes"/>
      <point x="41" y="397" type="line" smooth="yes"/>
      <point x="41" y="342"/>
      <point x="82" y="315"/>
      <point x="137" y="313" type="curve"/>
      <point x="137" y="311" type="line"/>
      <point x="82" y="309"/>
      <point x="41" y="282"/>
      <point x="41" y="227" type="curve" smooth="yes"/>
      <point x="41" y="83" type="line" smooth="yes"/>
      <point x="41" y="36"/>
      <point x="55" y="0"/>
      <point x="111" y="0" type="curve" smooth="yes"/>
      <point x="359" y="0" type="line"/>
    </contour>
    <contour>
      <point x="354" y="0" type="line"/>
      <point x="598" y="0" type="line" smooth="yes"/>
      <point x="654" y="0"/>
      <point x="667" y="36"/>
      <point x="667" y="83" type="curve" smooth="yes"/>
      <point x="667" y="227" type="line" smooth="yes"/>
      <point x="667" y="282"/>
      <point x="627" y="309"/>
      <point x="572" y="311" type="curve"/>
      <point x="572" y="313" type="line"/>
      <point x="627" y="315"/>
      <point x="667" y="342"/>
      <point x="667" y="397" type="curve" smooth="yes"/>
      <point x="667" y="539" type="line" smooth="yes"/>
      <point x="667" y="586"/>
      <point x="654" y="622"/>
      <point x="598" y="622" type="curve" smooth="yes"/>
      <point x="359" y="622" type="line"/>
      <point x="359" y="563" type="line"/>
      <point x="380" y="563" type="line" smooth="yes"/>
      <point x="406" y="563"/>
      <point x="414" y="554"/>
      <point x="414" y="530" type="curve" smooth="yes"/>
      <point x="414" y="371" type="line" smooth="yes"/>
      <point x="414" y="347"/>
      <point x="406" y="338"/>
      <point x="380" y="338" type="curve" smooth="yes"/>
      <point x="348" y="338" type="line"/>
      <point x="348" y="279" type="line"/>
      <point x="380" y="279" type="line" smooth="yes"/>
      <point x="406" y="279"/>
      <point x="414" y="270"/>
      <point x="414" y="246" type="curve" smooth="yes"/>
      <point x="414" y="92" type="line" smooth="yes"/>
      <point x="414" y="68"/>
      <point x="406" y="59"/>
      <point x="380" y="59" type="curve" smooth="yes"/>
      <point x="354" y="59" type="line"/>
    </contour>
  </outline>
</glyph>
<glyph name="endash" format="1">
  <advance width="856"/>
  <unicode hex="2013"/>
  <outline>
    <contour>
      <point x="65" y="262" type="line"/>
      <point x="642" y="262" type="line"/>
      <point x="642" y="321" type="line"/>
      <point x="65" y="321" type="line"/>
    </contour>
  </outline>
</glyph>
<glyph name="emdash" format="1">
  <advance width="1056"/>
  <unicode hex="2014"/>
  <outline>
    <contour>
      <point x="65" y="262" type="line"/>
      <point x="980" y="262" type="line"/>
      <point x="980" y="321" type="line"/>
      <point x="65" y="321" type="line"/>
    </contour>
  </outline>
</glyph>
<glyph name="quoteright" format="1">
  <advance width="358"/>
  <unicode hex="2019"/>
  <outline>
    <contour>
      <point x="56" y="622" type="line"/>
      <point x="310" y="622" type="line"/>
      <point x="310" y="545" type="line"/>
      <point x="140" y="332" type="line"/>
      <point x="56" y="332" type="line"/>
    </contour>
  </outline>
</glyph>
<glyph name="dagger" format="1">
  <advance width="640"/>
  <unicode hex="2020"/>
  <outline>
    <contour>
      <point x="196" y="622" type="line"/>
      <point x="196" y="-141" type="line"/>
      <point x="450" y="-141" type="line"/>
      <point x="450" y="622" type="line"/>
    </contour>
    <contour>
      <point x="626" y="475" type="line"/>
      <point x="14" y="475" type="line"/>
      <point x="14" y="416" type="line"/>
      <point x="626" y="416" type="line"/>
    </contour>
  </outline>
</glyph>
<glyph name="guilsinglright" format="1">
  <advance width="422"/>
  <unicode hex="203A"/>
  <outline>
    <contour>
      <point x="415" y="241" type="line"/>
      <point x="269" y="388" type="line"/>
      <point x="21" y="388" type="line"/>
      <point x="162" y="241" type="line"/>
      <point x="21" y="93" type="line"/>
      <point x="269" y="93" type="line"/>
    </contour>
  </outline>
</glyph>
<glyph name="litre" format="1">
  <advance width="598"/>
  <unicode hex="2113"/>
  <outline>
    <contour>
      <point x="371" y="582" type="line"/>
      <point x="385" y="571"/>
      <point x="419" y="536"/>
      <point x="419" y="466" type="curve" smooth="yes"/>
      <point x="419" y="255"/>
      <point x="168" y="84"/>
      <point x="15" y="0" type="curve"/>
      <point x="124" y="0" type="line"/>
      <point x="305" y="100"/>
      <point x="479" y="275"/>
      <point x="479" y="468" type="curve" smooth="yes"/>
      <point x="479" y="563"/>
      <point x="428" y="632"/>
      <point x="344" y="632" type="curve" smooth="yes"/>
      <point x="184" y="632"/>
      <point x="75" y="442"/>
      <point x="75" y="266" type="curve" smooth="yes"/>
      <point x="75" y="155"/>
      <point x="138" y="0"/>
      <point x="332" y="0" type="curve" smooth="yes"/>
      <point x="389" y="0" type="line" smooth="yes"/>
      <point x="451" y="0"/>
      <point x="459" y="0"/>
      <point x="459" y="0" type="curve"/>
      <point x="471" y="51" type="line"/>
      <point x="344" y="51"/>
      <point x="292" y="104"/>
      <point x="292" y="203" type="curve" smooth="yes"/>
      <point x="292" y="282"/>
      <point x="342" y="465"/>
      <point x="418" y="568" type="curve"/>
    </contour>
  </outline>
</glyph>
<glyph name="product" format="1">
  <advance width="760"/>
  <unicode hex="220F"/>
  <outline>
    <contour>
      <point x="326" y="-123" type="line"/>
      <point x="326" y="581" type="line"/>
      <point x="86" y="581" type="line"/>
      <point x="86" y="-123" type="line"/>
    </contour>
    <contour>
      <point x="459" y="581" type="line"/>
      <point x="459" y="-123" type="line"/>
      <point x="699" y="-123" type="line"/>
      <point x="699" y="581" type="line"/>
    </contour>
    <contour>
      <point x="700" y="621" type="line"/>
      <point x="86" y="621" type="line"/>
      <point x="86" y="562" type="line"/>
      <point x="700" y="562" type="line"/>
    </contour>
  </outline>
</glyph>
<glyph name="minus" format="1">
  <advance width="939"/>
  <unicode hex="2212"/>
  <outline>
    <contour>
      <point x="31" y="239" type="line"/>
      <point x="692" y="239" type="line"/>
      <point x="692" y="380" type="line"/>
      <point x="31" y="380" type="line"/>
    </contour>
  </outline>
</glyph>
<glyph name="divisionslash" format="1">
  <advance width="544"/>
  <unicode hex="2215"/>
  <outline>
    <contour>
      <point x="401" y="699" type="line"/>
      <point x="-30" y="-136" type="line"/>
      <point x="173" y="-136" type="line"/>
      <point x="604" y="699" type="line"/>
    </contour>
  </outline>
</glyph>
<glyph name="radical" format="1">
  <advance width="833"/>
  <unicode hex="221A"/>
  <outline>
    <contour>
      <point x="228" y="440" type="line"/>
      <point x="28" y="440" type="line"/>
      <point x="28" y="381" type="line"/>
      <point x="228" y="381" type="line"/>
    </contour>
    <contour>
      <point x="731" y="938" type="line"/>
      <point x="440" y="-152" type="line"/>
      <point x="501" y="-152" type="line"/>
      <point x="792" y="938" type="line"/>
    </contour>
    <contour>
      <point x="513" y="27" type="line"/>
      <point x="360" y="440" type="line"/>
      <point x="116" y="440" type="line"/>
      <point x="335" y="-152" type="line"/>
      <point x="476" y="-152" type="line"/>
    </contour>
  </outline>
</glyph>
<glyph name="infinity" format="1">
  <advance width="981"/>
  <unicode hex="221E"/>
  <outline>
    <contour>
      <point x="281" y="159" type="line"/>
      <point x="373" y="159"/>
      <point x="404" y="169"/>
      <point x="455" y="230" type="curve" smooth="yes"/>
      <point x="478" y="257" type="line"/>
      <point x="503" y="231" type="line" smooth="yes"/>
      <point x="557" y="174"/>
      <point x="590" y="159"/>
      <point x="683" y="159" type="curve" smooth="yes"/>
      <point x="857" y="159" type="line" smooth="yes"/>
      <point x="910" y="159"/>
      <point x="936" y="185"/>
      <point x="936" y="238" type="curve" smooth="yes"/>
      <point x="936" y="436" type="line" smooth="yes"/>
      <point x="936" y="489"/>
      <point x="910" y="515"/>
      <point x="857" y="515" type="curve" smooth="yes"/>
      <point x="661" y="515" type="line" smooth="yes"/>
      <point x="574" y="515"/>
      <point x="553" y="496"/>
      <point x="501" y="435" type="curve" smooth="yes"/>
      <point x="475" y="404" type="line"/>
      <point x="435" y="446" type="line" smooth="yes"/>
      <point x="394" y="488"/>
      <point x="370" y="515"/>
      <point x="295" y="515" type="curve" smooth="yes"/>
      <point x="124" y="515" type="line" smooth="yes"/>
      <point x="71" y="515"/>
      <point x="45" y="489"/>
      <point x="45" y="436" type="curve" smooth="yes"/>
      <point x="45" y="238" type="line" smooth="yes"/>
      <point x="45" y="185"/>
      <point x="71" y="159"/>
      <point x="124" y="159" type="curve" smooth="yes"/>
    </contour>
    <contour>
      <point x="596" y="398" type="line"/>
      <point x="618" y="424"/>
      <point x="633" y="436"/>
      <point x="666" y="436" type="curve" smooth="yes"/>
      <point x="723" y="436" type="line" smooth="yes"/>
      <point x="760" y="436"/>
      <point x="764" y="427"/>
      <point x="764" y="405" type="curve" smooth="yes"/>
      <point x="764" y="269" type="line" smooth="yes"/>
      <point x="764" y="245"/>
      <point x="760" y="238"/>
      <point x="723" y="238" type="curve" smooth="yes"/>
      <point x="671" y="238" type="line" smooth="yes"/>
      <point x="640" y="238"/>
      <point x="618" y="257"/>
      <point x="599" y="276" type="curve" smooth="yes"/>
      <point x="541" y="333" type="line"/>
    </contour>
    <contour>
      <point x="368" y="279" type="line"/>
      <point x="344" y="251"/>
      <point x="323" y="238"/>
      <point x="284" y="238" type="curve" smooth="yes"/>
      <point x="258" y="238" type="line" smooth="yes"/>
      <point x="221" y="238"/>
      <point x="217" y="245"/>
      <point x="217" y="269" type="curve" smooth="yes"/>
      <point x="217" y="405" type="line" smooth="yes"/>
      <point x="217" y="427"/>
      <point x="221" y="436"/>
      <point x="258" y="436" type="curve" smooth="yes"/>
      <point x="282" y="436" type="line" smooth="yes"/>
      <point x="311" y="436"/>
      <point x="327" y="419"/>
      <point x="345" y="400" type="curve" smooth="yes"/>
      <point x="411" y="329" type="line"/>
    </contour>
  </outline>
</glyph>
<glyph name="integral" format="1">
  <advance width="562"/>
  <unicode hex="222B"/>
  <outline>
    <contour>
      <point x="402" y="579" type="line"/>
      <point x="402" y="605"/>
      <point x="407" y="610"/>
      <point x="433" y="610" type="curve" smooth="yes"/>
      <point x="506" y="610" type="line"/>
      <point x="506" y="669" type="line"/>
      <point x="229" y="669" type="line" smooth="yes"/>
      <point x="176" y="669"/>
      <point x="150" y="643"/>
      <point x="150" y="590" type="curve" smooth="yes"/>
      <point x="150" y="-51" type="line"/>
      <point x="150" y="-77"/>
      <point x="145" y="-82"/>
      <point x="119" y="-82" type="curve" smooth="yes"/>
      <point x="46" y="-82" type="line"/>
      <point x="46" y="-141" type="line"/>
      <point x="323" y="-141" type="line" smooth="yes"/>
      <point x="376" y="-141"/>
      <point x="402" y="-115"/>
      <point x="402" y="-62" type="curve" smooth="yes"/>
    </contour>
  </outline>
</glyph>
<glyph name="notequal" format="1">
  <advance width="751"/>
  <unicode hex="2260"/>
  <outline>
    <contour>
      <point x="45" y="128" type="line"/>
      <point x="706" y="128" type="line"/>
      <point x="706" y="269" type="line"/>
      <point x="45" y="269" type="line"/>
    </contour>
    <contour>
      <point x="45" y="350" type="line"/>
      <point x="706" y="350" type="line"/>
      <point x="706" y="491" type="line"/>
      <point x="45" y="491" type="line"/>
    </contour>
    <contour>
      <point x="502" y="543" type="line"/>
      <point x="135" y="76" type="line"/>
      <point x="249" y="76" type="line"/>
      <point x="616" y="543" type="line"/>
    </contour>
  </outline>
</glyph>
<glyph name="greaterequal" format="1">
  <advance width="741"/>
  <unicode hex="2265"/>
  <outline>
    <contour>
      <point x="45" y="99" type="line"/>
      <point x="706" y="99" type="line"/>
      <point x="706" y="213" type="line"/>
      <point x="45" y="213" type="line"/>
    </contour>
    <contour>
      <point x="539" y="380" type="line"/>
      <point x="45" y="350" type="line"/>
      <point x="45" y="226" type="line"/>
      <point x="706" y="309" type="line"/>
      <point x="706" y="454" type="line"/>
      <point x="45" y="530" type="line"/>
      <point x="45" y="408" type="line"/>
    </contour>
  </outline>
</glyph>
<glyph name="fi" format="1">
  <advance width="735"/>
  <unicode hex="FB01"/>
  <outline>
    <contour>
      <point x="680" y="0" type="line"/>
      <point x="680" y="485" type="line"/>
      <point x="440" y="485" type="line"/>
      <point x="440" y="0" type="line"/>
    </contour>
    <contour>
      <point x="322" y="579" type="line"/>
      <point x="322" y="605"/>
      <point x="327" y="610"/>
      <point x="353" y="610" type="curve" smooth="yes"/>
      <point x="392" y="610" type="line"/>
      <point x="392" y="669" type="line"/>
      <point x="161" y="669" type="line" smooth="yes"/>
      <point x="108" y="669"/>
      <point x="82" y="643"/>
      <point x="82" y="590" type="curve" smooth="yes"/>
      <point x="82" y="0" type="line"/>
      <point x="322" y="0" type="line"/>
    </contour>
    <contour>
      <point x="459" y="485" type="line"/>
      <point x="10" y="485" type="line"/>
      <point x="10" y="426" type="line"/>
      <point x="459" y="426" type="line"/>
    </contour>
    <contour>
      <point x="436" y="543" type="line"/>
      <point x="684" y="543" type="line"/>
      <point x="684" y="669" type="line"/>
      <point x="436" y="669" type="line"/>
    </contour>
  </outline>
</glyph>
<glyph name="fl" format="1">
  <advance width="740"/>
  <unicode hex="FB02"/>
  <outline>
    <contour>
      <point x="322" y="579" type="line"/>
      <point x="322" y="605"/>
      <point x="327" y="610"/>
      <point x="353" y="610" type="curve" smooth="yes"/>
      <point x="397" y="610" type="line"/>
      <point x="397" y="669" type="line"/>
      <point x="161" y="669" type="line" smooth="yes"/>
      <point x="108" y="669"/>
      <point x="82" y="643"/>
      <point x="82" y="590" type="curve" smooth="yes"/>
      <point x="82" y="0" type="line"/>
      <point x="322" y="0" type="line"/>
    </contour>
    <contour>
      <point x="462" y="485" type="line"/>
      <point x="10" y="485" type="line"/>
      <point x="10" y="426" type="line"/>
      <point x="462" y="426" type="line"/>
    </contour>
    <contour>
      <point x="680" y="0" type="line"/>
      <point x="680" y="669" type="line"/>
      <point x="440" y="669" type="line"/>
      <point x="440" y="0" type="line"/>
    </contour>
  </outline>
</glyph>
<glyph name="dvBH_R" format="1">
  <advance width="724"/>
  <outline>
    <contour>
      <point x="1016" y="426" type="line"/>
      <point x="115" y="426" type="line" smooth="yes"/>
      <point x="62" y="426"/>
      <point x="40" y="404"/>
      <point x="40" y="351" type="curve" smooth="yes"/>
      <point x="40" y="214" type="line" smooth="yes"/>
      <point x="40" y="161"/>
      <point x="62" y="139"/>
      <point x="115" y="139" type="curve" smooth="yes"/>
      <point x="357" y="139" type="line"/>
      <point x="357" y="198" type="line"/>
      <point x="318" y="198" type="line" smooth="yes"/>
      <point x="292" y="198"/>
      <point x="284" y="207"/>
      <point x="284" y="231" type="curve" smooth="yes"/>
      <point x="284" y="334" type="line" smooth="yes"/>
      <point x="284" y="358"/>
      <point x="292" y="367"/>
      <point x="318" y="367" type="curve" smooth="yes"/>
      <point x="1016" y="367" type="line"/>
    </contour>
    <contour>
      <point x="354" y="563" type="line"/>
      <point x="366" y="563" type="line" smooth="yes"/>
      <point x="392" y="563"/>
      <point x="400" y="554"/>
      <point x="400" y="530" type="curve" smooth="yes"/>
      <point x="400" y="231" type="line" smooth="yes"/>
      <point x="400" y="207"/>
      <point x="392" y="198"/>
      <point x="366" y="198" type="curve" smooth="yes"/>
      <point x="347" y="198" type="line"/>
      <point x="347" y="139" type="line"/>
      <point x="579" y="139" type="line" smooth="yes"/>
      <point x="632" y="139"/>
      <point x="654" y="161"/>
      <point x="654" y="214" type="curve" smooth="yes"/>
      <point x="654" y="547" type="line" smooth="yes"/>
      <point x="654" y="600"/>
      <point x="632" y="622"/>
      <point x="579" y="622" type="curve" smooth="yes"/>
      <point x="354" y="622" type="line"/>
    </contour>
    <contour>
      <point x="314" y="485" type="line"/>
      <point x="314" y="530" type="line" smooth="yes"/>
      <point x="314" y="554"/>
      <point x="322" y="563"/>
      <point x="348" y="563" type="curve" smooth="yes"/>
      <point x="360" y="563" type="line"/>
      <point x="360" y="622" type="line"/>
      <point x="125" y="622" type="line" smooth="yes"/>
      <point x="72" y="622"/>
      <point x="50" y="600"/>
      <point x="50" y="547" type="curve" smooth="yes"/>
      <point x="50" y="485" type="line"/>
    </contour>
    <contour>
      <point x="1016" y="365" type="line"/>
      <point x="316" y="-120" type="line"/>
      <point x="623" y="-120" type="line"/>
      <point x="1016" y="184" type="line"/>
    </contour>
  </outline>
</glyph>
<glyph name="dvBH_YA" format="1">
  <advance width="1683"/>
  <outline>
    <contour>
      <point x="1364" y="600" type="line"/>
      <point x="1364" y="0" type="line"/>
      <point x="1628" y="0" type="line"/>
      <point x="1628" y="600" type="line"/>
    </contour>
    <contour>
      <point x="1171" y="78" type="line"/>
      <point x="1332" y="78" type="line" smooth="yes"/>
      <point x="1362" y="78"/>
      <point x="1375" y="89"/>
      <point x="1375" y="125" type="curve"/>
      <point x="1364" y="171" type="line"/>
      <point x="1364" y="145"/>
      <point x="1356" y="137"/>
      <point x="1330" y="137" type="curve" smooth="yes"/>
      <point x="1171" y="137" type="line"/>
    </contour>
    <contour>
      <point x="1187" y="137" type="line"/>
      <point x="1047" y="137" type="line" smooth="yes"/>
      <point x="1021" y="137"/>
      <point x="1013" y="146"/>
      <point x="1013" y="170" type="curve" smooth="yes"/>
      <point x="1013" y="373" type="line"/>
      <point x="749" y="373" type="line"/>
      <point x="749" y="153" type="line" smooth="yes"/>
      <point x="749" y="100"/>
      <point x="771" y="78"/>
      <point x="824" y="78" type="curve" smooth="yes"/>
      <point x="1187" y="78" type="line"/>
    </contour>
    <contour>
      <point x="816" y="314" type="line"/>
      <point x="1179" y="314" type="line" smooth="yes"/>
      <point x="1232" y="314"/>
      <point x="1254" y="336"/>
      <point x="1254" y="389" type="curve" smooth="yes"/>
      <point x="1254" y="510" type="line"/>
      <point x="990" y="510" type="line"/>
      <point x="990" y="406" type="line" smooth="yes"/>
      <point x="990" y="382"/>
      <point x="982" y="373"/>
      <point x="956" y="373" type="curve" smooth="yes"/>
      <point x="816" y="373" type="line"/>
    </contour>
    <contour>
      <point x="1254" y="498" type="line"/>
      <point x="1254" y="522" type="line" smooth="yes"/>
      <point x="1254" y="557"/>
      <point x="1240" y="568"/>
      <point x="1205" y="568" type="curve"/>
      <point x="1205" y="563" type="line"/>
      <point x="1703" y="563" type="line"/>
      <point x="1703" y="622" type="line"/>
      <point x="749" y="622" type="line"/>
      <point x="749" y="563" type="line"/>
      <point x="956" y="563" type="line" smooth="yes"/>
      <point x="982" y="563"/>
      <point x="990" y="555"/>
      <point x="990" y="529" type="curve" smooth="yes"/>
      <point x="990" y="498" type="line"/>
    </contour>
    <contour>
      <point x="831" y="373" type="line"/>
      <point x="120" y="373" type="line" smooth="yes"/>
      <point x="67" y="373"/>
      <point x="45" y="351"/>
      <point x="45" y="298" type="curve" smooth="yes"/>
      <point x="45" y="153" type="line" smooth="yes"/>
      <point x="45" y="100"/>
      <point x="67" y="78"/>
      <point x="120" y="78" type="curve" smooth="yes"/>
      <point x="362" y="78" type="line"/>
      <point x="362" y="137" type="line"/>
      <point x="323" y="137" type="line" smooth="yes"/>
      <point x="297" y="137"/>
      <point x="289" y="146"/>
      <point x="289" y="170" type="curve" smooth="yes"/>
      <point x="289" y="281" type="line" smooth="yes"/>
      <point x="289" y="305"/>
      <point x="297" y="314"/>
      <point x="323" y="314" type="curve" smooth="yes"/>
      <point x="831" y="314" type="line"/>
    </contour>
    <contour>
      <point x="359" y="563" type="line"/>
      <point x="371" y="563" type="line" smooth="yes"/>
      <point x="397" y="563"/>
      <point x="405" y="554"/>
      <point x="405" y="530" type="curve" smooth="yes"/>
      <point x="405" y="170" type="line" smooth="yes"/>
      <point x="405" y="146"/>
      <point x="397" y="137"/>
      <point x="371" y="137" type="curve" smooth="yes"/>
      <point x="352" y="137" type="line"/>
      <point x="352" y="78" type="line"/>
      <point x="594" y="78" type="line" smooth="yes"/>
      <point x="647" y="78"/>
      <point x="669" y="100"/>
      <point x="669" y="153" type="curve" smooth="yes"/>
      <point x="669" y="547" type="line" smooth="yes"/>
      <point x="669" y="600"/>
      <point x="647" y="622"/>
      <point x="594" y="622" type="curve" smooth="yes"/>
      <point x="359" y="622" type="line"/>
    </contour>
    <contour>
      <point x="319" y="441" type="line"/>
      <point x="319" y="530" type="line" smooth="yes"/>
      <point x="319" y="554"/>
      <point x="327" y="563"/>
      <point x="353" y="563" type="curve" smooth="yes"/>
      <point x="365" y="563" type="line"/>
      <point x="365" y="622" type="line"/>
      <point x="130" y="622" type="line" smooth="yes"/>
      <point x="77" y="622"/>
      <point x="55" y="600"/>
      <point x="55" y="547" type="curve" smooth="yes"/>
      <point x="55" y="441" type="line"/>
    </contour>
  </outline>
</glyph>
<glyph name="dvB" format="1">
  <advance width="443"/>
  <outline>
    <contour>
      <point x="511" y="183" type="line"/>
      <point x="315" y="426" type="line"/>
      <point x="443" y="426" type="line"/>
      <point x="443" y="485" type="line"/>
      <point x="120" y="485" type="line" smooth="yes"/>
      <point x="67" y="485"/>
      <point x="45" y="463"/>
      <point x="45" y="410" type="curve" smooth="yes"/>
      <point x="45" y="153" type="line" smooth="yes"/>
      <point x="45" y="100"/>
      <point x="67" y="78"/>
      <point x="120" y="78" type="curve" smooth="yes"/>
      <point x="554" y="78" type="line"/>
      <point x="554" y="137" type="line"/>
      <point x="343" y="137" type="line" smooth="yes"/>
      <point x="317" y="137"/>
      <point x="309" y="146"/>
      <point x="309" y="170" type="curve" smooth="yes"/>
      <point x="309" y="257" type="line" smooth="yes"/>
      <point x="309" y="323"/>
      <point x="301" y="372"/>
      <point x="301" y="372" type="curve"/>
      <point x="498" y="129" type="line"/>
    </contour>
    <contour>
      <point x="-20" y="563" type="line"/>
      <point x="463" y="563" type="line"/>
      <point x="463" y="622" type="line"/>
      <point x="-20" y="622" type="line"/>
    </contour>
  </outline>
</glyph>
<glyph name="dvB_BH_RA" format="1">
  <advance width="1523"/>
  <outline>
    <contour>
      <point x="-20" y="563" type="line"/>
      <point x="443" y="563" type="line"/>
      <point x="443" y="622" type="line"/>
      <point x="-20" y="622" type="line"/>
    </contour>
    <contour>
      <point x="1278" y="426" type="line"/>
      <point x="567" y="426" type="line" smooth="yes"/>
      <point x="514" y="426"/>
      <point x="492" y="404"/>
      <point x="492" y="351" type="curve" smooth="yes"/>
      <point x="492" y="214" type="line" smooth="yes"/>
      <point x="492" y="161"/>
      <point x="514" y="139"/>
      <point x="567" y="139" type="curve" smooth="yes"/>
      <point x="809" y="139" type="line"/>
      <point x="809" y="198" type="line"/>
      <point x="770" y="198" type="line" smooth="yes"/>
      <point x="744" y="198"/>
      <point x="736" y="207"/>
      <point x="736" y="231" type="curve" smooth="yes"/>
      <point x="736" y="334" type="line" smooth="yes"/>
      <point x="736" y="358"/>
      <point x="744" y="367"/>
      <point x="770" y="367" type="curve" smooth="yes"/>
      <point x="1278" y="367" type="line"/>
    </contour>
    <contour>
      <point x="806" y="563" type="line"/>
      <point x="818" y="563" type="line" smooth="yes"/>
      <point x="844" y="563"/>
      <point x="852" y="554"/>
      <point x="852" y="530" type="curve" smooth="yes"/>
      <point x="852" y="231" type="line" smooth="yes"/>
      <point x="852" y="207"/>
      <point x="844" y="198"/>
      <point x="818" y="198" type="curve" smooth="yes"/>
      <point x="799" y="198" type="line"/>
      <point x="799" y="139" type="line"/>
      <point x="1031" y="139" type="line" smooth="yes"/>
      <point x="1084" y="139"/>
      <point x="1106" y="161"/>
      <point x="1106" y="214" type="curve" smooth="yes"/>
      <point x="1106" y="547" type="line" smooth="yes"/>
      <point x="1106" y="600"/>
      <point x="1084" y="622"/>
      <point x="1031" y="622" type="curve" smooth="yes"/>
      <point x="806" y="622" type="line"/>
    </contour>
    <contour>
      <point x="1221" y="563" type="line"/>
      <point x="1543" y="563" type="line"/>
      <point x="1543" y="622" type="line"/>
      <point x="1221" y="622" type="line"/>
    </contour>
    <contour>
      <point x="766" y="485" type="line"/>
      <point x="766" y="530" type="line" smooth="yes"/>
      <point x="766" y="554"/>
      <point x="774" y="563"/>
      <point x="800" y="563" type="curve" smooth="yes"/>
      <point x="812" y="563" type="line"/>
      <point x="812" y="622" type="line"/>
      <point x="577" y="622" type="line" smooth="yes"/>
      <point x="524" y="622"/>
      <point x="502" y="600"/>
      <point x="502" y="547" type="curve" smooth="yes"/>
      <point x="502" y="485" type="line"/>
    </contour>
    <contour>
      <point x="1233" y="-120" type="line"/>
      <point x="1468" y="-120" type="line"/>
      <point x="1468" y="585" type="line"/>
      <point x="1221" y="585" type="line"/>
      <point x="1221" y="194" type="line"/>
      <point x="768" y="-120" type="line"/>
      <point x="1075" y="-120" type="line"/>
      <point x="1241" y="8" type="line"/>
      <point x="1241" y="8"/>
      <point x="1233" y="-61"/>
      <point x="1233" y="-107" type="curve" smooth="yes"/>
    </contour>
    <contour>
      <point x="555" y="170" type="line"/>
      <point x="493" y="170" type="line"/>
      <point x="493" y="146"/>
      <point x="485" y="137"/>
      <point x="459" y="137" type="curve" smooth="yes"/>
      <point x="443" y="137" type="line"/>
      <point x="443" y="78" type="line"/>
      <point x="476" y="78" type="line" smooth="yes"/>
      <point x="525" y="78"/>
      <point x="555" y="101"/>
      <point x="555" y="149" type="curve" smooth="yes"/>
    </contour>
    <contour>
      <point x="511" y="183" type="line"/>
      <point x="315" y="426" type="line"/>
      <point x="443" y="426" type="line"/>
      <point x="443" y="485" type="line"/>
      <point x="120" y="485" type="line" smooth="yes"/>
      <point x="67" y="485"/>
      <point x="45" y="463"/>
      <point x="45" y="410" type="curve" smooth="yes"/>
      <point x="45" y="153" type="line" smooth="yes"/>
      <point x="45" y="100"/>
      <point x="67" y="78"/>
      <point x="120" y="78" type="curve" smooth="yes"/>
      <point x="454" y="78" type="line"/>
      <point x="454" y="137" type="line"/>
      <point x="343" y="137" type="line" smooth="yes"/>
      <point x="317" y="137"/>
      <point x="309" y="146"/>
      <point x="309" y="170" type="curve" smooth="yes"/>
      <point x="309" y="257" type="line" smooth="yes"/>
      <point x="309" y="323"/>
      <point x="301" y="372"/>
      <point x="301" y="372" type="curve"/>
      <point x="498" y="129" type="line"/>
    </contour>
  </outline>
</glyph>
<glyph name="dvB_L_YA" format="1">
  <advance width="2164"/>
  <outline>
    <contour>
      <point x="-20" y="563" type="line"/>
      <point x="463" y="563" type="line"/>
      <point x="463" y="622" type="line"/>
      <point x="-20" y="622" type="line"/>
    </contour>
    <contour>
      <point x="1127" y="177" type="line"/>
      <point x="1127" y="393" type="line" smooth="yes"/>
      <point x="1127" y="417"/>
      <point x="1135" y="426"/>
      <point x="1161" y="426" type="curve" smooth="yes"/>
      <point x="1230" y="426" type="line"/>
      <point x="1230" y="485" type="line"/>
      <point x="1071" y="485" type="line" smooth="yes"/>
      <point x="1018" y="485"/>
      <point x="997" y="463"/>
      <point x="997" y="410" type="curve"/>
      <point x="992" y="410" type="line"/>
      <point x="992" y="463"/>
      <point x="971" y="485"/>
      <point x="918" y="485" type="curve" smooth="yes"/>
      <point x="807" y="485" type="line"/>
      <point x="807" y="426" type="line"/>
      <point x="829" y="426" type="line" smooth="yes"/>
      <point x="855" y="426"/>
      <point x="863" y="417"/>
      <point x="863" y="393" type="curve" smooth="yes"/>
      <point x="863" y="177" type="line"/>
    </contour>
    <contour>
      <point x="811" y="485" type="line"/>
      <point x="569" y="485" type="line" smooth="yes"/>
      <point x="516" y="485"/>
      <point x="494" y="463"/>
      <point x="494" y="410" type="curve" smooth="yes"/>
      <point x="494" y="75" type="line" smooth="yes"/>
      <point x="494" y="22"/>
      <point x="516" y="0"/>
      <point x="569" y="0" type="curve" smooth="yes"/>
      <point x="910" y="0" type="line"/>
      <point x="910" y="59" type="line"/>
      <point x="792" y="59" type="line" smooth="yes"/>
      <point x="766" y="59"/>
      <point x="758" y="68"/>
      <point x="758" y="92" type="curve" smooth="yes"/>
      <point x="758" y="393" type="line" smooth="yes"/>
      <point x="758" y="417"/>
      <point x="766" y="426"/>
      <point x="792" y="426" type="curve" smooth="yes"/>
      <point x="811" y="426" type="line"/>
    </contour>
    <contour>
      <point x="429" y="563" type="line"/>
      <point x="1203" y="563" type="line"/>
      <point x="1203" y="622" type="line"/>
      <point x="429" y="622" type="line"/>
    </contour>
    <contour>
      <point x="532" y="170" type="line"/>
      <point x="493" y="170" type="line"/>
      <point x="493" y="146"/>
      <point x="485" y="137"/>
      <point x="459" y="137" type="curve" smooth="yes"/>
      <point x="443" y="137" type="line"/>
      <point x="443" y="78" type="line"/>
      <point x="463" y="78" type="line" smooth="yes"/>
      <point x="516" y="78"/>
      <point x="532" y="101"/>
      <point x="532" y="149" type="curve" smooth="yes"/>
    </contour>
    <contour>
      <point x="511" y="183" type="line"/>
      <point x="315" y="426" type="line"/>
      <point x="443" y="426" type="line"/>
      <point x="443" y="485" type="line"/>
      <point x="120" y="485" type="line" smooth="yes"/>
      <point x="67" y="485"/>
      <point x="45" y="463"/>
      <point x="45" y="410" type="curve" smooth="yes"/>
      <point x="45" y="153" type="line" smooth="yes"/>
      <point x="45" y="100"/>
      <point x="67" y="78"/>
      <point x="120" y="78" type="curve" smooth="yes"/>
      <point x="454" y="78" type="line"/>
      <point x="454" y="137" type="line"/>
      <point x="343" y="137" type="line" smooth="yes"/>
      <point x="317" y="137"/>
      <point x="309" y="146"/>
      <point x="309" y="170" type="curve" smooth="yes"/>
      <point x="309" y="257" type="line" smooth="yes"/>
      <point x="309" y="323"/>
      <point x="301" y="372"/>
      <point x="301" y="372" type="curve"/>
      <point x="498" y="129" type="line"/>
    </contour>
    <component base="dvYA" xOffset="1195"/>
  </outline>
</glyph>
<glyph name="dvCH" format="1">
  <advance width="1035"/>
  <outline>
    <contour>
      <point x="715" y="426" type="curve"/>
      <point x="732" y="426" type="line" smooth="yes"/>
      <point x="758" y="426"/>
      <point x="766" y="417"/>
      <point x="766" y="393" type="curve" smooth="yes"/>
      <point x="766" y="92" type="line" smooth="yes"/>
      <point x="766" y="68"/>
      <point x="758" y="59"/>
      <point x="732" y="59" type="curve" smooth="yes"/>
      <point x="559" y="59" type="line"/>
      <point x="559" y="0" type="line"/>
      <point x="920" y="0" type="line" smooth="yes"/>
      <point x="973" y="0"/>
      <point x="995" y="22"/>
      <point x="995" y="75" type="curve" smooth="yes"/>
      <point x="995" y="410" type="line" smooth="yes"/>
      <point x="995" y="463"/>
      <point x="973" y="485"/>
      <point x="920" y="485" type="curve" smooth="yes"/>
      <point x="527" y="485" type="line" smooth="yes"/>
      <point x="474" y="485"/>
      <point x="452" y="463"/>
      <point x="452" y="410" type="curve" smooth="yes"/>
      <point x="452" y="248" type="line" smooth="yes"/>
      <point x="452" y="195"/>
      <point x="474" y="173"/>
      <point x="527" y="173" type="curve" smooth="yes"/>
      <point x="729" y="173" type="line"/>
      <point x="729" y="232" type="line"/>
      <point x="715" y="232" type="line" smooth="yes"/>
      <point x="689" y="232"/>
      <point x="681" y="241"/>
      <point x="681" y="265" type="curve" smooth="yes"/>
      <point x="681" y="393" type="line" smooth="yes"/>
      <point x="681" y="417"/>
      <point x="689" y="426"/>
    </contour>
    <contour>
      <point x="55" y="384" type="line"/>
      <point x="55" y="331"/>
      <point x="77" y="310"/>
      <point x="130" y="310" type="curve"/>
      <point x="130" y="305" type="line"/>
      <point x="77" y="305"/>
      <point x="55" y="284"/>
      <point x="55" y="231" type="curve" smooth="yes"/>
      <point x="55" y="75" type="line" smooth="yes"/>
      <point x="55" y="22"/>
      <point x="77" y="0"/>
      <point x="130" y="0" type="curve" smooth="yes"/>
      <point x="587" y="0" type="line"/>
      <point x="587" y="59" type="line"/>
      <point x="353" y="59" type="line" smooth="yes"/>
      <point x="327" y="59"/>
      <point x="319" y="68"/>
      <point x="319" y="92" type="curve" smooth="yes"/>
      <point x="319" y="246" type="line" smooth="yes"/>
      <point x="319" y="272"/>
      <point x="327" y="280"/>
      <point x="353" y="280" type="curve" smooth="yes"/>
      <point x="406" y="280" type="line"/>
      <point x="406" y="339" type="line"/>
      <point x="353" y="339" type="line" smooth="yes"/>
      <point x="327" y="339"/>
      <point x="319" y="347"/>
      <point x="319" y="373" type="curve" smooth="yes"/>
      <point x="319" y="529" type="line" smooth="yes"/>
      <point x="319" y="555"/>
      <point x="327" y="563"/>
      <point x="353" y="563" type="curve" smooth="yes"/>
      <point x="1055" y="563" type="line"/>
      <point x="1055" y="622" type="line"/>
      <point x="-20" y="622" type="line"/>
      <point x="-20" y="563" type="line"/>
      <point x="104" y="563" type="line"/>
      <point x="104" y="568" type="line"/>
      <point x="69" y="568"/>
      <point x="55" y="557"/>
      <point x="55" y="522" type="curve" smooth="yes"/>
    </contour>
  </outline>
</glyph>
<glyph name="dvCH_YA" format="1">
  <advance width="1980"/>
  <outline>
    <contour>
      <point x="1661" y="600" type="line"/>
      <point x="1661" y="0" type="line"/>
      <point x="1925" y="0" type="line"/>
      <point x="1925" y="600" type="line"/>
    </contour>
    <contour>
      <point x="1488" y="78" type="line"/>
      <point x="1629" y="78" type="line" smooth="yes"/>
      <point x="1659" y="78"/>
      <point x="1672" y="89"/>
      <point x="1672" y="125" type="curve"/>
      <point x="1661" y="171" type="line"/>
      <point x="1661" y="145"/>
      <point x="1653" y="137"/>
      <point x="1627" y="137" type="curve" smooth="yes"/>
      <point x="1488" y="137" type="line"/>
    </contour>
    <contour>
      <point x="1504" y="137" type="line"/>
      <point x="1364" y="137" type="line" smooth="yes"/>
      <point x="1338" y="137"/>
      <point x="1330" y="146"/>
      <point x="1330" y="170" type="curve" smooth="yes"/>
      <point x="1330" y="308" type="line"/>
      <point x="1071" y="308" type="line"/>
      <point x="1071" y="153" type="line" smooth="yes"/>
      <point x="1071" y="100"/>
      <point x="1093" y="78"/>
      <point x="1146" y="78" type="curve" smooth="yes"/>
      <point x="1504" y="78" type="line"/>
    </contour>
    <contour>
      <point x="1113" y="249" type="line"/>
      <point x="1476" y="249" type="line" smooth="yes"/>
      <point x="1529" y="249"/>
      <point x="1551" y="271"/>
      <point x="1551" y="324" type="curve" smooth="yes"/>
      <point x="1551" y="370" type="line"/>
      <point x="1287" y="370" type="line"/>
      <point x="1287" y="341" type="line" smooth="yes"/>
      <point x="1287" y="317"/>
      <point x="1279" y="308"/>
      <point x="1253" y="308" type="curve" smooth="yes"/>
      <point x="1113" y="308" type="line"/>
    </contour>
    <contour>
      <point x="2000" y="563" type="line"/>
      <point x="2000" y="622" type="line"/>
      <point x="982" y="622" type="line"/>
      <point x="982" y="563" type="line"/>
    </contour>
    <contour>
      <point x="939" y="426" type="line"/>
      <point x="1253" y="426" type="line" smooth="yes"/>
      <point x="1279" y="426"/>
      <point x="1287" y="417"/>
      <point x="1287" y="393" type="curve" smooth="yes"/>
      <point x="1287" y="364" type="line"/>
      <point x="1551" y="364" type="line"/>
      <point x="1551" y="410" type="line" smooth="yes"/>
      <point x="1551" y="463"/>
      <point x="1529" y="485"/>
      <point x="1476" y="485" type="curve" smooth="yes"/>
      <point x="939" y="485" type="line"/>
    </contour>
    <contour>
      <point x="715" y="426" type="curve"/>
      <point x="732" y="426" type="line" smooth="yes"/>
      <point x="758" y="426"/>
      <point x="766" y="417"/>
      <point x="766" y="393" type="curve" smooth="yes"/>
      <point x="766" y="92" type="line" smooth="yes"/>
      <point x="766" y="68"/>
      <point x="758" y="59"/>
      <point x="732" y="59" type="curve" smooth="yes"/>
      <point x="559" y="59" type="line"/>
      <point x="559" y="0" type="line"/>
      <point x="920" y="0" type="line" smooth="yes"/>
      <point x="973" y="0"/>
      <point x="995" y="22"/>
      <point x="995" y="75" type="curve" smooth="yes"/>
      <point x="995" y="410" type="line" smooth="yes"/>
      <point x="995" y="463"/>
      <point x="973" y="485"/>
      <point x="920" y="485" type="curve" smooth="yes"/>
      <point x="527" y="485" type="line" smooth="yes"/>
      <point x="474" y="485"/>
      <point x="452" y="463"/>
      <point x="452" y="410" type="curve" smooth="yes"/>
      <point x="452" y="248" type="line" smooth="yes"/>
      <point x="452" y="195"/>
      <point x="474" y="173"/>
      <point x="527" y="173" type="curve" smooth="yes"/>
      <point x="729" y="173" type="line"/>
      <point x="729" y="232" type="line"/>
      <point x="715" y="232" type="line" smooth="yes"/>
      <point x="689" y="232"/>
      <point x="681" y="241"/>
      <point x="681" y="265" type="curve" smooth="yes"/>
      <point x="681" y="393" type="line" smooth="yes"/>
      <point x="681" y="417"/>
      <point x="689" y="426"/>
    </contour>
    <contour>
      <point x="55" y="384" type="line"/>
      <point x="55" y="331"/>
      <point x="77" y="310"/>
      <point x="130" y="310" type="curve"/>
      <point x="130" y="305" type="line"/>
      <point x="77" y="305"/>
      <point x="55" y="284"/>
      <point x="55" y="231" type="curve" smooth="yes"/>
      <point x="55" y="75" type="line" smooth="yes"/>
      <point x="55" y="22"/>
      <point x="77" y="0"/>
      <point x="130" y="0" type="curve" smooth="yes"/>
      <point x="587" y="0" type="line"/>
      <point x="587" y="59" type="line"/>
      <point x="353" y="59" type="line" smooth="yes"/>
      <point x="327" y="59"/>
      <point x="319" y="68"/>
      <point x="319" y="92" type="curve" smooth="yes"/>
      <point x="319" y="246" type="line" smooth="yes"/>
      <point x="319" y="272"/>
      <point x="327" y="280"/>
      <point x="353" y="280" type="curve" smooth="yes"/>
      <point x="406" y="280" type="line"/>
      <point x="406" y="339" type="line"/>
      <point x="353" y="339" type="line" smooth="yes"/>
      <point x="327" y="339"/>
      <point x="319" y="347"/>
      <point x="319" y="373" type="curve" smooth="yes"/>
      <point x="319" y="529" type="line" smooth="yes"/>
      <point x="319" y="555"/>
      <point x="327" y="563"/>
      <point x="353" y="563" type="curve" smooth="yes"/>
      <point x="1060" y="563" type="line"/>
      <point x="1060" y="622" type="line"/>
      <point x="-20" y="622" type="line"/>
      <point x="-20" y="563" type="line"/>
      <point x="104" y="563" type="line"/>
      <point x="104" y="568" type="line"/>
      <point x="69" y="568"/>
      <point x="55" y="557"/>
      <point x="55" y="522" type="curve" smooth="yes"/>
    </contour>
  </outline>
</glyph>
<glyph name="dvC" format="1">
  <advance width="461"/>
  <outline>
    <contour>
      <point x="5" y="426" type="line"/>
      <point x="138" y="426" type="line"/>
      <point x="138" y="431" type="line"/>
      <point x="103" y="431"/>
      <point x="89" y="420"/>
      <point x="89" y="385" type="curve" smooth="yes"/>
      <point x="89" y="153" type="line" smooth="yes"/>
      <point x="89" y="100"/>
      <point x="111" y="78"/>
      <point x="164" y="78" type="curve" smooth="yes"/>
      <point x="598" y="78" type="line"/>
      <point x="598" y="137" type="line"/>
      <point x="387" y="137" type="line" smooth="yes"/>
      <point x="361" y="137"/>
      <point x="353" y="146"/>
      <point x="353" y="170" type="curve" smooth="yes"/>
      <point x="353" y="393" type="line" smooth="yes"/>
      <point x="353" y="415"/>
      <point x="360" y="424"/>
      <point x="381" y="426" type="curve" smooth="yes"/>
      <point x="441" y="426" type="line"/>
      <point x="441" y="485" type="line"/>
      <point x="5" y="485" type="line"/>
    </contour>
    <contour>
      <point x="-20" y="563" type="line"/>
      <point x="481" y="563" type="line"/>
      <point x="481" y="622" type="line"/>
      <point x="-20" y="622" type="line"/>
    </contour>
  </outline>
</glyph>
